<?xml version="1.0" encoding="utf-8" standalone="no"?>
<!DOCTYPE svg PUBLIC "-//W3C//DTD SVG 1.1//EN"
  "http://www.w3.org/Graphics/SVG/1.1/DTD/svg11.dtd">
<svg xmlns:xlink="http://www.w3.org/1999/xlink" width="404.39952pt" height="296.39952pt" viewBox="0 0 404.39952 296.39952" xmlns="http://www.w3.org/2000/svg" version="1.1">
 <metadata>
  <rdf:RDF xmlns:dc="http://purl.org/dc/elements/1.1/" xmlns:cc="http://creativecommons.org/ns#" xmlns:rdf="http://www.w3.org/1999/02/22-rdf-syntax-ns#">
   <cc:Work>
    <dc:type rdf:resource="http://purl.org/dc/dcmitype/StillImage"/>
    <dc:date>2026-10-02T20:47:20.142830</dc:date>
    <dc:format>image/svg+xml</dc:format>
    <dc:creator>
     <cc:Agent>
      <dc:title>Matplotlib v3.11.1, https://matplotlib.org/</dc:title>
     </cc:Agent>
    </dc:creator>
   </cc:Work>
  </rdf:RDF>
 </metadata>
 <defs>
  <style type="text/css">*{stroke-linejoin: round; stroke-linecap: butt}</style>
 </defs>
 <g id="figure_1">
  <g id="patch_1">
   <path d="M 0 296.39952 
L 404.39952 296.39952 
L 404.39952 0 
L 0 0 
z
" style="fill: #ffffff"/>
  </g>
  <g id="axes_1">
   <g id="patch_2">
    <path d="M 47.471094 252.198426 
L 397.19952 252.198426 
L 397.19952 26.877187 
L 47.471094 26.877187 
z
" style="fill: #ffffff"/>
   </g>
   <g id="matplotlib.axis_1">
    <g id="xtick_1">
     <g id="line2d_1">
      <path d="M 72.451696 252.198426 
L 72.451696 26.877187 
" clip-path="url(#p5cf3dd1544)" style="fill: none; stroke-dasharray: 0.5,0.825; stroke-dashoffset: 0; stroke: #b0b0b0; stroke-opacity: 0.6; stroke-width: 0.5"/>
     </g>
     <g id="line2d_2">
      <defs>
       <path id="m393351542d" d="M 0 0 
L 0 3.5 
" style="stroke: #000000; stroke-width: 0.8"/>
      </defs>
      <g>
       <use xlink:href="#m393351542d" x="72.451696" y="252.198426" style="stroke: #000000; stroke-width: 0.8"/>
      </g>
     </g>
     <g id="text_1">
      <text style="font-size: 12px; font-family: 'DejaVu Serif', 'Bitstream Vera Serif', 'Computer Modern Roman', 'New Century Schoolbook', 'Century Schoolbook L', 'Utopia', 'ITC Bookman', 'Bookman', 'Nimbus Roman No9 L', 'Times New Roman', 'Times', 'Palatino', 'Charter', serif; text-anchor: middle" x="72.451696" y="268.315614" transform="rotate(-0 72.451696 268.315614)">2</text>
     </g>
    </g>
    <g id="xtick_2">
     <g id="line2d_3">
      <path d="M 122.412899 252.198426 
L 122.412899 26.877187 
" clip-path="url(#p5cf3dd1544)" style="fill: none; stroke-dasharray: 0.5,0.825; stroke-dashoffset: 0; stroke: #b0b0b0; stroke-opacity: 0.6; stroke-width: 0.5"/>
     </g>
     <g id="line2d_4">
      <g>
       <use xlink:href="#m393351542d" x="122.412899" y="252.198426" style="stroke: #000000; stroke-width: 0.8"/>
      </g>
     </g>
     <g id="text_2">
      <text style="font-size: 12px; font-family: 'DejaVu Serif', 'Bitstream Vera Serif', 'Computer Modern Roman', 'New Century Schoolbook', 'Century Schoolbook L', 'Utopia', 'ITC Bookman', 'Bookman', 'Nimbus Roman No9 L', 'Times New Roman', 'Times', 'Palatino', 'Charter', serif; text-anchor: middle" x="122.412899" y="268.315614" transform="rotate(-0 122.412899 268.315614)">4</text>
     </g>
    </g>
    <g id="xtick_3">
     <g id="line2d_5">
      <path d="M 172.374103 252.198426 
L 172.374103 26.877187 
" clip-path="url(#p5cf3dd1544)" style="fill: none; stroke-dasharray: 0.5,0.825; stroke-dashoffset: 0; stroke: #b0b0b0; stroke-opacity: 0.6; stroke-width: 0.5"/>
     </g>
     <g id="line2d_6">
      <g>
       <use xlink:href="#m393351542d" x="172.374103" y="252.198426" style="stroke: #000000; stroke-width: 0.8"/>
      </g>
     </g>
     <g id="text_3">
      <text style="font-size: 12px; font-family: 'DejaVu Serif', 'Bitstream Vera Serif', 'Computer Modern Roman', 'New Century Schoolbook', 'Century Schoolbook L', 'Utopia', 'ITC Bookman', 'Bookman', 'Nimbus Roman No9 L', 'Times New Roman', 'Times', 'Palatino', 'Charter', serif; text-anchor: middle" x="172.374103" y="268.315614" transform="rotate(-0 172.374103 268.315614)">6</text>
     </g>
    </g>
    <g id="xtick_4">
     <g id="line2d_7">
      <path d="M 222.335307 252.198426 
L 222.335307 26.877187 
" clip-path="url(#p5cf3dd1544)" style="fill: none; stroke-dasharray: 0.5,0.825; stroke-dashoffset: 0; stroke: #b0b0b0; stroke-opacity: 0.6; stroke-width: 0.5"/>
     </g>
     <g id="line2d_8">
      <g>
       <use xlink:href="#m393351542d" x="222.335307" y="252.198426" style="stroke: #000000; stroke-width: 0.8"/>
      </g>
     </g>
     <g id="text_4">
      <text style="font-size: 12px; font-family: 'DejaVu Serif', 'Bitstream Vera Serif', 'Computer Modern Roman', 'New Century Schoolbook', 'Century Schoolbook L', 'Utopia', 'ITC Bookman', 'Bookman', 'Nimbus Roman No9 L', 'Times New Roman', 'Times', 'Palatino', 'Charter', serif; text-anchor: middle" x="222.335307" y="268.315614" transform="rotate(-0 222.335307 268.315614)">8</text>
     </g>
    </g>
    <g id="xtick_5">
     <g id="line2d_9">
      <path d="M 272.296511 252.198426 
L 272.296511 26.877187 
" clip-path="url(#p5cf3dd1544)" style="fill: none; stroke-dasharray: 0.5,0.825; stroke-dashoffset: 0; stroke: #b0b0b0; stroke-opacity: 0.6; stroke-width: 0.5"/>
     </g>
     <g id="line2d_10">
      <g>
       <use xlink:href="#m393351542d" x="272.296511" y="252.198426" style="stroke: #000000; stroke-width: 0.8"/>
      </g>
     </g>
     <g id="text_5">
      <text style="font-size: 12px; font-family: 'DejaVu Serif', 'Bitstream Vera Serif', 'Computer Modern Roman', 'New Century Schoolbook', 'Century Schoolbook L', 'Utopia', 'ITC Bookman', 'Bookman', 'Nimbus Roman No9 L', 'Times New Roman', 'Times', 'Palatino', 'Charter', serif; text-anchor: middle" x="272.296511" y="268.315614" transform="rotate(-0 272.296511 268.315614)">10</text>
     </g>
    </g>
    <g id="xtick_6">
     <g id="line2d_11">
      <path d="M 322.257714 252.198426 
L 322.257714 26.877187 
" clip-path="url(#p5cf3dd1544)" style="fill: none; stroke-dasharray: 0.5,0.825; stroke-dashoffset: 0; stroke: #b0b0b0; stroke-opacity: 0.6; stroke-width: 0.5"/>
     </g>
     <g id="line2d_12">
      <g>
       <use xlink:href="#m393351542d" x="322.257714" y="252.198426" style="stroke: #000000; stroke-width: 0.8"/>
      </g>
     </g>
     <g id="text_6">
      <text style="font-size: 12px; font-family: 'DejaVu Serif', 'Bitstream Vera Serif', 'Computer Modern Roman', 'New Century Schoolbook', 'Century Schoolbook L', 'Utopia', 'ITC Bookman', 'Bookman', 'Nimbus Roman No9 L', 'Times New Roman', 'Times', 'Palatino', 'Charter', serif; text-anchor: middle" x="322.257714" y="268.315614" transform="rotate(-0 322.257714 268.315614)">12</text>
     </g>
    </g>
    <g id="xtick_7">
     <g id="line2d_13">
      <path d="M 372.218918 252.198426 
L 372.218918 26.877187 
" clip-path="url(#p5cf3dd1544)" style="fill: none; stroke-dasharray: 0.5,0.825; stroke-dashoffset: 0; stroke: #b0b0b0; stroke-opacity: 0.6; stroke-width: 0.5"/>
     </g>
     <g id="line2d_14">
      <g>
       <use xlink:href="#m393351542d" x="372.218918" y="252.198426" style="stroke: #000000; stroke-width: 0.8"/>
      </g>
     </g>
     <g id="text_7">
      <text style="font-size: 12px; font-family: 'DejaVu Serif', 'Bitstream Vera Serif', 'Computer Modern Roman', 'New Century Schoolbook', 'Century Schoolbook L', 'Utopia', 'ITC Bookman', 'Bookman', 'Nimbus Roman No9 L', 'Times New Roman', 'Times', 'Palatino', 'Charter', serif; text-anchor: middle" x="372.218918" y="268.315614" transform="rotate(-0 372.218918 268.315614)">14</text>
     </g>
    </g>
    <g id="text_8">
     <text style="font-size: 14px; font-family: 'DejaVu Serif', 'Bitstream Vera Serif', 'Computer Modern Roman', 'New Century Schoolbook', 'Century Schoolbook L', 'Utopia', 'ITC Bookman', 'Bookman', 'Nimbus Roman No9 L', 'Times New Roman', 'Times', 'Palatino', 'Charter', serif; text-anchor: middle" x="222.335307" y="285.836239" transform="rotate(-0 222.335307 285.836239)">O/F ratio (-)</text>
    </g>
   </g>
   <g id="matplotlib.axis_2">
    <g id="ytick_1">
     <g id="line2d_15">
      <path d="M 47.471094 235.916646 
L 397.19952 235.916646 
" clip-path="url(#p5cf3dd1544)" style="fill: none; stroke-dasharray: 0.5,0.825; stroke-dashoffset: 0; stroke: #b0b0b0; stroke-opacity: 0.6; stroke-width: 0.5"/>
     </g>
     <g id="line2d_16">
      <defs>
       <path id="mc6621ac468" d="M 0 0 
L -3.5 0 
" style="stroke: #000000; stroke-width: 0.8"/>
      </defs>
      <g>
       <use xlink:href="#mc6621ac468" x="47.471094" y="235.916646" style="stroke: #000000; stroke-width: 0.8"/>
      </g>
     </g>
     <g id="text_9">
      <text style="font-size: 12px; font-family: 'DejaVu Serif', 'Bitstream Vera Serif', 'Computer Modern Roman', 'New Century Schoolbook', 'Century Schoolbook L', 'Utopia', 'ITC Bookman', 'Bookman', 'Nimbus Roman No9 L', 'Times New Roman', 'Times', 'Palatino', 'Charter', serif; text-anchor: end" x="40.471094" y="240.47524" transform="rotate(-0 40.471094 240.47524)">23</text>
     </g>
    </g>
    <g id="ytick_2">
     <g id="line2d_17">
      <path d="M 47.471094 207.472423 
L 397.19952 207.472423 
" clip-path="url(#p5cf3dd1544)" style="fill: none; stroke-dasharray: 0.5,0.825; stroke-dashoffset: 0; stroke: #b0b0b0; stroke-opacity: 0.6; stroke-width: 0.5"/>
     </g>
     <g id="line2d_18">
      <g>
       <use xlink:href="#mc6621ac468" x="47.471094" y="207.472423" style="stroke: #000000; stroke-width: 0.8"/>
      </g>
     </g>
     <g id="text_10">
      <text style="font-size: 12px; font-family: 'DejaVu Serif', 'Bitstream Vera Serif', 'Computer Modern Roman', 'New Century Schoolbook', 'Century Schoolbook L', 'Utopia', 'ITC Bookman', 'Bookman', 'Nimbus Roman No9 L', 'Times New Roman', 'Times', 'Palatino', 'Charter', serif; text-anchor: end" x="40.471094" y="212.031017" transform="rotate(-0 40.471094 212.031017)">24</text>
     </g>
    </g>
    <g id="ytick_3">
     <g id="line2d_19">
      <path d="M 47.471094 179.0282 
L 397.19952 179.0282 
" clip-path="url(#p5cf3dd1544)" style="fill: none; stroke-dasharray: 0.5,0.825; stroke-dashoffset: 0; stroke: #b0b0b0; stroke-opacity: 0.6; stroke-width: 0.5"/>
     </g>
     <g id="line2d_20">
      <g>
       <use xlink:href="#mc6621ac468" x="47.471094" y="179.0282" style="stroke: #000000; stroke-width: 0.8"/>
      </g>
     </g>
     <g id="text_11">
      <text style="font-size: 12px; font-family: 'DejaVu Serif', 'Bitstream Vera Serif', 'Computer Modern Roman', 'New Century Schoolbook', 'Century Schoolbook L', 'Utopia', 'ITC Bookman', 'Bookman', 'Nimbus Roman No9 L', 'Times New Roman', 'Times', 'Palatino', 'Charter', serif; text-anchor: end" x="40.471094" y="183.586794" transform="rotate(-0 40.471094 183.586794)">25</text>
     </g>
    </g>
    <g id="ytick_4">
     <g id="line2d_21">
      <path d="M 47.471094 150.583977 
L 397.19952 150.583977 
" clip-path="url(#p5cf3dd1544)" style="fill: none; stroke-dasharray: 0.5,0.825; stroke-dashoffset: 0; stroke: #b0b0b0; stroke-opacity: 0.6; stroke-width: 0.5"/>
     </g>
     <g id="line2d_22">
      <g>
       <use xlink:href="#mc6621ac468" x="47.471094" y="150.583977" style="stroke: #000000; stroke-width: 0.8"/>
      </g>
     </g>
     <g id="text_12">
      <text style="font-size: 12px; font-family: 'DejaVu Serif', 'Bitstream Vera Serif', 'Computer Modern Roman', 'New Century Schoolbook', 'Century Schoolbook L', 'Utopia', 'ITC Bookman', 'Bookman', 'Nimbus Roman No9 L', 'Times New Roman', 'Times', 'Palatino', 'Charter', serif; text-anchor: end" x="40.471094" y="155.142571" transform="rotate(-0 40.471094 155.142571)">26</text>
     </g>
    </g>
    <g id="ytick_5">
     <g id="line2d_23">
      <path d="M 47.471094 122.139754 
L 397.19952 122.139754 
" clip-path="url(#p5cf3dd1544)" style="fill: none; stroke-dasharray: 0.5,0.825; stroke-dashoffset: 0; stroke: #b0b0b0; stroke-opacity: 0.6; stroke-width: 0.5"/>
     </g>
     <g id="line2d_24">
      <g>
       <use xlink:href="#mc6621ac468" x="47.471094" y="122.139754" style="stroke: #000000; stroke-width: 0.8"/>
      </g>
     </g>
     <g id="text_13">
      <text style="font-size: 12px; font-family: 'DejaVu Serif', 'Bitstream Vera Serif', 'Computer Modern Roman', 'New Century Schoolbook', 'Century Schoolbook L', 'Utopia', 'ITC Bookman', 'Bookman', 'Nimbus Roman No9 L', 'Times New Roman', 'Times', 'Palatino', 'Charter', serif; text-anchor: end" x="40.471094" y="126.698348" transform="rotate(-0 40.471094 126.698348)">27</text>
     </g>
    </g>
    <g id="ytick_6">
     <g id="line2d_25">
      <path d="M 47.471094 93.695531 
L 397.19952 93.695531 
" clip-path="url(#p5cf3dd1544)" style="fill: none; stroke-dasharray: 0.5,0.825; stroke-dashoffset: 0; stroke: #b0b0b0; stroke-opacity: 0.6; stroke-width: 0.5"/>
     </g>
     <g id="line2d_26">
      <g>
       <use xlink:href="#mc6621ac468" x="47.471094" y="93.695531" style="stroke: #000000; stroke-width: 0.8"/>
      </g>
     </g>
     <g id="text_14">
      <text style="font-size: 12px; font-family: 'DejaVu Serif', 'Bitstream Vera Serif', 'Computer Modern Roman', 'New Century Schoolbook', 'Century Schoolbook L', 'Utopia', 'ITC Bookman', 'Bookman', 'Nimbus Roman No9 L', 'Times New Roman', 'Times', 'Palatino', 'Charter', serif; text-anchor: end" x="40.471094" y="98.254125" transform="rotate(-0 40.471094 98.254125)">28</text>
     </g>
    </g>
    <g id="ytick_7">
     <g id="line2d_27">
      <path d="M 47.471094 65.251308 
L 397.19952 65.251308 
" clip-path="url(#p5cf3dd1544)" style="fill: none; stroke-dasharray: 0.5,0.825; stroke-dashoffset: 0; stroke: #b0b0b0; stroke-opacity: 0.6; stroke-width: 0.5"/>
     </g>
     <g id="line2d_28">
      <g>
       <use xlink:href="#mc6621ac468" x="47.471094" y="65.251308" style="stroke: #000000; stroke-width: 0.8"/>
      </g>
     </g>
     <g id="text_15">
      <text style="font-size: 12px; font-family: 'DejaVu Serif', 'Bitstream Vera Serif', 'Computer Modern Roman', 'New Century Schoolbook', 'Century Schoolbook L', 'Utopia', 'ITC Bookman', 'Bookman', 'Nimbus Roman No9 L', 'Times New Roman', 'Times', 'Palatino', 'Charter', serif; text-anchor: end" x="40.471094" y="69.809902" transform="rotate(-0 40.471094 69.809902)">29</text>
     </g>
    </g>
    <g id="ytick_8">
     <g id="line2d_29">
      <path d="M 47.471094 36.807085 
L 397.19952 36.807085 
" clip-path="url(#p5cf3dd1544)" style="fill: none; stroke-dasharray: 0.5,0.825; stroke-dashoffset: 0; stroke: #b0b0b0; stroke-opacity: 0.6; stroke-width: 0.5"/>
     </g>
     <g id="line2d_30">
      <g>
       <use xlink:href="#mc6621ac468" x="47.471094" y="36.807085" style="stroke: #000000; stroke-width: 0.8"/>
      </g>
     </g>
     <g id="text_16">
      <text style="font-size: 12px; font-family: 'DejaVu Serif', 'Bitstream Vera Serif', 'Computer Modern Roman', 'New Century Schoolbook', 'Century Schoolbook L', 'Utopia', 'ITC Bookman', 'Bookman', 'Nimbus Roman No9 L', 'Times New Roman', 'Times', 'Palatino', 'Charter', serif; text-anchor: end" x="40.471094" y="41.365679" transform="rotate(-0 40.471094 41.365679)">30</text>
     </g>
    </g>
    <g id="text_17">
     <text style="font-size: 14px; font-family: 'DejaVu Serif', 'Bitstream Vera Serif', 'Computer Modern Roman', 'New Century Schoolbook', 'Century Schoolbook L', 'Utopia', 'ITC Bookman', 'Bookman', 'Nimbus Roman No9 L', 'Times New Roman', 'Times', 'Palatino', 'Charter', serif; text-anchor: middle" x="17.837813" y="139.537807" transform="rotate(-90 17.837813 139.537807)">Molecular weight (g/mol)</text>
    </g>
   </g>
   <g id="line2d_31">
    <path d="M 47.471094 79.343468 
L 51.003704 111.311603 
L 54.536314 128.957584 
L 58.068925 147.326218 
L 61.601535 167.316927 
L 65.134146 186.067664 
L 68.666756 202.146761 
L 72.199366 214.956048 
L 75.731977 224.250436 
L 79.264587 230.270238 
L 82.797197 233.910291 
L 86.329808 236.229247 
L 89.862418 237.930827 
L 93.395029 239.36584 
L 96.927639 240.693878 
L 100.460249 241.956552 
L 103.99286 237.868537 
L 107.52547 228.376324 
L 111.05808 219.28918 
L 114.590691 210.635308 
L 118.123301 202.408837 
L 121.655911 194.604381 
L 125.188522 187.219047 
L 128.721132 180.251234 
L 132.253743 173.698245 
L 135.786353 167.553752 
L 139.318963 161.806056 
L 142.851574 156.437712 
L 146.384184 151.426475 
L 149.916794 146.747025 
L 153.449405 142.372821 
L 156.982015 138.277631 
L 160.514625 134.436585 
L 164.047236 130.826759 
L 167.579846 127.427412 
L 171.112457 124.219988 
L 174.645067 121.187991 
L 178.177677 118.316801 
L 181.710288 115.59346 
L 185.242898 113.006473 
L 188.775508 110.545614 
L 192.308119 108.201762 
L 195.840729 105.966751 
L 199.373339 103.833246 
L 202.90595 101.794633 
L 206.43856 99.844927 
L 209.971171 97.978692 
L 213.503781 96.190975 
L 217.036391 94.47725 
L 220.569002 92.833365 
L 224.101612 91.255506 
L 227.634222 89.740152 
L 231.166833 88.284051 
L 234.699443 86.88419 
L 238.232054 85.53777 
L 241.764664 84.242187 
L 245.297274 82.995014 
L 248.829885 81.793981 
L 252.362495 80.636967 
L 255.895105 79.521982 
L 259.427716 78.447159 
L 262.960326 77.410742 
L 266.492936 76.411078 
L 270.025547 75.446609 
L 273.558157 74.515864 
L 277.090768 73.617455 
L 280.623378 72.750065 
L 284.155988 71.912451 
L 287.688599 71.103431 
L 291.221209 70.321887 
L 294.753819 69.566754 
L 298.28643 68.837022 
L 301.81904 68.131728 
L 305.35165 67.449957 
L 308.884261 66.790836 
L 312.416871 66.153532 
L 315.949482 65.53725 
L 319.482092 64.941234 
L 323.014702 64.364757 
L 326.547313 63.807126 
L 330.079923 63.267679 
L 333.612533 62.74578 
L 337.145144 62.240821 
L 340.677754 61.752219 
L 344.210365 61.279417 
L 347.742975 60.821876 
L 351.275585 60.379083 
L 354.808196 59.950544 
L 358.340806 59.535783 
L 361.873416 59.134344 
L 365.406027 58.745789 
L 368.938637 58.369695 
L 372.471247 58.005656 
L 376.003858 57.653281 
L 379.536468 57.312193 
L 383.069079 56.982029 
L 386.601689 56.66244 
L 390.134299 56.353089 
L 393.66691 56.05365 
L 397.19952 55.76381 
" clip-path="url(#p5cf3dd1544)" style="fill: none; stroke: #463480; stroke-width: 2.5; stroke-linecap: square"/>
   </g>
   <g id="line2d_32">
    <path d="M 47.471094 84.261605 
L 51.003704 113.314499 
L 54.536314 149.381569 
L 58.068925 180.416504 
L 61.601535 204.541763 
L 65.134146 217.031863 
L 68.666756 207.308194 
L 72.199366 192.491977 
L 75.731977 178.284316 
L 79.264587 164.796033 
L 82.797197 152.005273 
L 86.329808 139.900472 
L 89.862418 128.491399 
L 93.395029 117.819164 
L 96.927639 107.968579 
L 100.460249 99.070363 
L 103.99286 91.263855 
L 107.52547 84.614552 
L 111.05808 79.058969 
L 114.590691 74.438365 
L 118.123301 70.571035 
L 121.655911 67.297735 
L 125.188522 64.493783 
L 128.721132 62.065464 
L 132.253743 59.942787 
L 135.786353 58.072974 
L 139.318963 56.415583 
L 142.851574 54.939056 
L 146.384184 53.618319 
L 149.916794 52.433111 
L 153.449405 51.366803 
L 156.982015 50.405556 
L 160.514625 49.537713 
L 164.047236 48.75334 
L 167.579846 48.043898 
L 171.112457 47.401975 
L 174.645067 46.821094 
L 178.177677 46.295557 
L 181.710288 45.820317 
L 185.242898 45.390887 
L 188.775508 45.003253 
L 192.308119 44.653815 
L 195.840729 44.339329 
L 199.373339 44.056862 
L 202.90595 43.803758 
L 206.43856 43.577603 
L 209.971171 43.376199 
L 213.503781 43.19754 
L 217.036391 43.039794 
L 220.569002 42.901281 
L 224.101612 42.780464 
L 227.634222 42.675931 
L 231.166833 42.586385 
L 234.699443 42.510632 
L 238.232054 42.447574 
L 241.764664 42.3962 
L 245.297274 42.355576 
L 248.829885 42.324843 
L 252.362495 42.303207 
L 255.895105 42.289934 
L 259.427716 42.284348 
L 262.960326 42.285824 
L 266.492936 42.293783 
L 270.025547 42.30769 
L 273.558157 42.327052 
L 277.090768 42.351411 
L 280.623378 42.380345 
L 284.155988 42.413462 
L 287.688599 42.4504 
L 291.221209 42.490823 
L 294.753819 42.534423 
L 298.28643 42.580912 
L 301.81904 42.630024 
L 305.35165 42.681513 
L 308.884261 42.735151 
L 312.416871 42.790729 
L 315.949482 42.848051 
L 319.482092 42.906936 
L 323.014702 42.967218 
L 326.547313 43.028742 
L 330.079923 43.091365 
L 333.612533 43.154956 
L 337.145144 43.219391 
L 340.677754 43.284557 
L 344.210365 43.350351 
L 347.742975 43.416675 
L 351.275585 43.483441 
L 354.808196 43.550566 
L 358.340806 43.617974 
L 361.873416 43.685595 
L 365.406027 43.753364 
L 368.938637 43.821221 
L 372.471247 43.889112 
L 376.003858 43.956986 
L 379.536468 44.024796 
L 383.069079 44.092499 
L 386.601689 44.160057 
L 390.134299 44.227434 
L 393.66691 44.294596 
L 397.19952 44.361512 
" clip-path="url(#p5cf3dd1544)" style="fill: none; stroke-dasharray: 9.25,4; stroke-dashoffset: 0; stroke: #1e9c89; stroke-width: 2.5"/>
   </g>
   <g id="line2d_33">
    <path d="M 47.471094 68.319149 
L 51.003704 104.545944 
L 54.536314 131.032316 
L 58.068925 150.930566 
L 61.601535 176.323494 
L 65.134146 199.540129 
L 68.666756 218.621075 
L 72.199366 220.032293 
L 75.731977 206.007436 
L 79.264587 192.386601 
L 82.797197 179.429924 
L 86.329808 167.134427 
L 89.862418 155.495641 
L 93.395029 144.51811 
L 96.927639 134.220289 
L 100.460249 124.639369 
L 103.99286 115.831098 
L 107.52547 107.856284 
L 111.05808 100.752284 
L 114.590691 94.506042 
L 118.123301 89.051095 
L 121.655911 84.288546 
L 125.188522 80.112582 
L 128.721132 76.426714 
L 132.253743 73.149808 
L 135.786353 70.21618 
L 139.318963 67.573375 
L 142.851574 65.179519 
L 146.384184 63.000969 
L 149.916794 61.010424 
L 153.449405 59.185482 
L 156.982015 57.50755 
L 160.514625 55.961021 
L 164.047236 54.532662 
L 167.579846 53.211141 
L 171.112457 51.986667 
L 174.645067 50.850718 
L 178.177677 49.795815 
L 181.710288 48.815356 
L 185.242898 47.903475 
L 188.775508 47.054932 
L 192.308119 46.265025 
L 195.840729 45.529515 
L 199.373339 44.844561 
L 202.90595 44.206676 
L 206.43856 43.612677 
L 209.971171 43.059654 
L 213.503781 42.544936 
L 217.036391 42.066068 
L 220.569002 41.620784 
L 224.101612 41.20699 
L 227.634222 40.822748 
L 231.166833 40.466256 
L 234.699443 40.135844 
L 238.232054 39.829951 
L 241.764664 39.547126 
L 245.297274 39.286012 
L 248.829885 39.045339 
L 252.362495 38.823919 
L 255.895105 38.620639 
L 259.427716 38.434452 
L 262.960326 38.264379 
L 266.492936 38.109495 
L 270.025547 37.968933 
L 273.558157 37.841875 
L 277.090768 37.727552 
L 280.623378 37.625237 
L 284.155988 37.534246 
L 287.688599 37.453932 
L 291.221209 37.383685 
L 294.753819 37.32293 
L 298.28643 37.271121 
L 301.81904 37.227744 
L 305.35165 37.192312 
L 308.884261 37.164366 
L 312.416871 37.143468 
L 315.949482 37.129208 
L 319.482092 37.121196 
L 323.014702 37.119062 
L 326.547313 37.122458 
L 330.079923 37.131052 
L 333.612533 37.144532 
L 337.145144 37.1626 
L 340.677754 37.184978 
L 344.210365 37.211398 
L 347.742975 37.241608 
L 351.275585 37.275372 
L 354.808196 37.312463 
L 358.340806 37.352667 
L 361.873416 37.395781 
L 365.406027 37.441616 
L 368.938637 37.489989 
L 372.471247 37.540728 
L 376.003858 37.593671 
L 379.536468 37.648665 
L 383.069079 37.705563 
L 386.601689 37.764229 
L 390.134299 37.824531 
L 393.66691 37.886347 
L 397.19952 37.94956 
" clip-path="url(#p5cf3dd1544)" style="fill: none; stroke-dasharray: 16,4,2.5,4; stroke-dashoffset: 0; stroke: #9bd93c; stroke-width: 2.5"/>
   </g>
   <g id="patch_3">
    <path d="M 47.471094 252.198426 
L 47.471094 26.877187 
" style="fill: none; stroke: #000000; stroke-linejoin: miter; stroke-linecap: square"/>
   </g>
   <g id="patch_4">
    <path d="M 397.19952 252.198426 
L 397.19952 26.877187 
" style="fill: none; stroke: #000000; stroke-linejoin: miter; stroke-linecap: square"/>
   </g>
   <g id="patch_5">
    <path d="M 47.471094 252.198426 
L 397.19952 252.198426 
" style="fill: none; stroke: #000000; stroke-linejoin: miter; stroke-linecap: square"/>
   </g>
   <g id="patch_6">
    <path d="M 47.471094 26.877187 
L 397.19952 26.877187 
" style="fill: none; stroke: #000000; stroke-linejoin: miter; stroke-linecap: square"/>
   </g>
   <g id="text_18">
    <text style="font-size: 18px; font-family: 'DejaVu Serif', 'Bitstream Vera Serif', 'Computer Modern Roman', 'New Century Schoolbook', 'Century Schoolbook L', 'Utopia', 'ITC Bookman', 'Bookman', 'Nimbus Roman No9 L', 'Times New Roman', 'Times', 'Palatino', 'Charter', serif; text-anchor: middle" x="222.335307" y="20.877187" transform="rotate(-0 222.335307 20.877187)">N2O, Molecular weight at 20 bar</text>
   </g>
   <g id="legend_1">
    <g id="line2d_34">
     <path d="M 305.23702 189.332957 
L 319.23702 189.332957 
L 333.23702 189.332957 
" style="fill: none; stroke: #463480; stroke-width: 2.5; stroke-linecap: square"/>
    </g>
    <g id="text_19">
     <text style="font-size: 14px; font-family: 'DejaVu Serif', 'Bitstream Vera Serif', 'Computer Modern Roman', 'New Century Schoolbook', 'Century Schoolbook L', 'Utopia', 'ITC Bookman', 'Bookman', 'Nimbus Roman No9 L', 'Times New Roman', 'Times', 'Palatino', 'Charter', serif; text-anchor: start" x="344.43702" y="194.232957" transform="rotate(-0 344.43702 194.232957)">ABS</text>
    </g>
    <g id="line2d_35">
     <path d="M 305.23702 210.334051 
L 319.23702 210.334051 
L 333.23702 210.334051 
" style="fill: none; stroke-dasharray: 9.25,4; stroke-dashoffset: 0; stroke: #1e9c89; stroke-width: 2.5"/>
    </g>
    <g id="text_20">
     <text style="font-size: 14px; font-family: 'DejaVu Serif', 'Bitstream Vera Serif', 'Computer Modern Roman', 'New Century Schoolbook', 'Century Schoolbook L', 'Utopia', 'ITC Bookman', 'Bookman', 'Nimbus Roman No9 L', 'Times New Roman', 'Times', 'Palatino', 'Charter', serif; text-anchor: start" x="344.43702" y="215.234051" transform="rotate(-0 344.43702 215.234051)">PETG</text>
    </g>
    <g id="line2d_36">
     <path d="M 305.23702 231.335145 
L 319.23702 231.335145 
L 333.23702 231.335145 
" style="fill: none; stroke-dasharray: 16,4,2.5,4; stroke-dashoffset: 0; stroke: #9bd93c; stroke-width: 2.5"/>
    </g>
    <g id="text_21">
     <text style="font-size: 14px; font-family: 'DejaVu Serif', 'Bitstream Vera Serif', 'Computer Modern Roman', 'New Century Schoolbook', 'Century Schoolbook L', 'Utopia', 'ITC Bookman', 'Bookman', 'Nimbus Roman No9 L', 'Times New Roman', 'Times', 'Palatino', 'Charter', serif; text-anchor: start" x="344.43702" y="236.235145" transform="rotate(-0 344.43702 236.235145)">PLA</text>
    </g>
   </g>
  </g>
 </g>
 <defs>
  <clipPath id="p5cf3dd1544">
   <rect x="47.471094" y="26.877187" width="349.728426" height="225.321239"/>
  </clipPath>
 </defs>
</svg>
