<?xml version="1.0" encoding="utf-8" standalone="no"?>
<!DOCTYPE svg PUBLIC "-//W3C//DTD SVG 1.1//EN"
  "http://www.w3.org/Graphics/SVG/1.1/DTD/svg11.dtd">
<svg xmlns:xlink="http://www.w3.org/1999/xlink" width="404.39952pt" height="296.39952pt" viewBox="0 0 404.39952 296.39952" xmlns="http://www.w3.org/2000/svg" version="1.1">
 <metadata>
  <rdf:RDF xmlns:dc="http://purl.org/dc/elements/1.1/" xmlns:cc="http://creativecommons.org/ns#" xmlns:rdf="http://www.w3.org/1999/02/22-rdf-syntax-ns#">
   <cc:Work>
    <dc:type rdf:resource="http://purl.org/dc/dcmitype/StillImage"/>
    <dc:date>2026-10-02T20:47:13.036137</dc:date>
    <dc:format>image/svg+xml</dc:format>
    <dc:creator>
     <cc:Agent>
      <dc:title>Matplotlib v3.11.1, https://matplotlib.org/</dc:title>
     </cc:Agent>
    </dc:creator>
   </cc:Work>
  </rdf:RDF>
 </metadata>
 <defs>
  <style type="text/css">*{stroke-linejoin: round; stroke-linecap: butt}</style>
 </defs>
 <g id="figure_1">
  <g id="patch_1">
   <path d="M 0 296.39952 
L 404.39952 296.39952 
L 404.39952 0 
L 0 0 
z
" style="fill: #ffffff"/>
  </g>
  <g id="axes_1">
   <g id="patch_2">
    <path d="M 58.91875 252.198426 
L 397.19952 252.198426 
L 397.19952 26.877187 
L 58.91875 26.877187 
z
" style="fill: #ffffff"/>
   </g>
   <g id="matplotlib.axis_1">
    <g id="xtick_1">
     <g id="line2d_1">
      <path d="M 83.081662 252.198426 
L 83.081662 26.877187 
" clip-path="url(#p052e6ada8e)" style="fill: none; stroke-dasharray: 0.5,0.825; stroke-dashoffset: 0; stroke: #b0b0b0; stroke-opacity: 0.6; stroke-width: 0.5"/>
     </g>
     <g id="line2d_2">
      <defs>
       <path id="mb1021555c8" d="M 0 0 
L 0 3.5 
" style="stroke: #000000; stroke-width: 0.8"/>
      </defs>
      <g>
       <use xlink:href="#mb1021555c8" x="83.081662" y="252.198426" style="stroke: #000000; stroke-width: 0.8"/>
      </g>
     </g>
     <g id="text_1">
      <text style="font-size: 12px; font-family: 'DejaVu Serif', 'Bitstream Vera Serif', 'Computer Modern Roman', 'New Century Schoolbook', 'Century Schoolbook L', 'Utopia', 'ITC Bookman', 'Bookman', 'Nimbus Roman No9 L', 'Times New Roman', 'Times', 'Palatino', 'Charter', serif; text-anchor: middle" x="83.081662" y="268.315614" transform="rotate(-0 83.081662 268.315614)">2</text>
     </g>
    </g>
    <g id="xtick_2">
     <g id="line2d_3">
      <path d="M 131.407486 252.198426 
L 131.407486 26.877187 
" clip-path="url(#p052e6ada8e)" style="fill: none; stroke-dasharray: 0.5,0.825; stroke-dashoffset: 0; stroke: #b0b0b0; stroke-opacity: 0.6; stroke-width: 0.5"/>
     </g>
     <g id="line2d_4">
      <g>
       <use xlink:href="#mb1021555c8" x="131.407486" y="252.198426" style="stroke: #000000; stroke-width: 0.8"/>
      </g>
     </g>
     <g id="text_2">
      <text style="font-size: 12px; font-family: 'DejaVu Serif', 'Bitstream Vera Serif', 'Computer Modern Roman', 'New Century Schoolbook', 'Century Schoolbook L', 'Utopia', 'ITC Bookman', 'Bookman', 'Nimbus Roman No9 L', 'Times New Roman', 'Times', 'Palatino', 'Charter', serif; text-anchor: middle" x="131.407486" y="268.315614" transform="rotate(-0 131.407486 268.315614)">4</text>
     </g>
    </g>
    <g id="xtick_3">
     <g id="line2d_5">
      <path d="M 179.733311 252.198426 
L 179.733311 26.877187 
" clip-path="url(#p052e6ada8e)" style="fill: none; stroke-dasharray: 0.5,0.825; stroke-dashoffset: 0; stroke: #b0b0b0; stroke-opacity: 0.6; stroke-width: 0.5"/>
     </g>
     <g id="line2d_6">
      <g>
       <use xlink:href="#mb1021555c8" x="179.733311" y="252.198426" style="stroke: #000000; stroke-width: 0.8"/>
      </g>
     </g>
     <g id="text_3">
      <text style="font-size: 12px; font-family: 'DejaVu Serif', 'Bitstream Vera Serif', 'Computer Modern Roman', 'New Century Schoolbook', 'Century Schoolbook L', 'Utopia', 'ITC Bookman', 'Bookman', 'Nimbus Roman No9 L', 'Times New Roman', 'Times', 'Palatino', 'Charter', serif; text-anchor: middle" x="179.733311" y="268.315614" transform="rotate(-0 179.733311 268.315614)">6</text>
     </g>
    </g>
    <g id="xtick_4">
     <g id="line2d_7">
      <path d="M 228.059135 252.198426 
L 228.059135 26.877187 
" clip-path="url(#p052e6ada8e)" style="fill: none; stroke-dasharray: 0.5,0.825; stroke-dashoffset: 0; stroke: #b0b0b0; stroke-opacity: 0.6; stroke-width: 0.5"/>
     </g>
     <g id="line2d_8">
      <g>
       <use xlink:href="#mb1021555c8" x="228.059135" y="252.198426" style="stroke: #000000; stroke-width: 0.8"/>
      </g>
     </g>
     <g id="text_4">
      <text style="font-size: 12px; font-family: 'DejaVu Serif', 'Bitstream Vera Serif', 'Computer Modern Roman', 'New Century Schoolbook', 'Century Schoolbook L', 'Utopia', 'ITC Bookman', 'Bookman', 'Nimbus Roman No9 L', 'Times New Roman', 'Times', 'Palatino', 'Charter', serif; text-anchor: middle" x="228.059135" y="268.315614" transform="rotate(-0 228.059135 268.315614)">8</text>
     </g>
    </g>
    <g id="xtick_5">
     <g id="line2d_9">
      <path d="M 276.384959 252.198426 
L 276.384959 26.877187 
" clip-path="url(#p052e6ada8e)" style="fill: none; stroke-dasharray: 0.5,0.825; stroke-dashoffset: 0; stroke: #b0b0b0; stroke-opacity: 0.6; stroke-width: 0.5"/>
     </g>
     <g id="line2d_10">
      <g>
       <use xlink:href="#mb1021555c8" x="276.384959" y="252.198426" style="stroke: #000000; stroke-width: 0.8"/>
      </g>
     </g>
     <g id="text_5">
      <text style="font-size: 12px; font-family: 'DejaVu Serif', 'Bitstream Vera Serif', 'Computer Modern Roman', 'New Century Schoolbook', 'Century Schoolbook L', 'Utopia', 'ITC Bookman', 'Bookman', 'Nimbus Roman No9 L', 'Times New Roman', 'Times', 'Palatino', 'Charter', serif; text-anchor: middle" x="276.384959" y="268.315614" transform="rotate(-0 276.384959 268.315614)">10</text>
     </g>
    </g>
    <g id="xtick_6">
     <g id="line2d_11">
      <path d="M 324.710784 252.198426 
L 324.710784 26.877187 
" clip-path="url(#p052e6ada8e)" style="fill: none; stroke-dasharray: 0.5,0.825; stroke-dashoffset: 0; stroke: #b0b0b0; stroke-opacity: 0.6; stroke-width: 0.5"/>
     </g>
     <g id="line2d_12">
      <g>
       <use xlink:href="#mb1021555c8" x="324.710784" y="252.198426" style="stroke: #000000; stroke-width: 0.8"/>
      </g>
     </g>
     <g id="text_6">
      <text style="font-size: 12px; font-family: 'DejaVu Serif', 'Bitstream Vera Serif', 'Computer Modern Roman', 'New Century Schoolbook', 'Century Schoolbook L', 'Utopia', 'ITC Bookman', 'Bookman', 'Nimbus Roman No9 L', 'Times New Roman', 'Times', 'Palatino', 'Charter', serif; text-anchor: middle" x="324.710784" y="268.315614" transform="rotate(-0 324.710784 268.315614)">12</text>
     </g>
    </g>
    <g id="xtick_7">
     <g id="line2d_13">
      <path d="M 373.036608 252.198426 
L 373.036608 26.877187 
" clip-path="url(#p052e6ada8e)" style="fill: none; stroke-dasharray: 0.5,0.825; stroke-dashoffset: 0; stroke: #b0b0b0; stroke-opacity: 0.6; stroke-width: 0.5"/>
     </g>
     <g id="line2d_14">
      <g>
       <use xlink:href="#mb1021555c8" x="373.036608" y="252.198426" style="stroke: #000000; stroke-width: 0.8"/>
      </g>
     </g>
     <g id="text_7">
      <text style="font-size: 12px; font-family: 'DejaVu Serif', 'Bitstream Vera Serif', 'Computer Modern Roman', 'New Century Schoolbook', 'Century Schoolbook L', 'Utopia', 'ITC Bookman', 'Bookman', 'Nimbus Roman No9 L', 'Times New Roman', 'Times', 'Palatino', 'Charter', serif; text-anchor: middle" x="373.036608" y="268.315614" transform="rotate(-0 373.036608 268.315614)">14</text>
     </g>
    </g>
    <g id="text_8">
     <text style="font-size: 14px; font-family: 'DejaVu Serif', 'Bitstream Vera Serif', 'Computer Modern Roman', 'New Century Schoolbook', 'Century Schoolbook L', 'Utopia', 'ITC Bookman', 'Bookman', 'Nimbus Roman No9 L', 'Times New Roman', 'Times', 'Palatino', 'Charter', serif; text-anchor: middle" x="228.059135" y="285.836239" transform="rotate(-0 228.059135 285.836239)">O/F ratio (-)</text>
    </g>
   </g>
   <g id="matplotlib.axis_2">
    <g id="ytick_1">
     <g id="line2d_15">
      <path d="M 58.91875 219.861393 
L 397.19952 219.861393 
" clip-path="url(#p052e6ada8e)" style="fill: none; stroke-dasharray: 0.5,0.825; stroke-dashoffset: 0; stroke: #b0b0b0; stroke-opacity: 0.6; stroke-width: 0.5"/>
     </g>
     <g id="line2d_16">
      <defs>
       <path id="mb5fa3fcdf2" d="M 0 0 
L -3.5 0 
" style="stroke: #000000; stroke-width: 0.8"/>
      </defs>
      <g>
       <use xlink:href="#mb5fa3fcdf2" x="58.91875" y="219.861393" style="stroke: #000000; stroke-width: 0.8"/>
      </g>
     </g>
     <g id="text_9">
      <text style="font-size: 12px; font-family: 'DejaVu Serif', 'Bitstream Vera Serif', 'Computer Modern Roman', 'New Century Schoolbook', 'Century Schoolbook L', 'Utopia', 'ITC Bookman', 'Bookman', 'Nimbus Roman No9 L', 'Times New Roman', 'Times', 'Palatino', 'Charter', serif; text-anchor: end" x="51.91875" y="224.419987" transform="rotate(-0 51.91875 224.419987)">1.22</text>
     </g>
    </g>
    <g id="ytick_2">
     <g id="line2d_17">
      <path d="M 58.91875 179.963073 
L 397.19952 179.963073 
" clip-path="url(#p052e6ada8e)" style="fill: none; stroke-dasharray: 0.5,0.825; stroke-dashoffset: 0; stroke: #b0b0b0; stroke-opacity: 0.6; stroke-width: 0.5"/>
     </g>
     <g id="line2d_18">
      <g>
       <use xlink:href="#mb5fa3fcdf2" x="58.91875" y="179.963073" style="stroke: #000000; stroke-width: 0.8"/>
      </g>
     </g>
     <g id="text_10">
      <text style="font-size: 12px; font-family: 'DejaVu Serif', 'Bitstream Vera Serif', 'Computer Modern Roman', 'New Century Schoolbook', 'Century Schoolbook L', 'Utopia', 'ITC Bookman', 'Bookman', 'Nimbus Roman No9 L', 'Times New Roman', 'Times', 'Palatino', 'Charter', serif; text-anchor: end" x="51.91875" y="184.521667" transform="rotate(-0 51.91875 184.521667)">1.24</text>
     </g>
    </g>
    <g id="ytick_3">
     <g id="line2d_19">
      <path d="M 58.91875 140.064753 
L 397.19952 140.064753 
" clip-path="url(#p052e6ada8e)" style="fill: none; stroke-dasharray: 0.5,0.825; stroke-dashoffset: 0; stroke: #b0b0b0; stroke-opacity: 0.6; stroke-width: 0.5"/>
     </g>
     <g id="line2d_20">
      <g>
       <use xlink:href="#mb5fa3fcdf2" x="58.91875" y="140.064753" style="stroke: #000000; stroke-width: 0.8"/>
      </g>
     </g>
     <g id="text_11">
      <text style="font-size: 12px; font-family: 'DejaVu Serif', 'Bitstream Vera Serif', 'Computer Modern Roman', 'New Century Schoolbook', 'Century Schoolbook L', 'Utopia', 'ITC Bookman', 'Bookman', 'Nimbus Roman No9 L', 'Times New Roman', 'Times', 'Palatino', 'Charter', serif; text-anchor: end" x="51.91875" y="144.623346" transform="rotate(-0 51.91875 144.623346)">1.26</text>
     </g>
    </g>
    <g id="ytick_4">
     <g id="line2d_21">
      <path d="M 58.91875 100.166432 
L 397.19952 100.166432 
" clip-path="url(#p052e6ada8e)" style="fill: none; stroke-dasharray: 0.5,0.825; stroke-dashoffset: 0; stroke: #b0b0b0; stroke-opacity: 0.6; stroke-width: 0.5"/>
     </g>
     <g id="line2d_22">
      <g>
       <use xlink:href="#mb5fa3fcdf2" x="58.91875" y="100.166432" style="stroke: #000000; stroke-width: 0.8"/>
      </g>
     </g>
     <g id="text_12">
      <text style="font-size: 12px; font-family: 'DejaVu Serif', 'Bitstream Vera Serif', 'Computer Modern Roman', 'New Century Schoolbook', 'Century Schoolbook L', 'Utopia', 'ITC Bookman', 'Bookman', 'Nimbus Roman No9 L', 'Times New Roman', 'Times', 'Palatino', 'Charter', serif; text-anchor: end" x="51.91875" y="104.725026" transform="rotate(-0 51.91875 104.725026)">1.28</text>
     </g>
    </g>
    <g id="ytick_5">
     <g id="line2d_23">
      <path d="M 58.91875 60.268112 
L 397.19952 60.268112 
" clip-path="url(#p052e6ada8e)" style="fill: none; stroke-dasharray: 0.5,0.825; stroke-dashoffset: 0; stroke: #b0b0b0; stroke-opacity: 0.6; stroke-width: 0.5"/>
     </g>
     <g id="line2d_24">
      <g>
       <use xlink:href="#mb5fa3fcdf2" x="58.91875" y="60.268112" style="stroke: #000000; stroke-width: 0.8"/>
      </g>
     </g>
     <g id="text_13">
      <text style="font-size: 12px; font-family: 'DejaVu Serif', 'Bitstream Vera Serif', 'Computer Modern Roman', 'New Century Schoolbook', 'Century Schoolbook L', 'Utopia', 'ITC Bookman', 'Bookman', 'Nimbus Roman No9 L', 'Times New Roman', 'Times', 'Palatino', 'Charter', serif; text-anchor: end" x="51.91875" y="64.826706" transform="rotate(-0 51.91875 64.826706)">1.30</text>
     </g>
    </g>
    <g id="text_14">
     <text style="font-size: 14px; font-family: 'DejaVu Serif', 'Bitstream Vera Serif', 'Computer Modern Roman', 'New Century Schoolbook', 'Century Schoolbook L', 'Utopia', 'ITC Bookman', 'Bookman', 'Nimbus Roman No9 L', 'Times New Roman', 'Times', 'Palatino', 'Charter', serif; text-anchor: middle" x="17.836719" y="139.537807" transform="rotate(-90 17.836719 139.537807)">Isentropic exponeny</text>
    </g>
   </g>
   <g id="line2d_25">
    <path d="M 58.91875 241.956552 
L 62.335727 240.485479 
L 65.752705 237.81121 
L 69.169682 224.545541 
L 72.58666 204.608602 
L 76.003637 182.809948 
L 79.420615 161.926253 
L 82.837592 143.896925 
L 86.25457 129.981518 
L 89.671547 119.885876 
L 93.088525 111.979049 
L 96.505502 104.88193 
L 99.92248 97.963609 
L 103.339457 91.012683 
L 106.756435 83.981639 
L 110.173412 76.904396 
L 113.59039 77.408961 
L 117.007367 85.448402 
L 120.424345 92.745791 
L 123.841322 99.356707 
L 127.258299 105.343814 
L 130.675277 110.756153 
L 134.092254 115.632022 
L 137.509232 120.003941 
L 140.926209 123.903509 
L 144.343187 127.36475 
L 147.760164 130.425199 
L 151.177142 133.12496 
L 154.594119 135.504684 
L 158.011097 137.603486 
L 161.428074 139.457425 
L 164.845052 141.098682 
L 168.262029 142.555341 
L 171.679007 143.851553 
L 175.095984 145.007917 
L 178.512962 146.041923 
L 181.929939 146.968415 
L 185.346917 147.800002 
L 188.763894 148.547425 
L 192.180872 149.219867 
L 195.597849 149.825212 
L 199.014826 150.37026 
L 202.431804 150.860903 
L 205.848781 151.302271 
L 209.265759 151.698851 
L 212.682736 152.054586 
L 216.099714 152.372954 
L 219.516691 152.657039 
L 222.933669 152.909584 
L 226.350646 153.133038 
L 229.767624 153.3296 
L 233.184601 153.501243 
L 236.601579 153.649752 
L 240.018556 153.776739 
L 243.435534 153.883672 
L 246.852511 153.971884 
L 250.269489 154.042593 
L 253.686466 154.096915 
L 257.103444 154.135873 
L 260.520421 154.160406 
L 263.937398 154.171382 
L 267.354376 154.169601 
L 270.771353 154.155804 
L 274.188331 154.130677 
L 277.605308 154.094858 
L 281.022286 154.048939 
L 284.439263 153.993473 
L 287.856241 153.928976 
L 291.273218 153.85593 
L 294.690196 153.774785 
L 298.107173 153.685965 
L 301.524151 153.589866 
L 304.941128 153.486862 
L 308.358106 153.377302 
L 311.775083 153.261518 
L 315.192061 153.139822 
L 318.609038 153.012506 
L 322.026016 152.879851 
L 325.442993 152.742118 
L 328.859971 152.599557 
L 332.276948 152.452405 
L 335.693925 152.300885 
L 339.110903 152.14521 
L 342.52788 151.985583 
L 345.944858 151.822197 
L 349.361835 151.655233 
L 352.778813 151.484868 
L 356.19579 151.311267 
L 359.612768 151.13459 
L 363.029745 150.954988 
L 366.446723 150.772606 
L 369.8637 150.587582 
L 373.280678 150.400051 
L 376.697655 150.210137 
L 380.114633 150.017964 
L 383.53161 149.823647 
L 386.948588 149.627299 
L 390.365565 149.429026 
L 393.782543 149.228932 
L 397.19952 149.027115 
" clip-path="url(#p052e6ada8e)" style="fill: none; stroke: #463480; stroke-width: 2.5; stroke-linecap: square"/>
   </g>
   <g id="line2d_26">
    <path d="M 58.91875 147.787393 
L 62.335727 148.71511 
L 65.752705 118.238186 
L 69.169682 84.205207 
L 72.58666 54.374298 
L 76.003637 45.626705 
L 79.420615 70.723659 
L 82.837592 94.094694 
L 86.25457 113.178438 
L 89.671547 129.019016 
L 93.088525 142.357898 
L 96.505502 153.699972 
L 99.92248 163.377369 
L 103.339457 171.583262 
L 106.756435 178.393881 
L 110.173412 183.812418 
L 113.59039 187.863342 
L 117.007367 190.681996 
L 120.424345 192.502313 
L 123.841322 193.573951 
L 127.258299 194.104342 
L 130.675277 194.246471 
L 134.092254 194.108122 
L 137.509232 193.764588 
L 140.926209 193.268925 
L 144.343187 192.659108 
L 147.760164 191.962803 
L 151.177142 191.200524 
L 154.594119 190.387736 
L 158.011097 189.536272 
L 161.428074 188.655315 
L 164.845052 187.752074 
L 168.262029 186.832273 
L 171.679007 185.900502 
L 175.095984 184.960469 
L 178.512962 184.015201 
L 181.929939 183.067179 
L 185.346917 182.11845 
L 188.763894 181.170716 
L 192.180872 180.225394 
L 195.597849 179.283672 
L 199.014826 178.346546 
L 202.431804 177.414856 
L 205.848781 176.48931 
L 209.265759 175.570507 
L 212.682736 174.658952 
L 216.099714 173.75507 
L 219.516691 172.859221 
L 222.933669 171.971706 
L 226.350646 171.092776 
L 229.767624 170.222642 
L 233.184601 169.361473 
L 236.601579 168.509409 
L 240.018556 167.66656 
L 243.435534 166.833011 
L 246.852511 166.008825 
L 250.269489 165.194045 
L 253.686466 164.388697 
L 257.103444 163.592792 
L 260.520421 162.806326 
L 263.937398 162.029284 
L 267.354376 161.26164 
L 270.771353 160.503356 
L 274.188331 159.754388 
L 277.605308 159.014682 
L 281.022286 158.284179 
L 284.439263 157.562813 
L 287.856241 156.85051 
L 291.273218 156.147196 
L 294.690196 155.452787 
L 298.107173 154.7672 
L 301.524151 154.090345 
L 304.941128 153.422131 
L 308.358106 152.762464 
L 311.775083 152.111246 
L 315.192061 151.46838 
L 318.609038 150.833765 
L 322.026016 150.2073 
L 325.442993 149.588882 
L 328.859971 148.978408 
L 332.276948 148.375773 
L 335.693925 147.780874 
L 339.110903 147.193604 
L 342.52788 146.61386 
L 345.944858 146.041536 
L 349.361835 145.476527 
L 352.778813 144.91873 
L 356.19579 144.368039 
L 359.612768 143.824351 
L 363.029745 143.287564 
L 366.446723 142.757574 
L 369.8637 142.234281 
L 373.280678 141.717585 
L 376.697655 141.207384 
L 380.114633 140.703581 
L 383.53161 140.206078 
L 386.948588 139.714778 
L 390.365565 139.229585 
L 393.782543 138.750406 
L 397.19952 138.277147 
" clip-path="url(#p052e6ada8e)" style="fill: none; stroke-dasharray: 9.25,4; stroke-dashoffset: 0; stroke: #1e9c89; stroke-width: 2.5"/>
   </g>
   <g id="line2d_27">
    <path d="M 58.91875 103.968773 
L 62.335727 117.129261 
L 65.752705 128.098092 
L 69.169682 120.489994 
L 72.58666 94.423139 
L 76.003637 64.991464 
L 79.420615 37.119062 
L 82.837592 38.495162 
L 86.25457 61.021937 
L 89.671547 79.52433 
L 93.088525 95.057013 
L 96.505502 108.325345 
L 99.92248 119.785427 
L 103.339457 129.7387 
L 106.756435 138.377065 
L 110.173412 145.809164 
L 113.59039 152.089456 
L 117.007367 157.261831 
L 120.424345 161.404716 
L 123.841322 164.646421 
L 127.258299 167.14362 
L 130.675277 169.049577 
L 134.092254 170.494848 
L 137.509232 171.582507 
L 140.926209 172.391076 
L 144.343187 172.979673 
L 147.760164 173.392853 
L 151.177142 173.66447 
L 154.594119 173.820535 
L 158.011097 173.881279 
L 161.428074 173.862635 
L 164.845052 173.777307 
L 168.262029 173.635533 
L 171.679007 173.44566 
L 175.095984 173.214554 
L 178.512962 172.947917 
L 181.929939 172.650524 
L 185.346917 172.326405 
L 188.763894 171.978984 
L 192.180872 171.61119 
L 195.597849 171.225546 
L 199.014826 170.824234 
L 202.431804 170.409154 
L 205.848781 169.981969 
L 209.265759 169.544138 
L 212.682736 169.096951 
L 216.099714 168.64155 
L 219.516691 168.17895 
L 222.933669 167.71006 
L 226.350646 167.235692 
L 229.767624 166.756578 
L 233.184601 166.273376 
L 236.601579 165.786684 
L 240.018556 165.297041 
L 243.435534 164.804939 
L 246.852511 164.310828 
L 250.269489 163.815115 
L 253.686466 163.318177 
L 257.103444 162.820358 
L 260.520421 162.321973 
L 263.937398 161.823315 
L 267.354376 161.324651 
L 270.771353 160.826231 
L 274.188331 160.328284 
L 277.605308 159.831023 
L 281.022286 159.334644 
L 284.439263 158.839331 
L 287.856241 158.345253 
L 291.273218 157.85257 
L 294.690196 157.361426 
L 298.107173 156.871959 
L 301.524151 156.384296 
L 304.941128 155.898554 
L 308.358106 155.414844 
L 311.775083 154.933268 
L 315.192061 154.453921 
L 318.609038 153.97689 
L 322.026016 153.502258 
L 325.442993 153.0301 
L 328.859971 152.560487 
L 332.276948 152.093483 
L 335.693925 151.629149 
L 339.110903 151.167539 
L 342.52788 150.708705 
L 345.944858 150.252693 
L 349.361835 149.799545 
L 352.778813 149.349301 
L 356.19579 148.901995 
L 359.612768 148.457659 
L 363.029745 148.016322 
L 366.446723 147.578008 
L 369.8637 147.142741 
L 373.280678 146.71054 
L 376.697655 146.281422 
L 380.114633 145.855401 
L 383.53161 145.432491 
L 386.948588 145.0127 
L 390.365565 144.596036 
L 393.782543 144.182506 
L 397.19952 143.772113 
" clip-path="url(#p052e6ada8e)" style="fill: none; stroke-dasharray: 16,4,2.5,4; stroke-dashoffset: 0; stroke: #9bd93c; stroke-width: 2.5"/>
   </g>
   <g id="patch_3">
    <path d="M 58.91875 252.198426 
L 58.91875 26.877187 
" style="fill: none; stroke: #000000; stroke-linejoin: miter; stroke-linecap: square"/>
   </g>
   <g id="patch_4">
    <path d="M 397.19952 252.198426 
L 397.19952 26.877187 
" style="fill: none; stroke: #000000; stroke-linejoin: miter; stroke-linecap: square"/>
   </g>
   <g id="patch_5">
    <path d="M 58.91875 252.198426 
L 397.19952 252.198426 
" style="fill: none; stroke: #000000; stroke-linejoin: miter; stroke-linecap: square"/>
   </g>
   <g id="patch_6">
    <path d="M 58.91875 26.877187 
L 397.19952 26.877187 
" style="fill: none; stroke: #000000; stroke-linejoin: miter; stroke-linecap: square"/>
   </g>
   <g id="text_15">
    <text style="font-size: 18px; font-family: 'DejaVu Serif', 'Bitstream Vera Serif', 'Computer Modern Roman', 'New Century Schoolbook', 'Century Schoolbook L', 'Utopia', 'ITC Bookman', 'Bookman', 'Nimbus Roman No9 L', 'Times New Roman', 'Times', 'Palatino', 'Charter', serif; text-anchor: middle" x="228.059135" y="20.877187" transform="rotate(-0 228.059135 20.877187)">N2O, Isentropic exponent at 10 bar</text>
   </g>
   <g id="legend_1">
    <g id="line2d_28">
     <path d="M 305.23702 45.215 
L 319.23702 45.215 
L 333.23702 45.215 
" style="fill: none; stroke: #463480; stroke-width: 2.5; stroke-linecap: square"/>
    </g>
    <g id="text_16">
     <text style="font-size: 14px; font-family: 'DejaVu Serif', 'Bitstream Vera Serif', 'Computer Modern Roman', 'New Century Schoolbook', 'Century Schoolbook L', 'Utopia', 'ITC Bookman', 'Bookman', 'Nimbus Roman No9 L', 'Times New Roman', 'Times', 'Palatino', 'Charter', serif; text-anchor: start" x="344.43702" y="50.115" transform="rotate(-0 344.43702 50.115)">ABS</text>
    </g>
    <g id="line2d_29">
     <path d="M 305.23702 66.216094 
L 319.23702 66.216094 
L 333.23702 66.216094 
" style="fill: none; stroke-dasharray: 9.25,4; stroke-dashoffset: 0; stroke: #1e9c89; stroke-width: 2.5"/>
    </g>
    <g id="text_17">
     <text style="font-size: 14px; font-family: 'DejaVu Serif', 'Bitstream Vera Serif', 'Computer Modern Roman', 'New Century Schoolbook', 'Century Schoolbook L', 'Utopia', 'ITC Bookman', 'Bookman', 'Nimbus Roman No9 L', 'Times New Roman', 'Times', 'Palatino', 'Charter', serif; text-anchor: start" x="344.43702" y="71.116094" transform="rotate(-0 344.43702 71.116094)">PETG</text>
    </g>
    <g id="line2d_30">
     <path d="M 305.23702 87.217187 
L 319.23702 87.217187 
L 333.23702 87.217187 
" style="fill: none; stroke-dasharray: 16,4,2.5,4; stroke-dashoffset: 0; stroke: #9bd93c; stroke-width: 2.5"/>
    </g>
    <g id="text_18">
     <text style="font-size: 14px; font-family: 'DejaVu Serif', 'Bitstream Vera Serif', 'Computer Modern Roman', 'New Century Schoolbook', 'Century Schoolbook L', 'Utopia', 'ITC Bookman', 'Bookman', 'Nimbus Roman No9 L', 'Times New Roman', 'Times', 'Palatino', 'Charter', serif; text-anchor: start" x="344.43702" y="92.117187" transform="rotate(-0 344.43702 92.117187)">PLA</text>
    </g>
   </g>
  </g>
 </g>
 <defs>
  <clipPath id="p052e6ada8e">
   <rect x="58.91875" y="26.877187" width="338.28077" height="225.321239"/>
  </clipPath>
 </defs>
</svg>
