<?xml version="1.0" encoding="utf-8" standalone="no"?>
<!DOCTYPE svg PUBLIC "-//W3C//DTD SVG 1.1//EN"
  "http://www.w3.org/Graphics/SVG/1.1/DTD/svg11.dtd">
<svg xmlns:xlink="http://www.w3.org/1999/xlink" width="404.39952pt" height="296.39952pt" viewBox="0 0 404.39952 296.39952" xmlns="http://www.w3.org/2000/svg" version="1.1">
 <metadata>
  <rdf:RDF xmlns:dc="http://purl.org/dc/elements/1.1/" xmlns:cc="http://creativecommons.org/ns#" xmlns:rdf="http://www.w3.org/1999/02/22-rdf-syntax-ns#">
   <cc:Work>
    <dc:type rdf:resource="http://purl.org/dc/dcmitype/StillImage"/>
    <dc:date>2026-10-02T20:47:50.517404</dc:date>
    <dc:format>image/svg+xml</dc:format>
    <dc:creator>
     <cc:Agent>
      <dc:title>Matplotlib v3.11.1, https://matplotlib.org/</dc:title>
     </cc:Agent>
    </dc:creator>
   </cc:Work>
  </rdf:RDF>
 </metadata>
 <defs>
  <style type="text/css">*{stroke-linejoin: round; stroke-linecap: butt}</style>
 </defs>
 <g id="figure_1">
  <g id="patch_1">
   <path d="M 0 296.39952 
L 404.39952 296.39952 
L 404.39952 0 
L 0 0 
z
" style="fill: #ffffff"/>
  </g>
  <g id="axes_1">
   <g id="patch_2">
    <path d="M 55.805 252.198426 
L 389.56452 252.198426 
L 389.56452 26.877187 
L 55.805 26.877187 
z
" style="fill: #ffffff"/>
   </g>
   <g id="matplotlib.axis_1">
    <g id="xtick_1">
     <g id="line2d_1">
      <path d="M 55.805 252.198426 
L 55.805 26.877187 
" clip-path="url(#pcfdf1c6017)" style="fill: none; stroke-dasharray: 0.5,0.825; stroke-dashoffset: 0; stroke: #b0b0b0; stroke-opacity: 0.6; stroke-width: 0.5"/>
     </g>
     <g id="line2d_2">
      <defs>
       <path id="m7b13cbb11e" d="M 0 0 
L 0 3.5 
" style="stroke: #000000; stroke-width: 0.8"/>
      </defs>
      <g>
       <use xlink:href="#m7b13cbb11e" x="55.805" y="252.198426" style="stroke: #000000; stroke-width: 0.8"/>
      </g>
     </g>
     <g id="text_1">
      <text style="font-size: 12px; font-family: 'DejaVu Serif', 'Bitstream Vera Serif', 'Computer Modern Roman', 'New Century Schoolbook', 'Century Schoolbook L', 'Utopia', 'ITC Bookman', 'Bookman', 'Nimbus Roman No9 L', 'Times New Roman', 'Times', 'Palatino', 'Charter', serif; text-anchor: middle" x="55.805" y="268.315614" transform="rotate(-0 55.805 268.315614)">1</text>
     </g>
    </g>
    <g id="xtick_2">
     <g id="line2d_3">
      <path d="M 92.889391 252.198426 
L 92.889391 26.877187 
" clip-path="url(#pcfdf1c6017)" style="fill: none; stroke-dasharray: 0.5,0.825; stroke-dashoffset: 0; stroke: #b0b0b0; stroke-opacity: 0.6; stroke-width: 0.5"/>
     </g>
     <g id="line2d_4">
      <g>
       <use xlink:href="#m7b13cbb11e" x="92.889391" y="252.198426" style="stroke: #000000; stroke-width: 0.8"/>
      </g>
     </g>
     <g id="text_2">
      <text style="font-size: 12px; font-family: 'DejaVu Serif', 'Bitstream Vera Serif', 'Computer Modern Roman', 'New Century Schoolbook', 'Century Schoolbook L', 'Utopia', 'ITC Bookman', 'Bookman', 'Nimbus Roman No9 L', 'Times New Roman', 'Times', 'Palatino', 'Charter', serif; text-anchor: middle" x="92.889391" y="268.315614" transform="rotate(-0 92.889391 268.315614)">2</text>
     </g>
    </g>
    <g id="xtick_3">
     <g id="line2d_5">
      <path d="M 129.973782 252.198426 
L 129.973782 26.877187 
" clip-path="url(#pcfdf1c6017)" style="fill: none; stroke-dasharray: 0.5,0.825; stroke-dashoffset: 0; stroke: #b0b0b0; stroke-opacity: 0.6; stroke-width: 0.5"/>
     </g>
     <g id="line2d_6">
      <g>
       <use xlink:href="#m7b13cbb11e" x="129.973782" y="252.198426" style="stroke: #000000; stroke-width: 0.8"/>
      </g>
     </g>
     <g id="text_3">
      <text style="font-size: 12px; font-family: 'DejaVu Serif', 'Bitstream Vera Serif', 'Computer Modern Roman', 'New Century Schoolbook', 'Century Schoolbook L', 'Utopia', 'ITC Bookman', 'Bookman', 'Nimbus Roman No9 L', 'Times New Roman', 'Times', 'Palatino', 'Charter', serif; text-anchor: middle" x="129.973782" y="268.315614" transform="rotate(-0 129.973782 268.315614)">3</text>
     </g>
    </g>
    <g id="xtick_4">
     <g id="line2d_7">
      <path d="M 167.058173 252.198426 
L 167.058173 26.877187 
" clip-path="url(#pcfdf1c6017)" style="fill: none; stroke-dasharray: 0.5,0.825; stroke-dashoffset: 0; stroke: #b0b0b0; stroke-opacity: 0.6; stroke-width: 0.5"/>
     </g>
     <g id="line2d_8">
      <g>
       <use xlink:href="#m7b13cbb11e" x="167.058173" y="252.198426" style="stroke: #000000; stroke-width: 0.8"/>
      </g>
     </g>
     <g id="text_4">
      <text style="font-size: 12px; font-family: 'DejaVu Serif', 'Bitstream Vera Serif', 'Computer Modern Roman', 'New Century Schoolbook', 'Century Schoolbook L', 'Utopia', 'ITC Bookman', 'Bookman', 'Nimbus Roman No9 L', 'Times New Roman', 'Times', 'Palatino', 'Charter', serif; text-anchor: middle" x="167.058173" y="268.315614" transform="rotate(-0 167.058173 268.315614)">4</text>
     </g>
    </g>
    <g id="xtick_5">
     <g id="line2d_9">
      <path d="M 204.142564 252.198426 
L 204.142564 26.877187 
" clip-path="url(#pcfdf1c6017)" style="fill: none; stroke-dasharray: 0.5,0.825; stroke-dashoffset: 0; stroke: #b0b0b0; stroke-opacity: 0.6; stroke-width: 0.5"/>
     </g>
     <g id="line2d_10">
      <g>
       <use xlink:href="#m7b13cbb11e" x="204.142564" y="252.198426" style="stroke: #000000; stroke-width: 0.8"/>
      </g>
     </g>
     <g id="text_5">
      <text style="font-size: 12px; font-family: 'DejaVu Serif', 'Bitstream Vera Serif', 'Computer Modern Roman', 'New Century Schoolbook', 'Century Schoolbook L', 'Utopia', 'ITC Bookman', 'Bookman', 'Nimbus Roman No9 L', 'Times New Roman', 'Times', 'Palatino', 'Charter', serif; text-anchor: middle" x="204.142564" y="268.315614" transform="rotate(-0 204.142564 268.315614)">5</text>
     </g>
    </g>
    <g id="xtick_6">
     <g id="line2d_11">
      <path d="M 241.226956 252.198426 
L 241.226956 26.877187 
" clip-path="url(#pcfdf1c6017)" style="fill: none; stroke-dasharray: 0.5,0.825; stroke-dashoffset: 0; stroke: #b0b0b0; stroke-opacity: 0.6; stroke-width: 0.5"/>
     </g>
     <g id="line2d_12">
      <g>
       <use xlink:href="#m7b13cbb11e" x="241.226956" y="252.198426" style="stroke: #000000; stroke-width: 0.8"/>
      </g>
     </g>
     <g id="text_6">
      <text style="font-size: 12px; font-family: 'DejaVu Serif', 'Bitstream Vera Serif', 'Computer Modern Roman', 'New Century Schoolbook', 'Century Schoolbook L', 'Utopia', 'ITC Bookman', 'Bookman', 'Nimbus Roman No9 L', 'Times New Roman', 'Times', 'Palatino', 'Charter', serif; text-anchor: middle" x="241.226956" y="268.315614" transform="rotate(-0 241.226956 268.315614)">6</text>
     </g>
    </g>
    <g id="xtick_7">
     <g id="line2d_13">
      <path d="M 278.311347 252.198426 
L 278.311347 26.877187 
" clip-path="url(#pcfdf1c6017)" style="fill: none; stroke-dasharray: 0.5,0.825; stroke-dashoffset: 0; stroke: #b0b0b0; stroke-opacity: 0.6; stroke-width: 0.5"/>
     </g>
     <g id="line2d_14">
      <g>
       <use xlink:href="#m7b13cbb11e" x="278.311347" y="252.198426" style="stroke: #000000; stroke-width: 0.8"/>
      </g>
     </g>
     <g id="text_7">
      <text style="font-size: 12px; font-family: 'DejaVu Serif', 'Bitstream Vera Serif', 'Computer Modern Roman', 'New Century Schoolbook', 'Century Schoolbook L', 'Utopia', 'ITC Bookman', 'Bookman', 'Nimbus Roman No9 L', 'Times New Roman', 'Times', 'Palatino', 'Charter', serif; text-anchor: middle" x="278.311347" y="268.315614" transform="rotate(-0 278.311347 268.315614)">7</text>
     </g>
    </g>
    <g id="xtick_8">
     <g id="line2d_15">
      <path d="M 315.395738 252.198426 
L 315.395738 26.877187 
" clip-path="url(#pcfdf1c6017)" style="fill: none; stroke-dasharray: 0.5,0.825; stroke-dashoffset: 0; stroke: #b0b0b0; stroke-opacity: 0.6; stroke-width: 0.5"/>
     </g>
     <g id="line2d_16">
      <g>
       <use xlink:href="#m7b13cbb11e" x="315.395738" y="252.198426" style="stroke: #000000; stroke-width: 0.8"/>
      </g>
     </g>
     <g id="text_8">
      <text style="font-size: 12px; font-family: 'DejaVu Serif', 'Bitstream Vera Serif', 'Computer Modern Roman', 'New Century Schoolbook', 'Century Schoolbook L', 'Utopia', 'ITC Bookman', 'Bookman', 'Nimbus Roman No9 L', 'Times New Roman', 'Times', 'Palatino', 'Charter', serif; text-anchor: middle" x="315.395738" y="268.315614" transform="rotate(-0 315.395738 268.315614)">8</text>
     </g>
    </g>
    <g id="xtick_9">
     <g id="line2d_17">
      <path d="M 352.480129 252.198426 
L 352.480129 26.877187 
" clip-path="url(#pcfdf1c6017)" style="fill: none; stroke-dasharray: 0.5,0.825; stroke-dashoffset: 0; stroke: #b0b0b0; stroke-opacity: 0.6; stroke-width: 0.5"/>
     </g>
     <g id="line2d_18">
      <g>
       <use xlink:href="#m7b13cbb11e" x="352.480129" y="252.198426" style="stroke: #000000; stroke-width: 0.8"/>
      </g>
     </g>
     <g id="text_9">
      <text style="font-size: 12px; font-family: 'DejaVu Serif', 'Bitstream Vera Serif', 'Computer Modern Roman', 'New Century Schoolbook', 'Century Schoolbook L', 'Utopia', 'ITC Bookman', 'Bookman', 'Nimbus Roman No9 L', 'Times New Roman', 'Times', 'Palatino', 'Charter', serif; text-anchor: middle" x="352.480129" y="268.315614" transform="rotate(-0 352.480129 268.315614)">9</text>
     </g>
    </g>
    <g id="xtick_10">
     <g id="line2d_19">
      <path d="M 389.56452 252.198426 
L 389.56452 26.877187 
" clip-path="url(#pcfdf1c6017)" style="fill: none; stroke-dasharray: 0.5,0.825; stroke-dashoffset: 0; stroke: #b0b0b0; stroke-opacity: 0.6; stroke-width: 0.5"/>
     </g>
     <g id="line2d_20">
      <g>
       <use xlink:href="#m7b13cbb11e" x="389.56452" y="252.198426" style="stroke: #000000; stroke-width: 0.8"/>
      </g>
     </g>
     <g id="text_10">
      <text style="font-size: 12px; font-family: 'DejaVu Serif', 'Bitstream Vera Serif', 'Computer Modern Roman', 'New Century Schoolbook', 'Century Schoolbook L', 'Utopia', 'ITC Bookman', 'Bookman', 'Nimbus Roman No9 L', 'Times New Roman', 'Times', 'Palatino', 'Charter', serif; text-anchor: middle" x="389.56452" y="268.315614" transform="rotate(-0 389.56452 268.315614)">10</text>
     </g>
    </g>
    <g id="text_11">
     <text style="font-size: 14px; font-family: 'DejaVu Serif', 'Bitstream Vera Serif', 'Computer Modern Roman', 'New Century Schoolbook', 'Century Schoolbook L', 'Utopia', 'ITC Bookman', 'Bookman', 'Nimbus Roman No9 L', 'Times New Roman', 'Times', 'Palatino', 'Charter', serif; text-anchor: middle" x="222.68476" y="285.836239" transform="rotate(-0 222.68476 285.836239)">O/F ratio (-)</text>
    </g>
   </g>
   <g id="matplotlib.axis_2">
    <g id="ytick_1">
     <g id="line2d_21">
      <path d="M 55.805 247.828748 
L 389.56452 247.828748 
" clip-path="url(#pcfdf1c6017)" style="fill: none; stroke-dasharray: 0.5,0.825; stroke-dashoffset: 0; stroke: #b0b0b0; stroke-opacity: 0.6; stroke-width: 0.5"/>
     </g>
     <g id="line2d_22">
      <defs>
       <path id="mcba38b40be" d="M 0 0 
L -3.5 0 
" style="stroke: #000000; stroke-width: 0.8"/>
      </defs>
      <g>
       <use xlink:href="#mcba38b40be" x="55.805" y="247.828748" style="stroke: #000000; stroke-width: 0.8"/>
      </g>
     </g>
     <g id="text_12">
      <text style="font-size: 12px; font-family: 'DejaVu Serif', 'Bitstream Vera Serif', 'Computer Modern Roman', 'New Century Schoolbook', 'Century Schoolbook L', 'Utopia', 'ITC Bookman', 'Bookman', 'Nimbus Roman No9 L', 'Times New Roman', 'Times', 'Palatino', 'Charter', serif; text-anchor: end" x="48.805" y="252.387342" transform="rotate(-0 48.805 252.387342)">120</text>
     </g>
    </g>
    <g id="ytick_2">
     <g id="line2d_23">
      <path d="M 55.805 213.903419 
L 389.56452 213.903419 
" clip-path="url(#pcfdf1c6017)" style="fill: none; stroke-dasharray: 0.5,0.825; stroke-dashoffset: 0; stroke: #b0b0b0; stroke-opacity: 0.6; stroke-width: 0.5"/>
     </g>
     <g id="line2d_24">
      <g>
       <use xlink:href="#mcba38b40be" x="55.805" y="213.903419" style="stroke: #000000; stroke-width: 0.8"/>
      </g>
     </g>
     <g id="text_13">
      <text style="font-size: 12px; font-family: 'DejaVu Serif', 'Bitstream Vera Serif', 'Computer Modern Roman', 'New Century Schoolbook', 'Century Schoolbook L', 'Utopia', 'ITC Bookman', 'Bookman', 'Nimbus Roman No9 L', 'Times New Roman', 'Times', 'Palatino', 'Charter', serif; text-anchor: end" x="48.805" y="218.462012" transform="rotate(-0 48.805 218.462012)">140</text>
     </g>
    </g>
    <g id="ytick_3">
     <g id="line2d_25">
      <path d="M 55.805 179.978089 
L 389.56452 179.978089 
" clip-path="url(#pcfdf1c6017)" style="fill: none; stroke-dasharray: 0.5,0.825; stroke-dashoffset: 0; stroke: #b0b0b0; stroke-opacity: 0.6; stroke-width: 0.5"/>
     </g>
     <g id="line2d_26">
      <g>
       <use xlink:href="#mcba38b40be" x="55.805" y="179.978089" style="stroke: #000000; stroke-width: 0.8"/>
      </g>
     </g>
     <g id="text_14">
      <text style="font-size: 12px; font-family: 'DejaVu Serif', 'Bitstream Vera Serif', 'Computer Modern Roman', 'New Century Schoolbook', 'Century Schoolbook L', 'Utopia', 'ITC Bookman', 'Bookman', 'Nimbus Roman No9 L', 'Times New Roman', 'Times', 'Palatino', 'Charter', serif; text-anchor: end" x="48.805" y="184.536683" transform="rotate(-0 48.805 184.536683)">160</text>
     </g>
    </g>
    <g id="ytick_4">
     <g id="line2d_27">
      <path d="M 55.805 146.052759 
L 389.56452 146.052759 
" clip-path="url(#pcfdf1c6017)" style="fill: none; stroke-dasharray: 0.5,0.825; stroke-dashoffset: 0; stroke: #b0b0b0; stroke-opacity: 0.6; stroke-width: 0.5"/>
     </g>
     <g id="line2d_28">
      <g>
       <use xlink:href="#mcba38b40be" x="55.805" y="146.052759" style="stroke: #000000; stroke-width: 0.8"/>
      </g>
     </g>
     <g id="text_15">
      <text style="font-size: 12px; font-family: 'DejaVu Serif', 'Bitstream Vera Serif', 'Computer Modern Roman', 'New Century Schoolbook', 'Century Schoolbook L', 'Utopia', 'ITC Bookman', 'Bookman', 'Nimbus Roman No9 L', 'Times New Roman', 'Times', 'Palatino', 'Charter', serif; text-anchor: end" x="48.805" y="150.611353" transform="rotate(-0 48.805 150.611353)">180</text>
     </g>
    </g>
    <g id="ytick_5">
     <g id="line2d_29">
      <path d="M 55.805 112.127429 
L 389.56452 112.127429 
" clip-path="url(#pcfdf1c6017)" style="fill: none; stroke-dasharray: 0.5,0.825; stroke-dashoffset: 0; stroke: #b0b0b0; stroke-opacity: 0.6; stroke-width: 0.5"/>
     </g>
     <g id="line2d_30">
      <g>
       <use xlink:href="#mcba38b40be" x="55.805" y="112.127429" style="stroke: #000000; stroke-width: 0.8"/>
      </g>
     </g>
     <g id="text_16">
      <text style="font-size: 12px; font-family: 'DejaVu Serif', 'Bitstream Vera Serif', 'Computer Modern Roman', 'New Century Schoolbook', 'Century Schoolbook L', 'Utopia', 'ITC Bookman', 'Bookman', 'Nimbus Roman No9 L', 'Times New Roman', 'Times', 'Palatino', 'Charter', serif; text-anchor: end" x="48.805" y="116.686023" transform="rotate(-0 48.805 116.686023)">200</text>
     </g>
    </g>
    <g id="ytick_6">
     <g id="line2d_31">
      <path d="M 55.805 78.202099 
L 389.56452 78.202099 
" clip-path="url(#pcfdf1c6017)" style="fill: none; stroke-dasharray: 0.5,0.825; stroke-dashoffset: 0; stroke: #b0b0b0; stroke-opacity: 0.6; stroke-width: 0.5"/>
     </g>
     <g id="line2d_32">
      <g>
       <use xlink:href="#mcba38b40be" x="55.805" y="78.202099" style="stroke: #000000; stroke-width: 0.8"/>
      </g>
     </g>
     <g id="text_17">
      <text style="font-size: 12px; font-family: 'DejaVu Serif', 'Bitstream Vera Serif', 'Computer Modern Roman', 'New Century Schoolbook', 'Century Schoolbook L', 'Utopia', 'ITC Bookman', 'Bookman', 'Nimbus Roman No9 L', 'Times New Roman', 'Times', 'Palatino', 'Charter', serif; text-anchor: end" x="48.805" y="82.760693" transform="rotate(-0 48.805 82.760693)">220</text>
     </g>
    </g>
    <g id="ytick_7">
     <g id="line2d_33">
      <path d="M 55.805 44.276769 
L 389.56452 44.276769 
" clip-path="url(#pcfdf1c6017)" style="fill: none; stroke-dasharray: 0.5,0.825; stroke-dashoffset: 0; stroke: #b0b0b0; stroke-opacity: 0.6; stroke-width: 0.5"/>
     </g>
     <g id="line2d_34">
      <g>
       <use xlink:href="#mcba38b40be" x="55.805" y="44.276769" style="stroke: #000000; stroke-width: 0.8"/>
      </g>
     </g>
     <g id="text_18">
      <text style="font-size: 12px; font-family: 'DejaVu Serif', 'Bitstream Vera Serif', 'Computer Modern Roman', 'New Century Schoolbook', 'Century Schoolbook L', 'Utopia', 'ITC Bookman', 'Bookman', 'Nimbus Roman No9 L', 'Times New Roman', 'Times', 'Palatino', 'Charter', serif; text-anchor: end" x="48.805" y="48.835363" transform="rotate(-0 48.805 48.835363)">240</text>
     </g>
    </g>
    <g id="text_19">
     <!-- Specific Impulse, $I_{sp}$ (s) -->
     <g transform="translate(17.84 222.417807) rotate(-90)">
      <text>
       <tspan x="0" y="-0.359375" style="font-size: 14px; font-family: 'DejaVu Serif'">S</tspan>
       <tspan x="9.59082" y="-0.359375" style="font-size: 14px; font-family: 'DejaVu Serif'">p</tspan>
       <tspan x="18.552734" y="-0.359375" style="font-size: 14px; font-family: 'DejaVu Serif'">e</tspan>
       <tspan x="26.837891" y="-0.359375" style="font-size: 14px; font-family: 'DejaVu Serif'">c</tspan>
       <tspan x="34.678711" y="-0.359375" style="font-size: 14px; font-family: 'DejaVu Serif'">i</tspan>
       <tspan x="39.15625" y="-0.359375" style="font-size: 14px; font-family: 'DejaVu Serif'">f</tspan>
       <tspan x="44.337891" y="-0.359375" style="font-size: 14px; font-family: 'DejaVu Serif'">i</tspan>
       <tspan x="48.81543" y="-0.359375" style="font-size: 14px; font-family: 'DejaVu Serif'">c</tspan>
       <tspan x="56.65625" y="-0.359375" style="font-size: 14px; font-family: 'DejaVu Serif'"> </tspan>
       <tspan x="61.106445" y="-0.359375" style="font-size: 14px; font-family: 'DejaVu Serif'">I</tspan>
       <tspan x="66.636719" y="-0.359375" style="font-size: 14px; font-family: 'DejaVu Serif'">m</tspan>
       <tspan x="79.912109" y="-0.359375" style="font-size: 14px; font-family: 'DejaVu Serif'">p</tspan>
       <tspan x="88.874023" y="-0.359375" style="font-size: 14px; font-family: 'DejaVu Serif'">u</tspan>
       <tspan x="97.890625" y="-0.359375" style="font-size: 14px; font-family: 'DejaVu Serif'">l</tspan>
       <tspan x="102.368164" y="-0.359375" style="font-size: 14px; font-family: 'DejaVu Serif'">s</tspan>
       <tspan x="109.552734" y="-0.359375" style="font-size: 14px; font-family: 'DejaVu Serif'">e</tspan>
       <tspan x="117.837891" y="-0.359375" style="font-size: 14px; font-family: 'DejaVu Serif'">,</tspan>
       <tspan x="122.288086" y="-0.359375" style="font-size: 14px; font-family: 'DejaVu Serif'"> </tspan>
       <tspan x="143.197538" y="-0.359375" style="font-size: 14px; font-family: 'DejaVu Serif'"> </tspan>
       <tspan x="147.647733" y="-0.359375" style="font-size: 14px; font-family: 'DejaVu Serif'">(</tspan>
       <tspan x="153.109647" y="-0.359375" style="font-size: 14px; font-family: 'DejaVu Serif'">s</tspan>
       <tspan x="160.294218" y="-0.359375" style="font-size: 14px; font-family: 'DejaVu Serif'">)</tspan>
       <tspan x="126.738281" y="-0.359375" style="font-size: 14px; font-family: 'cmmi10'">I</tspan>
       <tspan x="132.883789" y="1.74062" style="font-size: 9.8px; font-family: 'cmmi10'">s</tspan>
       <tspan x="137.467969" y="1.74062" style="font-size: 9.8px; font-family: 'cmmi10'">p</tspan>
      </text>
     </g>
    </g>
   </g>
   <g id="line2d_35">
    <path d="M 55.805 241.956552 
L 61.049257 235.774504 
L 66.293515 217.169363 
L 71.537772 201.643114 
L 76.782029 190.113661 
L 82.026287 180.674321 
L 87.270544 172.208292 
L 92.514801 164.013037 
L 97.759059 155.610984 
L 103.003316 146.852149 
L 108.247573 137.998581 
L 113.491831 129.438735 
L 118.736088 121.402272 
L 123.980345 113.959135 
L 129.224603 107.10039 
L 134.46886 100.789266 
L 139.713117 95.779198 
L 144.957375 92.146883 
L 150.201632 88.989166 
L 155.445889 86.249058 
L 160.690147 83.887666 
L 165.934404 81.876606 
L 171.178661 80.194532 
L 176.422919 78.823541 
L 181.667176 77.745711 
L 186.911433 76.940485 
L 192.155691 76.383556 
L 197.399948 76.047342 
L 202.644205 75.902562 
L 207.888463 75.920139 
L 213.13272 76.072799 
L 218.376977 76.336092 
L 223.621235 76.688832 
L 228.865492 77.113103 
L 234.109749 77.594013 
L 239.354007 78.119323 
L 244.598264 78.679051 
L 249.842521 79.265091 
L 255.086778 79.87088 
L 260.331036 80.491107 
L 265.575293 81.121484 
L 270.81955 81.758546 
L 276.063808 82.399495 
L 281.308065 83.042072 
L 286.552322 83.684457 
L 291.79658 84.325186 
L 297.040837 84.963084 
L 302.285094 85.597212 
L 307.529352 86.226824 
L 312.773609 86.851332 
L 318.017866 87.470277 
L 323.262124 88.083306 
L 328.506381 88.690155 
L 333.750638 89.29063 
L 338.994896 89.884597 
L 344.239153 90.471969 
L 349.48341 91.052702 
L 354.727668 91.626782 
L 359.971925 92.194221 
L 365.216182 92.755056 
L 370.46044 93.309338 
L 375.704697 93.857135 
L 380.948954 94.398524 
L 386.193212 94.933593 
L 391.437469 95.462434 
L 396.681726 95.985148 
L 401.925984 96.501838 
L 405.39952 96.840146 
" clip-path="url(#pcfdf1c6017)" style="fill: none; stroke: #463480; stroke-width: 2.5; stroke-linecap: square"/>
   </g>
   <g id="line2d_36">
    <path d="M 37.262804 229.765273 
L 38.948459 211.078701 
L 40.634113 195.057873 
L 42.319767 182.396589 
L 44.005421 171.735366 
L 45.691075 162.218691 
L 47.376729 153.319973 
L 49.062383 144.632713 
L 50.748038 135.770959 
L 52.433692 126.370396 
L 54.119346 116.246968 
L 55.805 105.612728 
L 57.490654 94.956314 
L 59.176308 84.687986 
L 60.861962 75.006827 
L 62.547617 66.86218 
L 64.233271 60.816052 
L 65.918925 55.667166 
L 67.604579 51.312951 
L 69.290233 47.668699 
L 70.975887 44.664918 
L 72.661541 42.244162 
L 74.347196 40.355935 
L 76.03285 38.951367 
L 77.718504 37.979611 
L 79.404158 37.387064 
L 81.089812 37.119062 
L 82.775466 37.122693 
L 84.46112 37.349353 
L 86.146775 37.756313 
L 87.832429 38.307246 
L 89.518083 38.971989 
L 91.203737 39.72589 
L 92.889391 40.549 
L 94.575045 41.42526 
L 96.260699 42.341782 
L 97.946354 43.288224 
L 99.632008 44.256291 
L 101.317662 45.239319 
L 103.003316 46.231947 
L 104.68897 47.229863 
L 106.374624 48.229589 
L 108.060278 49.228328 
L 109.745933 50.223824 
L 111.431587 51.214268 
L 113.117241 52.198209 
L 114.802895 53.17449 
L 116.488549 54.142194 
L 118.174203 55.100603 
L 119.859857 56.04916 
L 121.545512 56.987445 
L 123.231166 57.915144 
L 124.91682 58.832038 
L 126.602474 59.737983 
L 128.288128 60.632896 
L 129.973782 61.516748 
L 131.659436 62.389553 
L 133.345091 63.251357 
L 135.030745 64.102239 
L 136.716399 64.9423 
L 138.402053 65.77166 
L 140.087707 66.590456 
L 141.773361 67.398837 
L 143.459015 68.196961 
L 145.144669 68.984997 
L 146.830324 69.763115 
L 148.515978 70.531495 
L 150.201632 71.290315 
L 151.887286 72.039758 
L 153.57294 72.780007 
L 155.258594 73.511245 
L 156.944248 74.233657 
L 158.629903 74.947422 
L 160.315557 75.652722 
L 162.001211 76.349736 
L 163.686865 77.03864 
L 165.372519 77.719608 
L 167.058173 78.392812 
L 168.743827 79.058419 
L 170.429482 79.716598 
L 172.115136 80.367509 
L 173.80079 81.011313 
L 175.486444 81.648166 
L 177.172098 82.278223 
L 178.857752 82.901632 
L 180.543406 83.518542 
L 182.229061 84.129097 
L 183.914715 84.733437 
L 185.600369 85.3317 
L 187.286023 85.924021 
L 188.971677 86.510531 
L 190.657331 87.091359 
L 192.342985 87.666631 
L 194.02864 88.236471 
L 195.714294 88.800997 
L 197.399948 89.360327 
L 199.085602 89.914575 
L 200.771256 90.463854 
L 202.45691 91.008273 
L 204.142564 91.547939 
" clip-path="url(#pcfdf1c6017)" style="fill: none; stroke-dasharray: 9.25,4; stroke-dashoffset: 0; stroke: #1e9c89; stroke-width: 2.5"/>
   </g>
   <g id="line2d_37">
    <path d="M 55.805 179.937649 
L 59.176308 176.318627 
L 62.547617 172.613874 
L 65.918925 168.86657 
L 69.290233 164.951937 
L 72.661541 160.574062 
L 76.03285 155.096445 
L 79.404158 147.521509 
L 82.775466 138.289296 
L 86.146775 129.283559 
L 89.518083 121.14478 
L 92.889391 113.86161 
L 96.260699 107.331412 
L 99.632008 101.45611 
L 103.003316 96.152649 
L 106.374624 91.351676 
L 109.745933 86.995024 
L 113.117241 83.033527 
L 116.488549 79.425293 
L 119.859857 76.134358 
L 123.231166 73.129644 
L 126.602474 70.384133 
L 129.973782 67.874213 
L 133.345091 65.579157 
L 136.716399 63.480697 
L 140.087707 61.562681 
L 143.459015 59.810781 
L 146.830324 58.212257 
L 150.201632 56.755752 
L 153.57294 55.431115 
L 156.944248 54.22925 
L 160.315557 53.141974 
L 163.686865 52.161899 
L 167.058173 51.282317 
L 170.429482 50.497102 
L 173.80079 49.800615 
L 177.172098 49.187623 
L 180.543406 48.653228 
L 183.914715 48.192802 
L 187.286023 47.801937 
L 190.657331 47.476407 
L 194.02864 47.212135 
L 197.399948 47.005178 
L 200.771256 46.851716 
L 204.142564 46.748049 
L 207.513873 46.690602 
L 210.885181 46.675932 
L 214.256489 46.700736 
L 217.627798 46.761863 
L 220.999106 46.856318 
L 224.370414 46.981274 
L 227.741722 47.134072 
L 231.113031 47.312225 
L 234.484339 47.513415 
L 237.855647 47.735492 
L 241.226956 47.97647 
L 244.598264 48.234518 
L 247.969572 48.507953 
L 251.34088 48.795232 
L 254.712189 49.094944 
L 258.083497 49.4058 
L 261.454805 49.726624 
L 264.826114 50.056345 
L 268.197422 50.393987 
L 271.56873 50.738663 
L 274.940038 51.089564 
L 278.311347 51.445958 
L 281.682655 51.807176 
L 285.053963 52.172611 
L 288.425272 52.541711 
L 291.79658 52.913975 
L 295.167888 53.288945 
L 298.539196 53.666205 
L 301.910505 54.045378 
L 305.281813 54.426117 
L 308.653121 54.808108 
L 312.024429 55.191064 
L 315.395738 55.574724 
L 318.767046 55.958849 
L 322.138354 56.343221 
L 325.509663 56.72764 
L 328.880971 57.111924 
L 332.252279 57.495905 
L 335.623587 57.879433 
L 338.994896 58.262366 
L 342.366204 58.644576 
L 345.737512 59.025947 
L 349.108821 59.406372 
L 352.480129 59.78575 
L 355.851437 60.163993 
L 359.222745 60.541018 
L 362.594054 60.916749 
L 365.965362 61.291115 
L 369.33667 61.664054 
L 372.707979 62.035507 
L 376.079287 62.405421 
L 379.450595 62.773746 
L 382.821903 63.140439 
L 386.193212 63.505457 
L 389.56452 63.868764 
" clip-path="url(#pcfdf1c6017)" style="fill: none; stroke-dasharray: 16,4,2.5,4; stroke-dashoffset: 0; stroke: #9bd93c; stroke-width: 2.5"/>
   </g>
   <g id="patch_3">
    <path d="M 55.805 252.198426 
L 55.805 26.877187 
" style="fill: none; stroke: #000000; stroke-linejoin: miter; stroke-linecap: square"/>
   </g>
   <g id="patch_4">
    <path d="M 389.56452 252.198426 
L 389.56452 26.877187 
" style="fill: none; stroke: #000000; stroke-linejoin: miter; stroke-linecap: square"/>
   </g>
   <g id="patch_5">
    <path d="M 55.805 252.198426 
L 389.56452 252.198426 
" style="fill: none; stroke: #000000; stroke-linejoin: miter; stroke-linecap: square"/>
   </g>
   <g id="patch_6">
    <path d="M 55.805 26.877187 
L 389.56452 26.877187 
" style="fill: none; stroke: #000000; stroke-linejoin: miter; stroke-linecap: square"/>
   </g>
   <g id="text_20">
    <text style="font-size: 18px; font-family: 'DejaVu Serif', 'Bitstream Vera Serif', 'Computer Modern Roman', 'New Century Schoolbook', 'Century Schoolbook L', 'Utopia', 'ITC Bookman', 'Bookman', 'Nimbus Roman No9 L', 'Times New Roman', 'Times', 'Palatino', 'Charter', serif; text-anchor: middle" x="222.68476" y="20.877187" transform="rotate(-0 222.68476 20.877187)">ABS, Isp at 20 bar</text>
   </g>
   <g id="legend_1">
    <g id="line2d_38">
     <path d="M 296.26327 189.332957 
L 310.26327 189.332957 
L 324.26327 189.332957 
" style="fill: none; stroke: #463480; stroke-width: 2.5; stroke-linecap: square"/>
    </g>
    <g id="text_21">
     <text style="font-size: 14px; font-family: 'DejaVu Serif', 'Bitstream Vera Serif', 'Computer Modern Roman', 'New Century Schoolbook', 'Century Schoolbook L', 'Utopia', 'ITC Bookman', 'Bookman', 'Nimbus Roman No9 L', 'Times New Roman', 'Times', 'Palatino', 'Charter', serif; text-anchor: start" x="335.46327" y="194.232957" transform="rotate(-0 335.46327 194.232957)">N2O</text>
    </g>
    <g id="line2d_39">
     <path d="M 296.26327 210.334051 
L 310.26327 210.334051 
L 324.26327 210.334051 
" style="fill: none; stroke-dasharray: 9.25,4; stroke-dashoffset: 0; stroke: #1e9c89; stroke-width: 2.5"/>
    </g>
    <g id="text_22">
     <text style="font-size: 14px; font-family: 'DejaVu Serif', 'Bitstream Vera Serif', 'Computer Modern Roman', 'New Century Schoolbook', 'Century Schoolbook L', 'Utopia', 'ITC Bookman', 'Bookman', 'Nimbus Roman No9 L', 'Times New Roman', 'Times', 'Palatino', 'Charter', serif; text-anchor: start" x="335.46327" y="215.234051" transform="rotate(-0 335.46327 215.234051)">O2</text>
    </g>
    <g id="line2d_40">
     <path d="M 296.26327 231.335145 
L 310.26327 231.335145 
L 324.26327 231.335145 
" style="fill: none; stroke-dasharray: 16,4,2.5,4; stroke-dashoffset: 0; stroke: #9bd93c; stroke-width: 2.5"/>
    </g>
    <g id="text_23">
     <text style="font-size: 14px; font-family: 'DejaVu Serif', 'Bitstream Vera Serif', 'Computer Modern Roman', 'New Century Schoolbook', 'Century Schoolbook L', 'Utopia', 'ITC Bookman', 'Bookman', 'Nimbus Roman No9 L', 'Times New Roman', 'Times', 'Palatino', 'Charter', serif; text-anchor: start" x="335.46327" y="236.235145" transform="rotate(-0 335.46327 236.235145)">H2O2</text>
    </g>
   </g>
  </g>
 </g>
 <defs>
  <clipPath id="pcfdf1c6017">
   <rect x="55.805" y="26.877187" width="333.75952" height="225.321239"/>
  </clipPath>
 </defs>
</svg>
