<?xml version="1.0" encoding="utf-8" standalone="no"?>
<!DOCTYPE svg PUBLIC "-//W3C//DTD SVG 1.1//EN"
  "http://www.w3.org/Graphics/SVG/1.1/DTD/svg11.dtd">
<svg xmlns:xlink="http://www.w3.org/1999/xlink" width="404.39952pt" height="296.39952pt" viewBox="0 0 404.39952 296.39952" xmlns="http://www.w3.org/2000/svg" version="1.1">
 <metadata>
  <rdf:RDF xmlns:dc="http://purl.org/dc/elements/1.1/" xmlns:cc="http://creativecommons.org/ns#" xmlns:rdf="http://www.w3.org/1999/02/22-rdf-syntax-ns#">
   <cc:Work>
    <dc:type rdf:resource="http://purl.org/dc/dcmitype/StillImage"/>
    <dc:date>2026-10-02T20:47:46.569639</dc:date>
    <dc:format>image/svg+xml</dc:format>
    <dc:creator>
     <cc:Agent>
      <dc:title>Matplotlib v3.11.1, https://matplotlib.org/</dc:title>
     </cc:Agent>
    </dc:creator>
   </cc:Work>
  </rdf:RDF>
 </metadata>
 <defs>
  <style type="text/css">*{stroke-linejoin: round; stroke-linecap: butt}</style>
 </defs>
 <g id="figure_1">
  <g id="patch_1">
   <path d="M 0 296.39952 
L 404.39952 296.39952 
L 404.39952 0 
L 0 0 
z
" style="fill: #ffffff"/>
  </g>
  <g id="axes_1">
   <g id="patch_2">
    <path d="M 47.471094 252.198426 
L 389.56452 252.198426 
L 389.56452 26.877187 
L 47.471094 26.877187 
z
" style="fill: #ffffff"/>
   </g>
   <g id="matplotlib.axis_1">
    <g id="xtick_1">
     <g id="line2d_1">
      <path d="M 47.471094 252.198426 
L 47.471094 26.877187 
" clip-path="url(#pd825753866)" style="fill: none; stroke-dasharray: 0.5,0.825; stroke-dashoffset: 0; stroke: #b0b0b0; stroke-opacity: 0.6; stroke-width: 0.5"/>
     </g>
     <g id="line2d_2">
      <defs>
       <path id="m168f27f30e" d="M 0 0 
L 0 3.5 
" style="stroke: #000000; stroke-width: 0.8"/>
      </defs>
      <g>
       <use xlink:href="#m168f27f30e" x="47.471094" y="252.198426" style="stroke: #000000; stroke-width: 0.8"/>
      </g>
     </g>
     <g id="text_1">
      <text style="font-size: 12px; font-family: 'DejaVu Serif', 'Bitstream Vera Serif', 'Computer Modern Roman', 'New Century Schoolbook', 'Century Schoolbook L', 'Utopia', 'ITC Bookman', 'Bookman', 'Nimbus Roman No9 L', 'Times New Roman', 'Times', 'Palatino', 'Charter', serif; text-anchor: middle" x="47.471094" y="268.315614" transform="rotate(-0 47.471094 268.315614)">1</text>
     </g>
    </g>
    <g id="xtick_2">
     <g id="line2d_3">
      <path d="M 85.481474 252.198426 
L 85.481474 26.877187 
" clip-path="url(#pd825753866)" style="fill: none; stroke-dasharray: 0.5,0.825; stroke-dashoffset: 0; stroke: #b0b0b0; stroke-opacity: 0.6; stroke-width: 0.5"/>
     </g>
     <g id="line2d_4">
      <g>
       <use xlink:href="#m168f27f30e" x="85.481474" y="252.198426" style="stroke: #000000; stroke-width: 0.8"/>
      </g>
     </g>
     <g id="text_2">
      <text style="font-size: 12px; font-family: 'DejaVu Serif', 'Bitstream Vera Serif', 'Computer Modern Roman', 'New Century Schoolbook', 'Century Schoolbook L', 'Utopia', 'ITC Bookman', 'Bookman', 'Nimbus Roman No9 L', 'Times New Roman', 'Times', 'Palatino', 'Charter', serif; text-anchor: middle" x="85.481474" y="268.315614" transform="rotate(-0 85.481474 268.315614)">2</text>
     </g>
    </g>
    <g id="xtick_3">
     <g id="line2d_5">
      <path d="M 123.491855 252.198426 
L 123.491855 26.877187 
" clip-path="url(#pd825753866)" style="fill: none; stroke-dasharray: 0.5,0.825; stroke-dashoffset: 0; stroke: #b0b0b0; stroke-opacity: 0.6; stroke-width: 0.5"/>
     </g>
     <g id="line2d_6">
      <g>
       <use xlink:href="#m168f27f30e" x="123.491855" y="252.198426" style="stroke: #000000; stroke-width: 0.8"/>
      </g>
     </g>
     <g id="text_3">
      <text style="font-size: 12px; font-family: 'DejaVu Serif', 'Bitstream Vera Serif', 'Computer Modern Roman', 'New Century Schoolbook', 'Century Schoolbook L', 'Utopia', 'ITC Bookman', 'Bookman', 'Nimbus Roman No9 L', 'Times New Roman', 'Times', 'Palatino', 'Charter', serif; text-anchor: middle" x="123.491855" y="268.315614" transform="rotate(-0 123.491855 268.315614)">3</text>
     </g>
    </g>
    <g id="xtick_4">
     <g id="line2d_7">
      <path d="M 161.502236 252.198426 
L 161.502236 26.877187 
" clip-path="url(#pd825753866)" style="fill: none; stroke-dasharray: 0.5,0.825; stroke-dashoffset: 0; stroke: #b0b0b0; stroke-opacity: 0.6; stroke-width: 0.5"/>
     </g>
     <g id="line2d_8">
      <g>
       <use xlink:href="#m168f27f30e" x="161.502236" y="252.198426" style="stroke: #000000; stroke-width: 0.8"/>
      </g>
     </g>
     <g id="text_4">
      <text style="font-size: 12px; font-family: 'DejaVu Serif', 'Bitstream Vera Serif', 'Computer Modern Roman', 'New Century Schoolbook', 'Century Schoolbook L', 'Utopia', 'ITC Bookman', 'Bookman', 'Nimbus Roman No9 L', 'Times New Roman', 'Times', 'Palatino', 'Charter', serif; text-anchor: middle" x="161.502236" y="268.315614" transform="rotate(-0 161.502236 268.315614)">4</text>
     </g>
    </g>
    <g id="xtick_5">
     <g id="line2d_9">
      <path d="M 199.512617 252.198426 
L 199.512617 26.877187 
" clip-path="url(#pd825753866)" style="fill: none; stroke-dasharray: 0.5,0.825; stroke-dashoffset: 0; stroke: #b0b0b0; stroke-opacity: 0.6; stroke-width: 0.5"/>
     </g>
     <g id="line2d_10">
      <g>
       <use xlink:href="#m168f27f30e" x="199.512617" y="252.198426" style="stroke: #000000; stroke-width: 0.8"/>
      </g>
     </g>
     <g id="text_5">
      <text style="font-size: 12px; font-family: 'DejaVu Serif', 'Bitstream Vera Serif', 'Computer Modern Roman', 'New Century Schoolbook', 'Century Schoolbook L', 'Utopia', 'ITC Bookman', 'Bookman', 'Nimbus Roman No9 L', 'Times New Roman', 'Times', 'Palatino', 'Charter', serif; text-anchor: middle" x="199.512617" y="268.315614" transform="rotate(-0 199.512617 268.315614)">5</text>
     </g>
    </g>
    <g id="xtick_6">
     <g id="line2d_11">
      <path d="M 237.522997 252.198426 
L 237.522997 26.877187 
" clip-path="url(#pd825753866)" style="fill: none; stroke-dasharray: 0.5,0.825; stroke-dashoffset: 0; stroke: #b0b0b0; stroke-opacity: 0.6; stroke-width: 0.5"/>
     </g>
     <g id="line2d_12">
      <g>
       <use xlink:href="#m168f27f30e" x="237.522997" y="252.198426" style="stroke: #000000; stroke-width: 0.8"/>
      </g>
     </g>
     <g id="text_6">
      <text style="font-size: 12px; font-family: 'DejaVu Serif', 'Bitstream Vera Serif', 'Computer Modern Roman', 'New Century Schoolbook', 'Century Schoolbook L', 'Utopia', 'ITC Bookman', 'Bookman', 'Nimbus Roman No9 L', 'Times New Roman', 'Times', 'Palatino', 'Charter', serif; text-anchor: middle" x="237.522997" y="268.315614" transform="rotate(-0 237.522997 268.315614)">6</text>
     </g>
    </g>
    <g id="xtick_7">
     <g id="line2d_13">
      <path d="M 275.533378 252.198426 
L 275.533378 26.877187 
" clip-path="url(#pd825753866)" style="fill: none; stroke-dasharray: 0.5,0.825; stroke-dashoffset: 0; stroke: #b0b0b0; stroke-opacity: 0.6; stroke-width: 0.5"/>
     </g>
     <g id="line2d_14">
      <g>
       <use xlink:href="#m168f27f30e" x="275.533378" y="252.198426" style="stroke: #000000; stroke-width: 0.8"/>
      </g>
     </g>
     <g id="text_7">
      <text style="font-size: 12px; font-family: 'DejaVu Serif', 'Bitstream Vera Serif', 'Computer Modern Roman', 'New Century Schoolbook', 'Century Schoolbook L', 'Utopia', 'ITC Bookman', 'Bookman', 'Nimbus Roman No9 L', 'Times New Roman', 'Times', 'Palatino', 'Charter', serif; text-anchor: middle" x="275.533378" y="268.315614" transform="rotate(-0 275.533378 268.315614)">7</text>
     </g>
    </g>
    <g id="xtick_8">
     <g id="line2d_15">
      <path d="M 313.543759 252.198426 
L 313.543759 26.877187 
" clip-path="url(#pd825753866)" style="fill: none; stroke-dasharray: 0.5,0.825; stroke-dashoffset: 0; stroke: #b0b0b0; stroke-opacity: 0.6; stroke-width: 0.5"/>
     </g>
     <g id="line2d_16">
      <g>
       <use xlink:href="#m168f27f30e" x="313.543759" y="252.198426" style="stroke: #000000; stroke-width: 0.8"/>
      </g>
     </g>
     <g id="text_8">
      <text style="font-size: 12px; font-family: 'DejaVu Serif', 'Bitstream Vera Serif', 'Computer Modern Roman', 'New Century Schoolbook', 'Century Schoolbook L', 'Utopia', 'ITC Bookman', 'Bookman', 'Nimbus Roman No9 L', 'Times New Roman', 'Times', 'Palatino', 'Charter', serif; text-anchor: middle" x="313.543759" y="268.315614" transform="rotate(-0 313.543759 268.315614)">8</text>
     </g>
    </g>
    <g id="xtick_9">
     <g id="line2d_17">
      <path d="M 351.554139 252.198426 
L 351.554139 26.877187 
" clip-path="url(#pd825753866)" style="fill: none; stroke-dasharray: 0.5,0.825; stroke-dashoffset: 0; stroke: #b0b0b0; stroke-opacity: 0.6; stroke-width: 0.5"/>
     </g>
     <g id="line2d_18">
      <g>
       <use xlink:href="#m168f27f30e" x="351.554139" y="252.198426" style="stroke: #000000; stroke-width: 0.8"/>
      </g>
     </g>
     <g id="text_9">
      <text style="font-size: 12px; font-family: 'DejaVu Serif', 'Bitstream Vera Serif', 'Computer Modern Roman', 'New Century Schoolbook', 'Century Schoolbook L', 'Utopia', 'ITC Bookman', 'Bookman', 'Nimbus Roman No9 L', 'Times New Roman', 'Times', 'Palatino', 'Charter', serif; text-anchor: middle" x="351.554139" y="268.315614" transform="rotate(-0 351.554139 268.315614)">9</text>
     </g>
    </g>
    <g id="xtick_10">
     <g id="line2d_19">
      <path d="M 389.56452 252.198426 
L 389.56452 26.877187 
" clip-path="url(#pd825753866)" style="fill: none; stroke-dasharray: 0.5,0.825; stroke-dashoffset: 0; stroke: #b0b0b0; stroke-opacity: 0.6; stroke-width: 0.5"/>
     </g>
     <g id="line2d_20">
      <g>
       <use xlink:href="#m168f27f30e" x="389.56452" y="252.198426" style="stroke: #000000; stroke-width: 0.8"/>
      </g>
     </g>
     <g id="text_10">
      <text style="font-size: 12px; font-family: 'DejaVu Serif', 'Bitstream Vera Serif', 'Computer Modern Roman', 'New Century Schoolbook', 'Century Schoolbook L', 'Utopia', 'ITC Bookman', 'Bookman', 'Nimbus Roman No9 L', 'Times New Roman', 'Times', 'Palatino', 'Charter', serif; text-anchor: middle" x="389.56452" y="268.315614" transform="rotate(-0 389.56452 268.315614)">10</text>
     </g>
    </g>
    <g id="text_11">
     <text style="font-size: 14px; font-family: 'DejaVu Serif', 'Bitstream Vera Serif', 'Computer Modern Roman', 'New Century Schoolbook', 'Century Schoolbook L', 'Utopia', 'ITC Bookman', 'Bookman', 'Nimbus Roman No9 L', 'Times New Roman', 'Times', 'Palatino', 'Charter', serif; text-anchor: middle" x="218.517807" y="285.836239" transform="rotate(-0 218.517807 285.836239)">O/F ratio (-)</text>
    </g>
   </g>
   <g id="matplotlib.axis_2">
    <g id="ytick_1">
     <g id="line2d_21">
      <path d="M 47.471094 226.880411 
L 389.56452 226.880411 
" clip-path="url(#pd825753866)" style="fill: none; stroke-dasharray: 0.5,0.825; stroke-dashoffset: 0; stroke: #b0b0b0; stroke-opacity: 0.6; stroke-width: 0.5"/>
     </g>
     <g id="line2d_22">
      <defs>
       <path id="m5bb66b9491" d="M 0 0 
L -3.5 0 
" style="stroke: #000000; stroke-width: 0.8"/>
      </defs>
      <g>
       <use xlink:href="#m5bb66b9491" x="47.471094" y="226.880411" style="stroke: #000000; stroke-width: 0.8"/>
      </g>
     </g>
     <g id="text_12">
      <text style="font-size: 12px; font-family: 'DejaVu Serif', 'Bitstream Vera Serif', 'Computer Modern Roman', 'New Century Schoolbook', 'Century Schoolbook L', 'Utopia', 'ITC Bookman', 'Bookman', 'Nimbus Roman No9 L', 'Times New Roman', 'Times', 'Palatino', 'Charter', serif; text-anchor: end" x="40.471094" y="231.439004" transform="rotate(-0 40.471094 231.439004)">20</text>
     </g>
    </g>
    <g id="ytick_2">
     <g id="line2d_23">
      <path d="M 47.471094 197.938702 
L 389.56452 197.938702 
" clip-path="url(#pd825753866)" style="fill: none; stroke-dasharray: 0.5,0.825; stroke-dashoffset: 0; stroke: #b0b0b0; stroke-opacity: 0.6; stroke-width: 0.5"/>
     </g>
     <g id="line2d_24">
      <g>
       <use xlink:href="#m5bb66b9491" x="47.471094" y="197.938702" style="stroke: #000000; stroke-width: 0.8"/>
      </g>
     </g>
     <g id="text_13">
      <text style="font-size: 12px; font-family: 'DejaVu Serif', 'Bitstream Vera Serif', 'Computer Modern Roman', 'New Century Schoolbook', 'Century Schoolbook L', 'Utopia', 'ITC Bookman', 'Bookman', 'Nimbus Roman No9 L', 'Times New Roman', 'Times', 'Palatino', 'Charter', serif; text-anchor: end" x="40.471094" y="202.497295" transform="rotate(-0 40.471094 202.497295)">22</text>
     </g>
    </g>
    <g id="ytick_3">
     <g id="line2d_25">
      <path d="M 47.471094 168.996993 
L 389.56452 168.996993 
" clip-path="url(#pd825753866)" style="fill: none; stroke-dasharray: 0.5,0.825; stroke-dashoffset: 0; stroke: #b0b0b0; stroke-opacity: 0.6; stroke-width: 0.5"/>
     </g>
     <g id="line2d_26">
      <g>
       <use xlink:href="#m5bb66b9491" x="47.471094" y="168.996993" style="stroke: #000000; stroke-width: 0.8"/>
      </g>
     </g>
     <g id="text_14">
      <text style="font-size: 12px; font-family: 'DejaVu Serif', 'Bitstream Vera Serif', 'Computer Modern Roman', 'New Century Schoolbook', 'Century Schoolbook L', 'Utopia', 'ITC Bookman', 'Bookman', 'Nimbus Roman No9 L', 'Times New Roman', 'Times', 'Palatino', 'Charter', serif; text-anchor: end" x="40.471094" y="173.555587" transform="rotate(-0 40.471094 173.555587)">24</text>
     </g>
    </g>
    <g id="ytick_4">
     <g id="line2d_27">
      <path d="M 47.471094 140.055284 
L 389.56452 140.055284 
" clip-path="url(#pd825753866)" style="fill: none; stroke-dasharray: 0.5,0.825; stroke-dashoffset: 0; stroke: #b0b0b0; stroke-opacity: 0.6; stroke-width: 0.5"/>
     </g>
     <g id="line2d_28">
      <g>
       <use xlink:href="#m5bb66b9491" x="47.471094" y="140.055284" style="stroke: #000000; stroke-width: 0.8"/>
      </g>
     </g>
     <g id="text_15">
      <text style="font-size: 12px; font-family: 'DejaVu Serif', 'Bitstream Vera Serif', 'Computer Modern Roman', 'New Century Schoolbook', 'Century Schoolbook L', 'Utopia', 'ITC Bookman', 'Bookman', 'Nimbus Roman No9 L', 'Times New Roman', 'Times', 'Palatino', 'Charter', serif; text-anchor: end" x="40.471094" y="144.613878" transform="rotate(-0 40.471094 144.613878)">26</text>
     </g>
    </g>
    <g id="ytick_5">
     <g id="line2d_29">
      <path d="M 47.471094 111.113575 
L 389.56452 111.113575 
" clip-path="url(#pd825753866)" style="fill: none; stroke-dasharray: 0.5,0.825; stroke-dashoffset: 0; stroke: #b0b0b0; stroke-opacity: 0.6; stroke-width: 0.5"/>
     </g>
     <g id="line2d_30">
      <g>
       <use xlink:href="#m5bb66b9491" x="47.471094" y="111.113575" style="stroke: #000000; stroke-width: 0.8"/>
      </g>
     </g>
     <g id="text_16">
      <text style="font-size: 12px; font-family: 'DejaVu Serif', 'Bitstream Vera Serif', 'Computer Modern Roman', 'New Century Schoolbook', 'Century Schoolbook L', 'Utopia', 'ITC Bookman', 'Bookman', 'Nimbus Roman No9 L', 'Times New Roman', 'Times', 'Palatino', 'Charter', serif; text-anchor: end" x="40.471094" y="115.672169" transform="rotate(-0 40.471094 115.672169)">28</text>
     </g>
    </g>
    <g id="ytick_6">
     <g id="line2d_31">
      <path d="M 47.471094 82.171866 
L 389.56452 82.171866 
" clip-path="url(#pd825753866)" style="fill: none; stroke-dasharray: 0.5,0.825; stroke-dashoffset: 0; stroke: #b0b0b0; stroke-opacity: 0.6; stroke-width: 0.5"/>
     </g>
     <g id="line2d_32">
      <g>
       <use xlink:href="#m5bb66b9491" x="47.471094" y="82.171866" style="stroke: #000000; stroke-width: 0.8"/>
      </g>
     </g>
     <g id="text_17">
      <text style="font-size: 12px; font-family: 'DejaVu Serif', 'Bitstream Vera Serif', 'Computer Modern Roman', 'New Century Schoolbook', 'Century Schoolbook L', 'Utopia', 'ITC Bookman', 'Bookman', 'Nimbus Roman No9 L', 'Times New Roman', 'Times', 'Palatino', 'Charter', serif; text-anchor: end" x="40.471094" y="86.73046" transform="rotate(-0 40.471094 86.73046)">30</text>
     </g>
    </g>
    <g id="ytick_7">
     <g id="line2d_33">
      <path d="M 47.471094 53.230157 
L 389.56452 53.230157 
" clip-path="url(#pd825753866)" style="fill: none; stroke-dasharray: 0.5,0.825; stroke-dashoffset: 0; stroke: #b0b0b0; stroke-opacity: 0.6; stroke-width: 0.5"/>
     </g>
     <g id="line2d_34">
      <g>
       <use xlink:href="#m5bb66b9491" x="47.471094" y="53.230157" style="stroke: #000000; stroke-width: 0.8"/>
      </g>
     </g>
     <g id="text_18">
      <text style="font-size: 12px; font-family: 'DejaVu Serif', 'Bitstream Vera Serif', 'Computer Modern Roman', 'New Century Schoolbook', 'Century Schoolbook L', 'Utopia', 'ITC Bookman', 'Bookman', 'Nimbus Roman No9 L', 'Times New Roman', 'Times', 'Palatino', 'Charter', serif; text-anchor: end" x="40.471094" y="57.788751" transform="rotate(-0 40.471094 57.788751)">32</text>
     </g>
    </g>
    <g id="text_19">
     <text style="font-size: 14px; font-family: 'DejaVu Serif', 'Bitstream Vera Serif', 'Computer Modern Roman', 'New Century Schoolbook', 'Century Schoolbook L', 'Utopia', 'ITC Bookman', 'Bookman', 'Nimbus Roman No9 L', 'Times New Roman', 'Times', 'Palatino', 'Charter', serif; text-anchor: middle" x="17.837813" y="139.537807" transform="rotate(-90 17.837813 139.537807)">Molecular weight (g/mol)</text>
    </g>
   </g>
   <g id="line2d_35">
    <path d="M 47.471094 98.893614 
L 52.846299 117.306595 
L 58.221504 130.657396 
L 63.59671 141.440739 
L 68.971915 154.387026 
L 74.347121 165.998093 
L 79.722326 175.494308 
L 85.097531 175.517181 
L 90.472737 168.267788 
L 95.847942 161.335765 
L 101.223147 154.755409 
L 106.598353 148.525873 
L 111.973558 142.649706 
L 117.348763 137.134781 
L 122.723969 131.996695 
L 128.099174 127.260833 
L 133.474379 122.959257 
L 138.849585 119.117784 
L 144.22479 115.73821 
L 149.599995 112.790742 
L 154.975201 110.223119 
L 160.350406 107.976275 
L 165.725611 105.995504 
L 171.100817 104.234899 
L 176.476022 102.657648 
L 181.851228 101.234698 
L 187.226433 99.943128 
L 192.601638 98.764713 
L 197.976844 97.684803 
L 203.352049 96.691465 
L 208.727254 95.77486 
L 214.10246 94.926773 
L 219.477665 94.140269 
L 224.85287 93.40943 
L 230.228076 92.729158 
L 235.603281 92.095027 
L 240.978486 91.503161 
L 246.353692 90.950144 
L 251.728897 90.432946 
L 257.104102 89.948865 
L 262.479308 89.495477 
L 267.854513 89.070601 
L 273.229718 88.672261 
L 278.604924 88.298665 
L 283.980129 87.94818 
L 289.355335 87.619313 
L 294.73054 87.310694 
L 300.105745 87.021066 
L 305.480951 86.749269 
L 310.856156 86.494229 
L 316.231361 86.254956 
L 321.606567 86.030529 
L 326.981772 85.820093 
L 332.356977 85.62285 
L 337.732183 85.438057 
L 343.107388 85.265022 
L 348.482593 85.103095 
L 353.857799 84.951668 
L 359.233004 84.810171 
L 364.608209 84.678069 
L 369.983415 84.554858 
L 375.35862 84.440067 
L 380.733825 84.333249 
L 386.109031 84.233985 
L 391.484236 84.141877 
L 396.859442 84.056552 
L 402.234647 83.977657 
L 405.39952 83.934793 
" clip-path="url(#pd825753866)" style="fill: none; stroke: #463480; stroke-width: 2.5; stroke-linecap: square"/>
   </g>
   <g id="line2d_36">
    <path d="M 28.465903 125.530468 
L 30.193648 139.281954 
L 31.921393 150.681788 
L 33.649137 166.263021 
L 35.376882 180.560887 
L 37.104626 192.423795 
L 38.832371 199.243371 
L 40.560115 194.470044 
L 42.28786 186.508956 
L 44.015605 178.485802 
L 45.743349 170.502439 
L 47.471094 162.61747 
L 49.198838 154.916766 
L 50.926583 147.51216 
L 52.654327 140.534435 
L 54.382072 134.118681 
L 56.109817 128.366512 
L 57.837561 123.298636 
L 59.565306 118.851006 
L 61.29305 114.918509 
L 63.020795 111.397154 
L 64.74854 108.201924 
L 66.476284 105.268392 
L 68.204029 102.548827 
L 69.931773 100.007788 
L 71.659518 97.61861 
L 73.387262 95.360862 
L 75.115007 93.218592 
L 76.842752 91.179108 
L 78.570496 89.232128 
L 80.298241 87.369189 
L 82.025985 85.583214 
L 83.75373 83.868212 
L 85.481474 82.21904 
L 87.209219 80.631242 
L 88.936964 79.100913 
L 90.664708 77.624603 
L 92.392453 76.199239 
L 94.120197 74.822065 
L 95.847942 73.490591 
L 97.575686 72.202558 
L 99.303431 70.955903 
L 101.031176 69.748733 
L 102.75892 68.579305 
L 104.486665 67.44601 
L 106.214409 66.347352 
L 107.942154 65.281939 
L 109.669899 64.248475 
L 111.397643 63.245745 
L 113.125388 62.272608 
L 114.853132 61.327994 
L 116.580877 60.410894 
L 118.308621 59.520355 
L 120.036366 58.655479 
L 121.764111 57.815412 
L 123.491855 56.999348 
L 125.2196 56.206518 
L 126.947344 55.436193 
L 128.675089 54.68768 
L 130.402833 53.960316 
L 132.130578 53.253471 
L 133.858323 52.566542 
L 135.586067 51.898954 
L 137.313812 51.250154 
L 139.041556 50.619616 
L 140.769301 50.006834 
L 142.497045 49.411323 
L 144.22479 48.832617 
L 145.952535 48.270271 
L 147.680279 47.723855 
L 149.408024 47.192954 
L 151.135768 46.677173 
L 152.863513 46.176128 
L 154.591258 45.689449 
L 156.319002 45.216782 
L 158.046747 44.757784 
L 159.774491 44.312122 
L 161.502236 43.879477 
L 163.22998 43.45954 
L 164.957725 43.052011 
L 166.68547 42.656602 
L 168.413214 42.273032 
L 170.140959 41.90103 
L 171.868703 41.540333 
L 173.596448 41.190685 
L 175.324192 40.851841 
L 177.051937 40.523559 
L 178.779682 40.205606 
L 180.507426 39.897755 
L 182.235171 39.599787 
L 183.962915 39.311487 
L 185.69066 39.032645 
L 187.418404 38.763059 
L 189.146149 38.50253 
L 190.873894 38.250865 
L 192.601638 38.007877 
L 194.329383 37.77338 
L 196.057127 37.547195 
L 197.784872 37.329146 
L 199.512617 37.119062 
" clip-path="url(#pd825753866)" style="fill: none; stroke-dasharray: 9.25,4; stroke-dashoffset: 0; stroke: #1e9c89; stroke-width: 2.5"/>
   </g>
   <g id="line2d_37">
    <path d="M 47.471094 199.80726 
L 50.926583 213.228878 
L 54.382072 224.27912 
L 57.837561 233.155004 
L 61.29305 239.565354 
L 64.74854 241.956552 
L 68.204029 239.729601 
L 71.659518 236.360447 
L 75.115007 233.020342 
L 78.570496 229.810344 
L 82.025985 226.733905 
L 85.481474 223.785851 
L 88.936964 220.960716 
L 92.392453 218.253761 
L 95.847942 215.661059 
L 99.303431 213.179424 
L 102.75892 210.806331 
L 106.214409 208.539831 
L 109.669899 206.378494 
L 113.125388 204.321372 
L 116.580877 202.367987 
L 120.036366 200.518327 
L 123.491855 198.772824 
L 126.947344 197.132285 
L 130.402833 195.597749 
L 133.858323 194.170231 
L 137.313812 192.850367 
L 140.769301 191.638016 
L 144.22479 190.531882 
L 147.680279 189.529272 
L 151.135768 188.626054 
L 154.591258 187.816815 
L 158.046747 187.095178 
L 161.502236 186.454192 
L 164.957725 185.886706 
L 168.413214 185.385689 
L 171.868703 184.944451 
L 175.324192 184.556782 
L 178.779682 184.217022 
L 182.235171 183.920078 
L 185.69066 183.661403 
L 189.146149 183.436963 
L 192.601638 183.243189 
L 196.057127 183.076926 
L 199.512617 182.935388 
L 202.968106 182.816109 
L 206.423595 182.716907 
L 209.879084 182.635842 
L 213.334573 182.571191 
L 216.790062 182.521416 
L 220.245551 182.485139 
L 223.701041 182.461127 
L 227.15653 182.448272 
L 230.612019 182.445573 
L 234.067508 182.452127 
L 237.522997 182.467116 
L 240.978486 182.489796 
L 244.433976 182.519493 
L 247.889465 182.55559 
L 251.344954 182.597525 
L 254.800443 182.644784 
L 258.255932 182.696896 
L 261.711421 182.753428 
L 265.16691 182.813984 
L 268.6224 182.878198 
L 272.077889 182.945734 
L 275.533378 183.016282 
L 278.988867 183.089557 
L 282.444356 183.165294 
L 285.899845 183.24325 
L 289.355335 183.323199 
L 292.810824 183.404933 
L 296.266313 183.488258 
L 299.721802 183.572997 
L 303.177291 183.658983 
L 306.63278 183.746064 
L 310.088269 183.834098 
L 313.543759 183.922954 
L 316.999248 184.012509 
L 320.454737 184.10265 
L 323.910226 184.193274 
L 327.365715 184.284284 
L 330.821204 184.375589 
L 334.276694 184.467107 
L 337.732183 184.558762 
L 341.187672 184.650481 
L 344.643161 184.7422 
L 348.09865 184.833858 
L 351.554139 184.925399 
L 355.009628 185.016771 
L 358.465118 185.107926 
L 361.920607 185.198821 
L 365.376096 185.289415 
L 368.831585 185.379671 
L 372.287074 185.469555 
L 375.742563 185.559036 
L 379.198053 185.648084 
L 382.653542 185.736675 
L 386.109031 185.824784 
L 389.56452 185.91239 
" clip-path="url(#pd825753866)" style="fill: none; stroke-dasharray: 16,4,2.5,4; stroke-dashoffset: 0; stroke: #9bd93c; stroke-width: 2.5"/>
   </g>
   <g id="patch_3">
    <path d="M 47.471094 252.198426 
L 47.471094 26.877187 
" style="fill: none; stroke: #000000; stroke-linejoin: miter; stroke-linecap: square"/>
   </g>
   <g id="patch_4">
    <path d="M 389.56452 252.198426 
L 389.56452 26.877187 
" style="fill: none; stroke: #000000; stroke-linejoin: miter; stroke-linecap: square"/>
   </g>
   <g id="patch_5">
    <path d="M 47.471094 252.198426 
L 389.56452 252.198426 
" style="fill: none; stroke: #000000; stroke-linejoin: miter; stroke-linecap: square"/>
   </g>
   <g id="patch_6">
    <path d="M 47.471094 26.877187 
L 389.56452 26.877187 
" style="fill: none; stroke: #000000; stroke-linejoin: miter; stroke-linecap: square"/>
   </g>
   <g id="text_20">
    <text style="font-size: 18px; font-family: 'DejaVu Serif', 'Bitstream Vera Serif', 'Computer Modern Roman', 'New Century Schoolbook', 'Century Schoolbook L', 'Utopia', 'ITC Bookman', 'Bookman', 'Nimbus Roman No9 L', 'Times New Roman', 'Times', 'Palatino', 'Charter', serif; text-anchor: middle" x="218.517807" y="20.877187" transform="rotate(-0 218.517807 20.877187)">PETG, Molecular weight at 10 bar</text>
   </g>
   <g id="legend_1">
    <g id="line2d_38">
     <path d="M 296.26327 117.273979 
L 310.26327 117.273979 
L 324.26327 117.273979 
" style="fill: none; stroke: #463480; stroke-width: 2.5; stroke-linecap: square"/>
    </g>
    <g id="text_21">
     <text style="font-size: 14px; font-family: 'DejaVu Serif', 'Bitstream Vera Serif', 'Computer Modern Roman', 'New Century Schoolbook', 'Century Schoolbook L', 'Utopia', 'ITC Bookman', 'Bookman', 'Nimbus Roman No9 L', 'Times New Roman', 'Times', 'Palatino', 'Charter', serif; text-anchor: start" x="335.46327" y="122.173979" transform="rotate(-0 335.46327 122.173979)">N2O</text>
    </g>
    <g id="line2d_39">
     <path d="M 296.26327 138.275072 
L 310.26327 138.275072 
L 324.26327 138.275072 
" style="fill: none; stroke-dasharray: 9.25,4; stroke-dashoffset: 0; stroke: #1e9c89; stroke-width: 2.5"/>
    </g>
    <g id="text_22">
     <text style="font-size: 14px; font-family: 'DejaVu Serif', 'Bitstream Vera Serif', 'Computer Modern Roman', 'New Century Schoolbook', 'Century Schoolbook L', 'Utopia', 'ITC Bookman', 'Bookman', 'Nimbus Roman No9 L', 'Times New Roman', 'Times', 'Palatino', 'Charter', serif; text-anchor: start" x="335.46327" y="143.175072" transform="rotate(-0 335.46327 143.175072)">O2</text>
    </g>
    <g id="line2d_40">
     <path d="M 296.26327 159.276166 
L 310.26327 159.276166 
L 324.26327 159.276166 
" style="fill: none; stroke-dasharray: 16,4,2.5,4; stroke-dashoffset: 0; stroke: #9bd93c; stroke-width: 2.5"/>
    </g>
    <g id="text_23">
     <text style="font-size: 14px; font-family: 'DejaVu Serif', 'Bitstream Vera Serif', 'Computer Modern Roman', 'New Century Schoolbook', 'Century Schoolbook L', 'Utopia', 'ITC Bookman', 'Bookman', 'Nimbus Roman No9 L', 'Times New Roman', 'Times', 'Palatino', 'Charter', serif; text-anchor: start" x="335.46327" y="164.176166" transform="rotate(-0 335.46327 164.176166)">H2O2</text>
    </g>
   </g>
  </g>
 </g>
 <defs>
  <clipPath id="pd825753866">
   <rect x="47.471094" y="26.877187" width="342.093426" height="225.321239"/>
  </clipPath>
 </defs>
</svg>
