<?xml version="1.0" encoding="utf-8" standalone="no"?>
<!DOCTYPE svg PUBLIC "-//W3C//DTD SVG 1.1//EN"
  "http://www.w3.org/Graphics/SVG/1.1/DTD/svg11.dtd">
<svg xmlns:xlink="http://www.w3.org/1999/xlink" width="404.39952pt" height="296.39952pt" viewBox="0 0 404.39952 296.39952" xmlns="http://www.w3.org/2000/svg" version="1.1">
 <metadata>
  <rdf:RDF xmlns:dc="http://purl.org/dc/elements/1.1/" xmlns:cc="http://creativecommons.org/ns#" xmlns:rdf="http://www.w3.org/1999/02/22-rdf-syntax-ns#">
   <cc:Work>
    <dc:type rdf:resource="http://purl.org/dc/dcmitype/StillImage"/>
    <dc:date>2026-10-02T20:47:29.242798</dc:date>
    <dc:format>image/svg+xml</dc:format>
    <dc:creator>
     <cc:Agent>
      <dc:title>Matplotlib v3.11.1, https://matplotlib.org/</dc:title>
     </cc:Agent>
    </dc:creator>
   </cc:Work>
  </rdf:RDF>
 </metadata>
 <defs>
  <style type="text/css">*{stroke-linejoin: round; stroke-linecap: butt}</style>
 </defs>
 <g id="figure_1">
  <g id="patch_1">
   <path d="M 0 296.39952 
L 404.39952 296.39952 
L 404.39952 0 
L 0 0 
z
" style="fill: #ffffff"/>
  </g>
  <g id="axes_1">
   <g id="patch_2">
    <path d="M 55.805 252.198426 
L 387.657645 252.198426 
L 387.657645 26.877187 
L 55.805 26.877187 
z
" style="fill: #ffffff"/>
   </g>
   <g id="matplotlib.axis_1">
    <g id="xtick_1">
     <g id="line2d_1">
      <path d="M 55.805 252.198426 
L 55.805 26.877187 
" clip-path="url(#p2e4f9f6b17)" style="fill: none; stroke-dasharray: 0.5,0.825; stroke-dashoffset: 0; stroke: #b0b0b0; stroke-opacity: 0.6; stroke-width: 0.5"/>
     </g>
     <g id="line2d_2">
      <defs>
       <path id="mbb87b49b6b" d="M 0 0 
L 0 3.5 
" style="stroke: #000000; stroke-width: 0.8"/>
      </defs>
      <g>
       <use xlink:href="#mbb87b49b6b" x="55.805" y="252.198426" style="stroke: #000000; stroke-width: 0.8"/>
      </g>
     </g>
     <g id="text_1">
      <text style="font-size: 12px; font-family: 'DejaVu Serif', 'Bitstream Vera Serif', 'Computer Modern Roman', 'New Century Schoolbook', 'Century Schoolbook L', 'Utopia', 'ITC Bookman', 'Bookman', 'Nimbus Roman No9 L', 'Times New Roman', 'Times', 'Palatino', 'Charter', serif; text-anchor: middle" x="55.805" y="268.315614" transform="rotate(-0 55.805 268.315614)">0.5</text>
     </g>
    </g>
    <g id="xtick_2">
     <g id="line2d_3">
      <path d="M 92.677516 252.198426 
L 92.677516 26.877187 
" clip-path="url(#p2e4f9f6b17)" style="fill: none; stroke-dasharray: 0.5,0.825; stroke-dashoffset: 0; stroke: #b0b0b0; stroke-opacity: 0.6; stroke-width: 0.5"/>
     </g>
     <g id="line2d_4">
      <g>
       <use xlink:href="#mbb87b49b6b" x="92.677516" y="252.198426" style="stroke: #000000; stroke-width: 0.8"/>
      </g>
     </g>
     <g id="text_2">
      <text style="font-size: 12px; font-family: 'DejaVu Serif', 'Bitstream Vera Serif', 'Computer Modern Roman', 'New Century Schoolbook', 'Century Schoolbook L', 'Utopia', 'ITC Bookman', 'Bookman', 'Nimbus Roman No9 L', 'Times New Roman', 'Times', 'Palatino', 'Charter', serif; text-anchor: middle" x="92.677516" y="268.315614" transform="rotate(-0 92.677516 268.315614)">1.0</text>
     </g>
    </g>
    <g id="xtick_3">
     <g id="line2d_5">
      <path d="M 129.550032 252.198426 
L 129.550032 26.877187 
" clip-path="url(#p2e4f9f6b17)" style="fill: none; stroke-dasharray: 0.5,0.825; stroke-dashoffset: 0; stroke: #b0b0b0; stroke-opacity: 0.6; stroke-width: 0.5"/>
     </g>
     <g id="line2d_6">
      <g>
       <use xlink:href="#mbb87b49b6b" x="129.550032" y="252.198426" style="stroke: #000000; stroke-width: 0.8"/>
      </g>
     </g>
     <g id="text_3">
      <text style="font-size: 12px; font-family: 'DejaVu Serif', 'Bitstream Vera Serif', 'Computer Modern Roman', 'New Century Schoolbook', 'Century Schoolbook L', 'Utopia', 'ITC Bookman', 'Bookman', 'Nimbus Roman No9 L', 'Times New Roman', 'Times', 'Palatino', 'Charter', serif; text-anchor: middle" x="129.550032" y="268.315614" transform="rotate(-0 129.550032 268.315614)">1.5</text>
     </g>
    </g>
    <g id="xtick_4">
     <g id="line2d_7">
      <path d="M 166.422548 252.198426 
L 166.422548 26.877187 
" clip-path="url(#p2e4f9f6b17)" style="fill: none; stroke-dasharray: 0.5,0.825; stroke-dashoffset: 0; stroke: #b0b0b0; stroke-opacity: 0.6; stroke-width: 0.5"/>
     </g>
     <g id="line2d_8">
      <g>
       <use xlink:href="#mbb87b49b6b" x="166.422548" y="252.198426" style="stroke: #000000; stroke-width: 0.8"/>
      </g>
     </g>
     <g id="text_4">
      <text style="font-size: 12px; font-family: 'DejaVu Serif', 'Bitstream Vera Serif', 'Computer Modern Roman', 'New Century Schoolbook', 'Century Schoolbook L', 'Utopia', 'ITC Bookman', 'Bookman', 'Nimbus Roman No9 L', 'Times New Roman', 'Times', 'Palatino', 'Charter', serif; text-anchor: middle" x="166.422548" y="268.315614" transform="rotate(-0 166.422548 268.315614)">2.0</text>
     </g>
    </g>
    <g id="xtick_5">
     <g id="line2d_9">
      <path d="M 203.295064 252.198426 
L 203.295064 26.877187 
" clip-path="url(#p2e4f9f6b17)" style="fill: none; stroke-dasharray: 0.5,0.825; stroke-dashoffset: 0; stroke: #b0b0b0; stroke-opacity: 0.6; stroke-width: 0.5"/>
     </g>
     <g id="line2d_10">
      <g>
       <use xlink:href="#mbb87b49b6b" x="203.295064" y="252.198426" style="stroke: #000000; stroke-width: 0.8"/>
      </g>
     </g>
     <g id="text_5">
      <text style="font-size: 12px; font-family: 'DejaVu Serif', 'Bitstream Vera Serif', 'Computer Modern Roman', 'New Century Schoolbook', 'Century Schoolbook L', 'Utopia', 'ITC Bookman', 'Bookman', 'Nimbus Roman No9 L', 'Times New Roman', 'Times', 'Palatino', 'Charter', serif; text-anchor: middle" x="203.295064" y="268.315614" transform="rotate(-0 203.295064 268.315614)">2.5</text>
     </g>
    </g>
    <g id="xtick_6">
     <g id="line2d_11">
      <path d="M 240.167581 252.198426 
L 240.167581 26.877187 
" clip-path="url(#p2e4f9f6b17)" style="fill: none; stroke-dasharray: 0.5,0.825; stroke-dashoffset: 0; stroke: #b0b0b0; stroke-opacity: 0.6; stroke-width: 0.5"/>
     </g>
     <g id="line2d_12">
      <g>
       <use xlink:href="#mbb87b49b6b" x="240.167581" y="252.198426" style="stroke: #000000; stroke-width: 0.8"/>
      </g>
     </g>
     <g id="text_6">
      <text style="font-size: 12px; font-family: 'DejaVu Serif', 'Bitstream Vera Serif', 'Computer Modern Roman', 'New Century Schoolbook', 'Century Schoolbook L', 'Utopia', 'ITC Bookman', 'Bookman', 'Nimbus Roman No9 L', 'Times New Roman', 'Times', 'Palatino', 'Charter', serif; text-anchor: middle" x="240.167581" y="268.315614" transform="rotate(-0 240.167581 268.315614)">3.0</text>
     </g>
    </g>
    <g id="xtick_7">
     <g id="line2d_13">
      <path d="M 277.040097 252.198426 
L 277.040097 26.877187 
" clip-path="url(#p2e4f9f6b17)" style="fill: none; stroke-dasharray: 0.5,0.825; stroke-dashoffset: 0; stroke: #b0b0b0; stroke-opacity: 0.6; stroke-width: 0.5"/>
     </g>
     <g id="line2d_14">
      <g>
       <use xlink:href="#mbb87b49b6b" x="277.040097" y="252.198426" style="stroke: #000000; stroke-width: 0.8"/>
      </g>
     </g>
     <g id="text_7">
      <text style="font-size: 12px; font-family: 'DejaVu Serif', 'Bitstream Vera Serif', 'Computer Modern Roman', 'New Century Schoolbook', 'Century Schoolbook L', 'Utopia', 'ITC Bookman', 'Bookman', 'Nimbus Roman No9 L', 'Times New Roman', 'Times', 'Palatino', 'Charter', serif; text-anchor: middle" x="277.040097" y="268.315614" transform="rotate(-0 277.040097 268.315614)">3.5</text>
     </g>
    </g>
    <g id="xtick_8">
     <g id="line2d_15">
      <path d="M 313.912613 252.198426 
L 313.912613 26.877187 
" clip-path="url(#p2e4f9f6b17)" style="fill: none; stroke-dasharray: 0.5,0.825; stroke-dashoffset: 0; stroke: #b0b0b0; stroke-opacity: 0.6; stroke-width: 0.5"/>
     </g>
     <g id="line2d_16">
      <g>
       <use xlink:href="#mbb87b49b6b" x="313.912613" y="252.198426" style="stroke: #000000; stroke-width: 0.8"/>
      </g>
     </g>
     <g id="text_8">
      <text style="font-size: 12px; font-family: 'DejaVu Serif', 'Bitstream Vera Serif', 'Computer Modern Roman', 'New Century Schoolbook', 'Century Schoolbook L', 'Utopia', 'ITC Bookman', 'Bookman', 'Nimbus Roman No9 L', 'Times New Roman', 'Times', 'Palatino', 'Charter', serif; text-anchor: middle" x="313.912613" y="268.315614" transform="rotate(-0 313.912613 268.315614)">4.0</text>
     </g>
    </g>
    <g id="xtick_9">
     <g id="line2d_17">
      <path d="M 350.785129 252.198426 
L 350.785129 26.877187 
" clip-path="url(#p2e4f9f6b17)" style="fill: none; stroke-dasharray: 0.5,0.825; stroke-dashoffset: 0; stroke: #b0b0b0; stroke-opacity: 0.6; stroke-width: 0.5"/>
     </g>
     <g id="line2d_18">
      <g>
       <use xlink:href="#mbb87b49b6b" x="350.785129" y="252.198426" style="stroke: #000000; stroke-width: 0.8"/>
      </g>
     </g>
     <g id="text_9">
      <text style="font-size: 12px; font-family: 'DejaVu Serif', 'Bitstream Vera Serif', 'Computer Modern Roman', 'New Century Schoolbook', 'Century Schoolbook L', 'Utopia', 'ITC Bookman', 'Bookman', 'Nimbus Roman No9 L', 'Times New Roman', 'Times', 'Palatino', 'Charter', serif; text-anchor: middle" x="350.785129" y="268.315614" transform="rotate(-0 350.785129 268.315614)">4.5</text>
     </g>
    </g>
    <g id="xtick_10">
     <g id="line2d_19">
      <path d="M 387.657645 252.198426 
L 387.657645 26.877187 
" clip-path="url(#p2e4f9f6b17)" style="fill: none; stroke-dasharray: 0.5,0.825; stroke-dashoffset: 0; stroke: #b0b0b0; stroke-opacity: 0.6; stroke-width: 0.5"/>
     </g>
     <g id="line2d_20">
      <g>
       <use xlink:href="#mbb87b49b6b" x="387.657645" y="252.198426" style="stroke: #000000; stroke-width: 0.8"/>
      </g>
     </g>
     <g id="text_10">
      <text style="font-size: 12px; font-family: 'DejaVu Serif', 'Bitstream Vera Serif', 'Computer Modern Roman', 'New Century Schoolbook', 'Century Schoolbook L', 'Utopia', 'ITC Bookman', 'Bookman', 'Nimbus Roman No9 L', 'Times New Roman', 'Times', 'Palatino', 'Charter', serif; text-anchor: middle" x="387.657645" y="268.315614" transform="rotate(-0 387.657645 268.315614)">5.0</text>
     </g>
    </g>
    <g id="text_11">
     <text style="font-size: 14px; font-family: 'DejaVu Serif', 'Bitstream Vera Serif', 'Computer Modern Roman', 'New Century Schoolbook', 'Century Schoolbook L', 'Utopia', 'ITC Bookman', 'Bookman', 'Nimbus Roman No9 L', 'Times New Roman', 'Times', 'Palatino', 'Charter', serif; text-anchor: middle" x="221.731322" y="285.836239" transform="rotate(-0 221.731322 285.836239)">O/F ratio (-)</text>
    </g>
   </g>
   <g id="matplotlib.axis_2">
    <g id="ytick_1">
     <g id="line2d_21">
      <path d="M 55.805 238.145353 
L 387.657645 238.145353 
" clip-path="url(#p2e4f9f6b17)" style="fill: none; stroke-dasharray: 0.5,0.825; stroke-dashoffset: 0; stroke: #b0b0b0; stroke-opacity: 0.6; stroke-width: 0.5"/>
     </g>
     <g id="line2d_22">
      <defs>
       <path id="m99e00bb959" d="M 0 0 
L -3.5 0 
" style="stroke: #000000; stroke-width: 0.8"/>
      </defs>
      <g>
       <use xlink:href="#m99e00bb959" x="55.805" y="238.145353" style="stroke: #000000; stroke-width: 0.8"/>
      </g>
     </g>
     <g id="text_12">
      <text style="font-size: 12px; font-family: 'DejaVu Serif', 'Bitstream Vera Serif', 'Computer Modern Roman', 'New Century Schoolbook', 'Century Schoolbook L', 'Utopia', 'ITC Bookman', 'Bookman', 'Nimbus Roman No9 L', 'Times New Roman', 'Times', 'Palatino', 'Charter', serif; text-anchor: end" x="48.805" y="242.703947" transform="rotate(-0 48.805 242.703947)">120</text>
     </g>
    </g>
    <g id="ytick_2">
     <g id="line2d_23">
      <path d="M 55.805 208.842685 
L 387.657645 208.842685 
" clip-path="url(#p2e4f9f6b17)" style="fill: none; stroke-dasharray: 0.5,0.825; stroke-dashoffset: 0; stroke: #b0b0b0; stroke-opacity: 0.6; stroke-width: 0.5"/>
     </g>
     <g id="line2d_24">
      <g>
       <use xlink:href="#m99e00bb959" x="55.805" y="208.842685" style="stroke: #000000; stroke-width: 0.8"/>
      </g>
     </g>
     <g id="text_13">
      <text style="font-size: 12px; font-family: 'DejaVu Serif', 'Bitstream Vera Serif', 'Computer Modern Roman', 'New Century Schoolbook', 'Century Schoolbook L', 'Utopia', 'ITC Bookman', 'Bookman', 'Nimbus Roman No9 L', 'Times New Roman', 'Times', 'Palatino', 'Charter', serif; text-anchor: end" x="48.805" y="213.401279" transform="rotate(-0 48.805 213.401279)">140</text>
     </g>
    </g>
    <g id="ytick_3">
     <g id="line2d_25">
      <path d="M 55.805 179.540018 
L 387.657645 179.540018 
" clip-path="url(#p2e4f9f6b17)" style="fill: none; stroke-dasharray: 0.5,0.825; stroke-dashoffset: 0; stroke: #b0b0b0; stroke-opacity: 0.6; stroke-width: 0.5"/>
     </g>
     <g id="line2d_26">
      <g>
       <use xlink:href="#m99e00bb959" x="55.805" y="179.540018" style="stroke: #000000; stroke-width: 0.8"/>
      </g>
     </g>
     <g id="text_14">
      <text style="font-size: 12px; font-family: 'DejaVu Serif', 'Bitstream Vera Serif', 'Computer Modern Roman', 'New Century Schoolbook', 'Century Schoolbook L', 'Utopia', 'ITC Bookman', 'Bookman', 'Nimbus Roman No9 L', 'Times New Roman', 'Times', 'Palatino', 'Charter', serif; text-anchor: end" x="48.805" y="184.098612" transform="rotate(-0 48.805 184.098612)">160</text>
     </g>
    </g>
    <g id="ytick_4">
     <g id="line2d_27">
      <path d="M 55.805 150.23735 
L 387.657645 150.23735 
" clip-path="url(#p2e4f9f6b17)" style="fill: none; stroke-dasharray: 0.5,0.825; stroke-dashoffset: 0; stroke: #b0b0b0; stroke-opacity: 0.6; stroke-width: 0.5"/>
     </g>
     <g id="line2d_28">
      <g>
       <use xlink:href="#m99e00bb959" x="55.805" y="150.23735" style="stroke: #000000; stroke-width: 0.8"/>
      </g>
     </g>
     <g id="text_15">
      <text style="font-size: 12px; font-family: 'DejaVu Serif', 'Bitstream Vera Serif', 'Computer Modern Roman', 'New Century Schoolbook', 'Century Schoolbook L', 'Utopia', 'ITC Bookman', 'Bookman', 'Nimbus Roman No9 L', 'Times New Roman', 'Times', 'Palatino', 'Charter', serif; text-anchor: end" x="48.805" y="154.795944" transform="rotate(-0 48.805 154.795944)">180</text>
     </g>
    </g>
    <g id="ytick_5">
     <g id="line2d_29">
      <path d="M 55.805 120.934682 
L 387.657645 120.934682 
" clip-path="url(#p2e4f9f6b17)" style="fill: none; stroke-dasharray: 0.5,0.825; stroke-dashoffset: 0; stroke: #b0b0b0; stroke-opacity: 0.6; stroke-width: 0.5"/>
     </g>
     <g id="line2d_30">
      <g>
       <use xlink:href="#m99e00bb959" x="55.805" y="120.934682" style="stroke: #000000; stroke-width: 0.8"/>
      </g>
     </g>
     <g id="text_16">
      <text style="font-size: 12px; font-family: 'DejaVu Serif', 'Bitstream Vera Serif', 'Computer Modern Roman', 'New Century Schoolbook', 'Century Schoolbook L', 'Utopia', 'ITC Bookman', 'Bookman', 'Nimbus Roman No9 L', 'Times New Roman', 'Times', 'Palatino', 'Charter', serif; text-anchor: end" x="48.805" y="125.493276" transform="rotate(-0 48.805 125.493276)">200</text>
     </g>
    </g>
    <g id="ytick_6">
     <g id="line2d_31">
      <path d="M 55.805 91.632015 
L 387.657645 91.632015 
" clip-path="url(#p2e4f9f6b17)" style="fill: none; stroke-dasharray: 0.5,0.825; stroke-dashoffset: 0; stroke: #b0b0b0; stroke-opacity: 0.6; stroke-width: 0.5"/>
     </g>
     <g id="line2d_32">
      <g>
       <use xlink:href="#m99e00bb959" x="55.805" y="91.632015" style="stroke: #000000; stroke-width: 0.8"/>
      </g>
     </g>
     <g id="text_17">
      <text style="font-size: 12px; font-family: 'DejaVu Serif', 'Bitstream Vera Serif', 'Computer Modern Roman', 'New Century Schoolbook', 'Century Schoolbook L', 'Utopia', 'ITC Bookman', 'Bookman', 'Nimbus Roman No9 L', 'Times New Roman', 'Times', 'Palatino', 'Charter', serif; text-anchor: end" x="48.805" y="96.190608" transform="rotate(-0 48.805 96.190608)">220</text>
     </g>
    </g>
    <g id="ytick_7">
     <g id="line2d_33">
      <path d="M 55.805 62.329347 
L 387.657645 62.329347 
" clip-path="url(#p2e4f9f6b17)" style="fill: none; stroke-dasharray: 0.5,0.825; stroke-dashoffset: 0; stroke: #b0b0b0; stroke-opacity: 0.6; stroke-width: 0.5"/>
     </g>
     <g id="line2d_34">
      <g>
       <use xlink:href="#m99e00bb959" x="55.805" y="62.329347" style="stroke: #000000; stroke-width: 0.8"/>
      </g>
     </g>
     <g id="text_18">
      <text style="font-size: 12px; font-family: 'DejaVu Serif', 'Bitstream Vera Serif', 'Computer Modern Roman', 'New Century Schoolbook', 'Century Schoolbook L', 'Utopia', 'ITC Bookman', 'Bookman', 'Nimbus Roman No9 L', 'Times New Roman', 'Times', 'Palatino', 'Charter', serif; text-anchor: end" x="48.805" y="66.887941" transform="rotate(-0 48.805 66.887941)">240</text>
     </g>
    </g>
    <g id="ytick_8">
     <g id="line2d_35">
      <path d="M 55.805 33.026679 
L 387.657645 33.026679 
" clip-path="url(#p2e4f9f6b17)" style="fill: none; stroke-dasharray: 0.5,0.825; stroke-dashoffset: 0; stroke: #b0b0b0; stroke-opacity: 0.6; stroke-width: 0.5"/>
     </g>
     <g id="line2d_36">
      <g>
       <use xlink:href="#m99e00bb959" x="55.805" y="33.026679" style="stroke: #000000; stroke-width: 0.8"/>
      </g>
     </g>
     <g id="text_19">
      <text style="font-size: 12px; font-family: 'DejaVu Serif', 'Bitstream Vera Serif', 'Computer Modern Roman', 'New Century Schoolbook', 'Century Schoolbook L', 'Utopia', 'ITC Bookman', 'Bookman', 'Nimbus Roman No9 L', 'Times New Roman', 'Times', 'Palatino', 'Charter', serif; text-anchor: end" x="48.805" y="37.585273" transform="rotate(-0 48.805 37.585273)">260</text>
     </g>
    </g>
    <g id="text_20">
     <!-- Specific Impulse, $I_{sp}$ (s) -->
     <g transform="translate(17.84 222.417807) rotate(-90)">
      <text>
       <tspan x="0" y="-0.359375" style="font-size: 14px; font-family: 'DejaVu Serif'">S</tspan>
       <tspan x="9.59082" y="-0.359375" style="font-size: 14px; font-family: 'DejaVu Serif'">p</tspan>
       <tspan x="18.552734" y="-0.359375" style="font-size: 14px; font-family: 'DejaVu Serif'">e</tspan>
       <tspan x="26.837891" y="-0.359375" style="font-size: 14px; font-family: 'DejaVu Serif'">c</tspan>
       <tspan x="34.678711" y="-0.359375" style="font-size: 14px; font-family: 'DejaVu Serif'">i</tspan>
       <tspan x="39.15625" y="-0.359375" style="font-size: 14px; font-family: 'DejaVu Serif'">f</tspan>
       <tspan x="44.337891" y="-0.359375" style="font-size: 14px; font-family: 'DejaVu Serif'">i</tspan>
       <tspan x="48.81543" y="-0.359375" style="font-size: 14px; font-family: 'DejaVu Serif'">c</tspan>
       <tspan x="56.65625" y="-0.359375" style="font-size: 14px; font-family: 'DejaVu Serif'"> </tspan>
       <tspan x="61.106445" y="-0.359375" style="font-size: 14px; font-family: 'DejaVu Serif'">I</tspan>
       <tspan x="66.636719" y="-0.359375" style="font-size: 14px; font-family: 'DejaVu Serif'">m</tspan>
       <tspan x="79.912109" y="-0.359375" style="font-size: 14px; font-family: 'DejaVu Serif'">p</tspan>
       <tspan x="88.874023" y="-0.359375" style="font-size: 14px; font-family: 'DejaVu Serif'">u</tspan>
       <tspan x="97.890625" y="-0.359375" style="font-size: 14px; font-family: 'DejaVu Serif'">l</tspan>
       <tspan x="102.368164" y="-0.359375" style="font-size: 14px; font-family: 'DejaVu Serif'">s</tspan>
       <tspan x="109.552734" y="-0.359375" style="font-size: 14px; font-family: 'DejaVu Serif'">e</tspan>
       <tspan x="117.837891" y="-0.359375" style="font-size: 14px; font-family: 'DejaVu Serif'">,</tspan>
       <tspan x="122.288086" y="-0.359375" style="font-size: 14px; font-family: 'DejaVu Serif'"> </tspan>
       <tspan x="143.197538" y="-0.359375" style="font-size: 14px; font-family: 'DejaVu Serif'"> </tspan>
       <tspan x="147.647733" y="-0.359375" style="font-size: 14px; font-family: 'DejaVu Serif'">(</tspan>
       <tspan x="153.109647" y="-0.359375" style="font-size: 14px; font-family: 'DejaVu Serif'">s</tspan>
       <tspan x="160.294218" y="-0.359375" style="font-size: 14px; font-family: 'DejaVu Serif'">)</tspan>
       <tspan x="126.738281" y="-0.359375" style="font-size: 14px; font-family: 'cmmi10'">I</tspan>
       <tspan x="132.883789" y="1.74062" style="font-size: 9.8px; font-family: 'cmmi10'">s</tspan>
       <tspan x="137.467969" y="1.74062" style="font-size: 9.8px; font-family: 'cmmi10'">p</tspan>
      </text>
     </g>
    </g>
   </g>
   <g id="line2d_37">
    <path d="M 55.805 212.155763 
L 59.157047 195.237564 
L 62.509094 180.421674 
L 65.861141 168.726171 
L 69.213188 158.972047 
L 72.565235 150.359273 
L 75.917282 142.397697 
L 79.269328 134.726331 
L 82.621375 127.019077 
L 85.973422 118.963481 
L 89.325469 110.342908 
L 92.677516 101.207759 
L 96.029563 91.895566 
L 99.38161 82.786028 
L 102.733657 74.109835 
L 106.085704 66.660806 
L 109.437751 60.94935 
L 112.789798 56.040317 
L 116.141845 51.846793 
L 119.493891 48.296987 
L 122.845938 45.331275 
L 126.197985 42.900109 
L 129.550032 40.960272 
L 132.902079 39.470495 
L 136.254126 38.387979 
L 139.606173 37.667016 
L 142.95822 37.259873 
L 146.310267 37.119062 
L 149.662314 37.199798 
L 153.014361 37.4618 
L 156.366408 37.87017 
L 159.718454 38.395497 
L 163.070501 39.013461 
L 166.422548 39.704202 
L 169.774595 40.451617 
L 173.126642 41.24271 
L 176.478689 42.067005 
L 179.830736 42.91606 
L 183.182783 43.783067 
L 186.53483 44.662533 
L 189.886877 45.550017 
L 193.238924 46.441925 
L 196.590971 47.33535 
L 199.943018 48.227937 
L 203.295064 49.117782 
L 206.647111 50.003346 
L 209.999158 50.883391 
L 213.351205 51.756923 
L 216.703252 52.623152 
L 220.055299 53.481454 
L 223.407346 54.33134 
L 226.759393 55.172439 
L 230.11144 56.004472 
L 233.463487 56.827239 
L 236.815534 57.640604 
L 240.167581 58.444487 
L 243.519627 59.238853 
L 246.871674 60.023704 
L 250.223721 60.799071 
L 253.575768 61.565013 
L 256.927815 62.321611 
L 260.279862 63.06896 
L 263.631909 63.807173 
L 266.983956 64.53637 
L 270.336003 65.256685 
L 273.68805 65.968256 
L 277.040097 66.671228 
L 280.392144 67.36575 
L 283.744191 68.051973 
L 287.096237 68.730051 
L 290.448284 69.400141 
L 293.800331 70.062397 
L 297.152378 70.716975 
L 300.504425 71.364031 
L 303.856472 72.003718 
L 307.208519 72.63619 
L 310.560566 73.261599 
L 313.912613 73.880093 
L 317.26466 74.491819 
L 320.616707 75.096924 
L 323.968754 75.695549 
L 327.3208 76.287837 
L 330.672847 76.873923 
L 334.024894 77.453944 
L 337.376941 78.028032 
L 340.728988 78.596319 
L 344.081035 79.15893 
L 347.433082 79.715991 
L 350.785129 80.267625 
L 354.137176 80.813951 
L 357.489223 81.355086 
L 360.84127 81.891144 
L 364.193317 82.422238 
L 367.545363 82.948478 
L 370.89741 83.469969 
L 374.249457 83.986817 
L 377.601504 84.499125 
L 380.953551 85.006991 
L 384.305598 85.510514 
L 387.657645 86.00979 
" clip-path="url(#p2e4f9f6b17)" style="fill: none; stroke: #463480; stroke-width: 2.5; stroke-linecap: square"/>
   </g>
   <g id="line2d_38">
    <path d="M 55.805 239.044165 
L 59.157047 229.519156 
L 62.509094 221.778939 
L 65.861141 214.759141 
L 69.213188 207.951435 
L 72.565235 200.52999 
L 75.917282 189.514087 
L 79.269328 173.828395 
L 82.621375 159.353749 
L 85.973422 146.648297 
L 89.325469 135.491789 
L 92.677516 125.709691 
L 96.029563 117.20155 
L 99.38161 109.947495 
L 102.733657 104.006067 
L 106.085704 99.46487 
L 109.437751 96.305461 
L 112.789798 94.314621 
L 116.141845 93.182067 
L 119.493891 92.634683 
L 122.845938 92.479218 
L 126.197985 92.589084 
L 129.550032 92.882285 
L 132.902079 93.304883 
L 136.254126 93.820528 
L 139.606173 94.404094 
L 142.95822 95.037795 
L 146.310267 95.708773 
L 149.662314 96.407563 
L 153.014361 97.127088 
L 156.366408 97.861983 
L 159.718454 98.608143 
L 163.070501 99.362394 
L 166.422548 100.122267 
L 169.774595 100.885831 
L 173.126642 101.651569 
L 176.478689 102.41829 
L 179.830736 103.185056 
L 183.182783 103.951133 
L 186.53483 104.715945 
L 189.886877 105.479048 
L 193.238924 106.2401 
L 196.590971 106.998843 
L 199.943018 107.755087 
L 203.295064 108.508696 
L 206.647111 109.25958 
L 209.999158 110.007683 
L 213.351205 110.752979 
L 216.703252 111.495466 
L 220.055299 112.235159 
L 223.407346 112.972088 
L 226.759393 113.706295 
L 230.11144 114.437828 
L 233.463487 115.166743 
L 236.815534 115.893101 
L 240.167581 116.616964 
L 243.519627 117.338395 
L 246.871674 118.05746 
L 250.223721 118.77422 
L 253.575768 119.488736 
L 256.927815 120.201068 
L 260.279862 120.91127 
L 263.631909 121.619396 
L 266.983956 122.325494 
L 270.336003 123.029608 
L 273.68805 123.731777 
L 277.040097 124.432038 
L 280.392144 125.130421 
L 283.744191 125.826952 
L 287.096237 126.521651 
L 290.448284 127.214535 
L 293.800331 127.905616 
L 297.152378 128.5949 
L 300.504425 129.28239 
L 303.856472 129.968082 
L 307.208519 130.65197 
L 310.560566 131.334044 
L 313.912613 132.014288 
L 317.26466 132.692684 
L 320.616707 133.36921 
L 323.968754 134.043839 
L 327.3208 134.716543 
L 330.672847 135.387291 
L 334.024894 136.056047 
L 337.376941 136.722776 
L 340.728988 137.387439 
L 344.081035 138.049995 
L 347.433082 138.710402 
L 350.785129 139.368616 
L 354.137176 140.024592 
L 357.489223 140.678286 
L 360.84127 141.32965 
L 364.193317 141.978639 
L 367.545363 142.625205 
L 370.89741 143.269302 
L 374.249457 143.910884 
L 377.601504 144.549904 
L 380.953551 145.186316 
L 384.305598 145.820077 
L 387.657645 146.451142 
" clip-path="url(#p2e4f9f6b17)" style="fill: none; stroke-dasharray: 9.25,4; stroke-dashoffset: 0; stroke: #1e9c89; stroke-width: 2.5"/>
   </g>
   <g id="line2d_39">
    <path d="M 55.805 241.956552 
L 59.157047 235.710513 
L 62.509094 219.259984 
L 65.861141 209.854323 
L 69.213188 202.200277 
L 72.565235 194.946939 
L 75.917282 186.662974 
L 79.269328 173.46376 
L 82.621375 157.638611 
L 85.973422 143.729279 
L 89.325469 131.642889 
L 92.677516 121.09908 
L 96.029563 111.918135 
L 99.38161 103.996498 
L 102.733657 97.285673 
L 106.085704 91.772598 
L 109.437751 87.446181 
L 112.789798 84.245152 
L 116.141845 82.025914 
L 119.493891 80.589828 
L 122.845938 79.739179 
L 126.197985 79.312007 
L 129.550032 79.188376 
L 132.902079 79.283175 
L 136.254126 79.536636 
L 139.606173 79.90656 
L 142.95822 80.362779 
L 146.310267 80.883399 
L 149.662314 81.452288 
L 153.014361 82.05739 
L 156.366408 82.689577 
L 159.718454 83.341855 
L 163.070501 84.008818 
L 166.422548 84.686247 
L 169.774595 85.370828 
L 173.126642 86.059942 
L 176.478689 86.751514 
L 179.830736 87.443891 
L 183.182783 88.135758 
L 186.53483 88.826065 
L 189.886877 89.513979 
L 193.238924 90.19884 
L 196.590971 90.880129 
L 199.943018 91.557441 
L 203.295064 92.230466 
L 206.647111 92.898969 
L 209.999158 93.56278 
L 213.351205 94.221782 
L 216.703252 94.875899 
L 220.055299 95.525092 
L 223.407346 96.169352 
L 226.759393 96.808693 
L 230.11144 97.44315 
L 233.463487 98.072775 
L 236.815534 98.697632 
L 240.167581 99.317798 
L 243.519627 99.933358 
L 246.871674 100.544402 
L 250.223721 101.15103 
L 253.575768 101.753344 
L 256.927815 102.351447 
L 260.279862 102.945449 
L 263.631909 103.535459 
L 266.983956 104.121587 
L 270.336003 104.703944 
L 273.68805 105.282641 
L 277.040097 105.857787 
L 280.392144 106.429492 
L 283.744191 106.997865 
L 287.096237 107.563013 
L 290.448284 108.12504 
L 293.800331 108.684051 
L 297.152378 109.240148 
L 300.504425 109.79343 
L 303.856472 110.343995 
L 307.208519 110.891939 
L 310.560566 111.437354 
L 313.912613 111.980333 
L 317.26466 112.520964 
L 320.616707 113.059333 
L 323.968754 113.595523 
L 327.3208 114.129617 
L 330.672847 114.661694 
L 334.024894 115.191829 
L 337.376941 115.720097 
L 340.728988 116.246569 
L 344.081035 116.771314 
L 347.433082 117.294398 
L 350.785129 117.815887 
L 354.137176 118.33584 
L 357.489223 118.854318 
L 360.84127 119.371376 
L 364.193317 119.887069 
L 367.545363 120.401448 
L 370.89741 120.914563 
L 374.249457 121.426459 
L 377.601504 121.937182 
L 380.953551 122.446773 
L 384.305598 122.955272 
L 387.657645 123.462716 
" clip-path="url(#p2e4f9f6b17)" style="fill: none; stroke-dasharray: 16,4,2.5,4; stroke-dashoffset: 0; stroke: #9bd93c; stroke-width: 2.5"/>
   </g>
   <g id="patch_3">
    <path d="M 55.805 252.198426 
L 55.805 26.877187 
" style="fill: none; stroke: #000000; stroke-linejoin: miter; stroke-linecap: square"/>
   </g>
   <g id="patch_4">
    <path d="M 387.657645 252.198426 
L 387.657645 26.877187 
" style="fill: none; stroke: #000000; stroke-linejoin: miter; stroke-linecap: square"/>
   </g>
   <g id="patch_5">
    <path d="M 55.805 252.198426 
L 387.657645 252.198426 
" style="fill: none; stroke: #000000; stroke-linejoin: miter; stroke-linecap: square"/>
   </g>
   <g id="patch_6">
    <path d="M 55.805 26.877187 
L 387.657645 26.877187 
" style="fill: none; stroke: #000000; stroke-linejoin: miter; stroke-linecap: square"/>
   </g>
   <g id="text_21">
    <text style="font-size: 18px; font-family: 'DejaVu Serif', 'Bitstream Vera Serif', 'Computer Modern Roman', 'New Century Schoolbook', 'Century Schoolbook L', 'Utopia', 'ITC Bookman', 'Bookman', 'Nimbus Roman No9 L', 'Times New Roman', 'Times', 'Palatino', 'Charter', serif; text-anchor: middle" x="221.731322" y="20.877187" transform="rotate(-0 221.731322 20.877187)">O2, Isp at 30 bar</text>
   </g>
   <g id="legend_1">
    <g id="line2d_40">
     <path d="M 295.695145 189.332957 
L 309.695145 189.332957 
L 323.695145 189.332957 
" style="fill: none; stroke: #463480; stroke-width: 2.5; stroke-linecap: square"/>
    </g>
    <g id="text_22">
     <text style="font-size: 14px; font-family: 'DejaVu Serif', 'Bitstream Vera Serif', 'Computer Modern Roman', 'New Century Schoolbook', 'Century Schoolbook L', 'Utopia', 'ITC Bookman', 'Bookman', 'Nimbus Roman No9 L', 'Times New Roman', 'Times', 'Palatino', 'Charter', serif; text-anchor: start" x="334.895145" y="194.232957" transform="rotate(-0 334.895145 194.232957)">ABS</text>
    </g>
    <g id="line2d_41">
     <path d="M 295.695145 210.334051 
L 309.695145 210.334051 
L 323.695145 210.334051 
" style="fill: none; stroke-dasharray: 9.25,4; stroke-dashoffset: 0; stroke: #1e9c89; stroke-width: 2.5"/>
    </g>
    <g id="text_23">
     <text style="font-size: 14px; font-family: 'DejaVu Serif', 'Bitstream Vera Serif', 'Computer Modern Roman', 'New Century Schoolbook', 'Century Schoolbook L', 'Utopia', 'ITC Bookman', 'Bookman', 'Nimbus Roman No9 L', 'Times New Roman', 'Times', 'Palatino', 'Charter', serif; text-anchor: start" x="334.895145" y="215.234051" transform="rotate(-0 334.895145 215.234051)">PETG</text>
    </g>
    <g id="line2d_42">
     <path d="M 295.695145 231.335145 
L 309.695145 231.335145 
L 323.695145 231.335145 
" style="fill: none; stroke-dasharray: 16,4,2.5,4; stroke-dashoffset: 0; stroke: #9bd93c; stroke-width: 2.5"/>
    </g>
    <g id="text_24">
     <text style="font-size: 14px; font-family: 'DejaVu Serif', 'Bitstream Vera Serif', 'Computer Modern Roman', 'New Century Schoolbook', 'Century Schoolbook L', 'Utopia', 'ITC Bookman', 'Bookman', 'Nimbus Roman No9 L', 'Times New Roman', 'Times', 'Palatino', 'Charter', serif; text-anchor: start" x="334.895145" y="236.235145" transform="rotate(-0 334.895145 236.235145)">PLA</text>
    </g>
   </g>
  </g>
 </g>
 <defs>
  <clipPath id="p2e4f9f6b17">
   <rect x="55.805" y="26.877187" width="331.852645" height="225.321239"/>
  </clipPath>
 </defs>
</svg>
