<?xml version="1.0" encoding="utf-8" standalone="no"?>
<!DOCTYPE svg PUBLIC "-//W3C//DTD SVG 1.1//EN"
  "http://www.w3.org/Graphics/SVG/1.1/DTD/svg11.dtd">
<svg xmlns:xlink="http://www.w3.org/1999/xlink" width="404.39952pt" height="296.39952pt" viewBox="0 0 404.39952 296.39952" xmlns="http://www.w3.org/2000/svg" version="1.1">
 <metadata>
  <rdf:RDF xmlns:dc="http://purl.org/dc/elements/1.1/" xmlns:cc="http://creativecommons.org/ns#" xmlns:rdf="http://www.w3.org/1999/02/22-rdf-syntax-ns#">
   <cc:Work>
    <dc:type rdf:resource="http://purl.org/dc/dcmitype/StillImage"/>
    <dc:date>2026-10-02T20:47:51.229892</dc:date>
    <dc:format>image/svg+xml</dc:format>
    <dc:creator>
     <cc:Agent>
      <dc:title>Matplotlib v3.11.1, https://matplotlib.org/</dc:title>
     </cc:Agent>
    </dc:creator>
   </cc:Work>
  </rdf:RDF>
 </metadata>
 <defs>
  <style type="text/css">*{stroke-linejoin: round; stroke-linecap: butt}</style>
 </defs>
 <g id="figure_1">
  <g id="patch_1">
   <path d="M 0 296.39952 
L 404.39952 296.39952 
L 404.39952 0 
L 0 0 
z
" style="fill: #ffffff"/>
  </g>
  <g id="axes_1">
   <g id="patch_2">
    <path d="M 62.741094 252.198426 
L 389.56452 252.198426 
L 389.56452 26.877187 
L 62.741094 26.877187 
z
" style="fill: #ffffff"/>
   </g>
   <g id="matplotlib.axis_1">
    <g id="xtick_1">
     <g id="line2d_1">
      <path d="M 62.741094 252.198426 
L 62.741094 26.877187 
" clip-path="url(#p7031ceeecc)" style="fill: none; stroke-dasharray: 0.5,0.825; stroke-dashoffset: 0; stroke: #b0b0b0; stroke-opacity: 0.6; stroke-width: 0.5"/>
     </g>
     <g id="line2d_2">
      <defs>
       <path id="m7bd2eb63a1" d="M 0 0 
L 0 3.5 
" style="stroke: #000000; stroke-width: 0.8"/>
      </defs>
      <g>
       <use xlink:href="#m7bd2eb63a1" x="62.741094" y="252.198426" style="stroke: #000000; stroke-width: 0.8"/>
      </g>
     </g>
     <g id="text_1">
      <text style="font-size: 12px; font-family: 'DejaVu Serif', 'Bitstream Vera Serif', 'Computer Modern Roman', 'New Century Schoolbook', 'Century Schoolbook L', 'Utopia', 'ITC Bookman', 'Bookman', 'Nimbus Roman No9 L', 'Times New Roman', 'Times', 'Palatino', 'Charter', serif; text-anchor: middle" x="62.741094" y="268.315614" transform="rotate(-0 62.741094 268.315614)">1</text>
     </g>
    </g>
    <g id="xtick_2">
     <g id="line2d_3">
      <path d="M 99.054808 252.198426 
L 99.054808 26.877187 
" clip-path="url(#p7031ceeecc)" style="fill: none; stroke-dasharray: 0.5,0.825; stroke-dashoffset: 0; stroke: #b0b0b0; stroke-opacity: 0.6; stroke-width: 0.5"/>
     </g>
     <g id="line2d_4">
      <g>
       <use xlink:href="#m7bd2eb63a1" x="99.054808" y="252.198426" style="stroke: #000000; stroke-width: 0.8"/>
      </g>
     </g>
     <g id="text_2">
      <text style="font-size: 12px; font-family: 'DejaVu Serif', 'Bitstream Vera Serif', 'Computer Modern Roman', 'New Century Schoolbook', 'Century Schoolbook L', 'Utopia', 'ITC Bookman', 'Bookman', 'Nimbus Roman No9 L', 'Times New Roman', 'Times', 'Palatino', 'Charter', serif; text-anchor: middle" x="99.054808" y="268.315614" transform="rotate(-0 99.054808 268.315614)">2</text>
     </g>
    </g>
    <g id="xtick_3">
     <g id="line2d_5">
      <path d="M 135.368522 252.198426 
L 135.368522 26.877187 
" clip-path="url(#p7031ceeecc)" style="fill: none; stroke-dasharray: 0.5,0.825; stroke-dashoffset: 0; stroke: #b0b0b0; stroke-opacity: 0.6; stroke-width: 0.5"/>
     </g>
     <g id="line2d_6">
      <g>
       <use xlink:href="#m7bd2eb63a1" x="135.368522" y="252.198426" style="stroke: #000000; stroke-width: 0.8"/>
      </g>
     </g>
     <g id="text_3">
      <text style="font-size: 12px; font-family: 'DejaVu Serif', 'Bitstream Vera Serif', 'Computer Modern Roman', 'New Century Schoolbook', 'Century Schoolbook L', 'Utopia', 'ITC Bookman', 'Bookman', 'Nimbus Roman No9 L', 'Times New Roman', 'Times', 'Palatino', 'Charter', serif; text-anchor: middle" x="135.368522" y="268.315614" transform="rotate(-0 135.368522 268.315614)">3</text>
     </g>
    </g>
    <g id="xtick_4">
     <g id="line2d_7">
      <path d="M 171.682236 252.198426 
L 171.682236 26.877187 
" clip-path="url(#p7031ceeecc)" style="fill: none; stroke-dasharray: 0.5,0.825; stroke-dashoffset: 0; stroke: #b0b0b0; stroke-opacity: 0.6; stroke-width: 0.5"/>
     </g>
     <g id="line2d_8">
      <g>
       <use xlink:href="#m7bd2eb63a1" x="171.682236" y="252.198426" style="stroke: #000000; stroke-width: 0.8"/>
      </g>
     </g>
     <g id="text_4">
      <text style="font-size: 12px; font-family: 'DejaVu Serif', 'Bitstream Vera Serif', 'Computer Modern Roman', 'New Century Schoolbook', 'Century Schoolbook L', 'Utopia', 'ITC Bookman', 'Bookman', 'Nimbus Roman No9 L', 'Times New Roman', 'Times', 'Palatino', 'Charter', serif; text-anchor: middle" x="171.682236" y="268.315614" transform="rotate(-0 171.682236 268.315614)">4</text>
     </g>
    </g>
    <g id="xtick_5">
     <g id="line2d_9">
      <path d="M 207.99595 252.198426 
L 207.99595 26.877187 
" clip-path="url(#p7031ceeecc)" style="fill: none; stroke-dasharray: 0.5,0.825; stroke-dashoffset: 0; stroke: #b0b0b0; stroke-opacity: 0.6; stroke-width: 0.5"/>
     </g>
     <g id="line2d_10">
      <g>
       <use xlink:href="#m7bd2eb63a1" x="207.99595" y="252.198426" style="stroke: #000000; stroke-width: 0.8"/>
      </g>
     </g>
     <g id="text_5">
      <text style="font-size: 12px; font-family: 'DejaVu Serif', 'Bitstream Vera Serif', 'Computer Modern Roman', 'New Century Schoolbook', 'Century Schoolbook L', 'Utopia', 'ITC Bookman', 'Bookman', 'Nimbus Roman No9 L', 'Times New Roman', 'Times', 'Palatino', 'Charter', serif; text-anchor: middle" x="207.99595" y="268.315614" transform="rotate(-0 207.99595 268.315614)">5</text>
     </g>
    </g>
    <g id="xtick_6">
     <g id="line2d_11">
      <path d="M 244.309664 252.198426 
L 244.309664 26.877187 
" clip-path="url(#p7031ceeecc)" style="fill: none; stroke-dasharray: 0.5,0.825; stroke-dashoffset: 0; stroke: #b0b0b0; stroke-opacity: 0.6; stroke-width: 0.5"/>
     </g>
     <g id="line2d_12">
      <g>
       <use xlink:href="#m7bd2eb63a1" x="244.309664" y="252.198426" style="stroke: #000000; stroke-width: 0.8"/>
      </g>
     </g>
     <g id="text_6">
      <text style="font-size: 12px; font-family: 'DejaVu Serif', 'Bitstream Vera Serif', 'Computer Modern Roman', 'New Century Schoolbook', 'Century Schoolbook L', 'Utopia', 'ITC Bookman', 'Bookman', 'Nimbus Roman No9 L', 'Times New Roman', 'Times', 'Palatino', 'Charter', serif; text-anchor: middle" x="244.309664" y="268.315614" transform="rotate(-0 244.309664 268.315614)">6</text>
     </g>
    </g>
    <g id="xtick_7">
     <g id="line2d_13">
      <path d="M 280.623378 252.198426 
L 280.623378 26.877187 
" clip-path="url(#p7031ceeecc)" style="fill: none; stroke-dasharray: 0.5,0.825; stroke-dashoffset: 0; stroke: #b0b0b0; stroke-opacity: 0.6; stroke-width: 0.5"/>
     </g>
     <g id="line2d_14">
      <g>
       <use xlink:href="#m7bd2eb63a1" x="280.623378" y="252.198426" style="stroke: #000000; stroke-width: 0.8"/>
      </g>
     </g>
     <g id="text_7">
      <text style="font-size: 12px; font-family: 'DejaVu Serif', 'Bitstream Vera Serif', 'Computer Modern Roman', 'New Century Schoolbook', 'Century Schoolbook L', 'Utopia', 'ITC Bookman', 'Bookman', 'Nimbus Roman No9 L', 'Times New Roman', 'Times', 'Palatino', 'Charter', serif; text-anchor: middle" x="280.623378" y="268.315614" transform="rotate(-0 280.623378 268.315614)">7</text>
     </g>
    </g>
    <g id="xtick_8">
     <g id="line2d_15">
      <path d="M 316.937092 252.198426 
L 316.937092 26.877187 
" clip-path="url(#p7031ceeecc)" style="fill: none; stroke-dasharray: 0.5,0.825; stroke-dashoffset: 0; stroke: #b0b0b0; stroke-opacity: 0.6; stroke-width: 0.5"/>
     </g>
     <g id="line2d_16">
      <g>
       <use xlink:href="#m7bd2eb63a1" x="316.937092" y="252.198426" style="stroke: #000000; stroke-width: 0.8"/>
      </g>
     </g>
     <g id="text_8">
      <text style="font-size: 12px; font-family: 'DejaVu Serif', 'Bitstream Vera Serif', 'Computer Modern Roman', 'New Century Schoolbook', 'Century Schoolbook L', 'Utopia', 'ITC Bookman', 'Bookman', 'Nimbus Roman No9 L', 'Times New Roman', 'Times', 'Palatino', 'Charter', serif; text-anchor: middle" x="316.937092" y="268.315614" transform="rotate(-0 316.937092 268.315614)">8</text>
     </g>
    </g>
    <g id="xtick_9">
     <g id="line2d_17">
      <path d="M 353.250806 252.198426 
L 353.250806 26.877187 
" clip-path="url(#p7031ceeecc)" style="fill: none; stroke-dasharray: 0.5,0.825; stroke-dashoffset: 0; stroke: #b0b0b0; stroke-opacity: 0.6; stroke-width: 0.5"/>
     </g>
     <g id="line2d_18">
      <g>
       <use xlink:href="#m7bd2eb63a1" x="353.250806" y="252.198426" style="stroke: #000000; stroke-width: 0.8"/>
      </g>
     </g>
     <g id="text_9">
      <text style="font-size: 12px; font-family: 'DejaVu Serif', 'Bitstream Vera Serif', 'Computer Modern Roman', 'New Century Schoolbook', 'Century Schoolbook L', 'Utopia', 'ITC Bookman', 'Bookman', 'Nimbus Roman No9 L', 'Times New Roman', 'Times', 'Palatino', 'Charter', serif; text-anchor: middle" x="353.250806" y="268.315614" transform="rotate(-0 353.250806 268.315614)">9</text>
     </g>
    </g>
    <g id="xtick_10">
     <g id="line2d_19">
      <path d="M 389.56452 252.198426 
L 389.56452 26.877187 
" clip-path="url(#p7031ceeecc)" style="fill: none; stroke-dasharray: 0.5,0.825; stroke-dashoffset: 0; stroke: #b0b0b0; stroke-opacity: 0.6; stroke-width: 0.5"/>
     </g>
     <g id="line2d_20">
      <g>
       <use xlink:href="#m7bd2eb63a1" x="389.56452" y="252.198426" style="stroke: #000000; stroke-width: 0.8"/>
      </g>
     </g>
     <g id="text_10">
      <text style="font-size: 12px; font-family: 'DejaVu Serif', 'Bitstream Vera Serif', 'Computer Modern Roman', 'New Century Schoolbook', 'Century Schoolbook L', 'Utopia', 'ITC Bookman', 'Bookman', 'Nimbus Roman No9 L', 'Times New Roman', 'Times', 'Palatino', 'Charter', serif; text-anchor: middle" x="389.56452" y="268.315614" transform="rotate(-0 389.56452 268.315614)">10</text>
     </g>
    </g>
    <g id="text_11">
     <text style="font-size: 14px; font-family: 'DejaVu Serif', 'Bitstream Vera Serif', 'Computer Modern Roman', 'New Century Schoolbook', 'Century Schoolbook L', 'Utopia', 'ITC Bookman', 'Bookman', 'Nimbus Roman No9 L', 'Times New Roman', 'Times', 'Palatino', 'Charter', serif; text-anchor: middle" x="226.152807" y="285.836239" transform="rotate(-0 226.152807 285.836239)">O/F ratio (-)</text>
    </g>
   </g>
   <g id="matplotlib.axis_2">
    <g id="ytick_1">
     <g id="line2d_21">
      <path d="M 62.741094 248.055417 
L 389.56452 248.055417 
" clip-path="url(#p7031ceeecc)" style="fill: none; stroke-dasharray: 0.5,0.825; stroke-dashoffset: 0; stroke: #b0b0b0; stroke-opacity: 0.6; stroke-width: 0.5"/>
     </g>
     <g id="line2d_22">
      <defs>
       <path id="ma4cca0ce12" d="M 0 0 
L -3.5 0 
" style="stroke: #000000; stroke-width: 0.8"/>
      </defs>
      <g>
       <use xlink:href="#ma4cca0ce12" x="62.741094" y="248.055417" style="stroke: #000000; stroke-width: 0.8"/>
      </g>
     </g>
     <g id="text_12">
      <text style="font-size: 12px; font-family: 'DejaVu Serif', 'Bitstream Vera Serif', 'Computer Modern Roman', 'New Century Schoolbook', 'Century Schoolbook L', 'Utopia', 'ITC Bookman', 'Bookman', 'Nimbus Roman No9 L', 'Times New Roman', 'Times', 'Palatino', 'Charter', serif; text-anchor: end" x="55.741094" y="252.61401" transform="rotate(-0 55.741094 252.61401)">1000</text>
     </g>
    </g>
    <g id="ytick_2">
     <g id="line2d_23">
      <path d="M 62.741094 208.380598 
L 389.56452 208.380598 
" clip-path="url(#p7031ceeecc)" style="fill: none; stroke-dasharray: 0.5,0.825; stroke-dashoffset: 0; stroke: #b0b0b0; stroke-opacity: 0.6; stroke-width: 0.5"/>
     </g>
     <g id="line2d_24">
      <g>
       <use xlink:href="#ma4cca0ce12" x="62.741094" y="208.380598" style="stroke: #000000; stroke-width: 0.8"/>
      </g>
     </g>
     <g id="text_13">
      <text style="font-size: 12px; font-family: 'DejaVu Serif', 'Bitstream Vera Serif', 'Computer Modern Roman', 'New Century Schoolbook', 'Century Schoolbook L', 'Utopia', 'ITC Bookman', 'Bookman', 'Nimbus Roman No9 L', 'Times New Roman', 'Times', 'Palatino', 'Charter', serif; text-anchor: end" x="55.741094" y="212.939192" transform="rotate(-0 55.741094 212.939192)">1500</text>
     </g>
    </g>
    <g id="ytick_3">
     <g id="line2d_25">
      <path d="M 62.741094 168.70578 
L 389.56452 168.70578 
" clip-path="url(#p7031ceeecc)" style="fill: none; stroke-dasharray: 0.5,0.825; stroke-dashoffset: 0; stroke: #b0b0b0; stroke-opacity: 0.6; stroke-width: 0.5"/>
     </g>
     <g id="line2d_26">
      <g>
       <use xlink:href="#ma4cca0ce12" x="62.741094" y="168.70578" style="stroke: #000000; stroke-width: 0.8"/>
      </g>
     </g>
     <g id="text_14">
      <text style="font-size: 12px; font-family: 'DejaVu Serif', 'Bitstream Vera Serif', 'Computer Modern Roman', 'New Century Schoolbook', 'Century Schoolbook L', 'Utopia', 'ITC Bookman', 'Bookman', 'Nimbus Roman No9 L', 'Times New Roman', 'Times', 'Palatino', 'Charter', serif; text-anchor: end" x="55.741094" y="173.264373" transform="rotate(-0 55.741094 173.264373)">2000</text>
     </g>
    </g>
    <g id="ytick_4">
     <g id="line2d_27">
      <path d="M 62.741094 129.030961 
L 389.56452 129.030961 
" clip-path="url(#p7031ceeecc)" style="fill: none; stroke-dasharray: 0.5,0.825; stroke-dashoffset: 0; stroke: #b0b0b0; stroke-opacity: 0.6; stroke-width: 0.5"/>
     </g>
     <g id="line2d_28">
      <g>
       <use xlink:href="#ma4cca0ce12" x="62.741094" y="129.030961" style="stroke: #000000; stroke-width: 0.8"/>
      </g>
     </g>
     <g id="text_15">
      <text style="font-size: 12px; font-family: 'DejaVu Serif', 'Bitstream Vera Serif', 'Computer Modern Roman', 'New Century Schoolbook', 'Century Schoolbook L', 'Utopia', 'ITC Bookman', 'Bookman', 'Nimbus Roman No9 L', 'Times New Roman', 'Times', 'Palatino', 'Charter', serif; text-anchor: end" x="55.741094" y="133.589555" transform="rotate(-0 55.741094 133.589555)">2500</text>
     </g>
    </g>
    <g id="ytick_5">
     <g id="line2d_29">
      <path d="M 62.741094 89.356143 
L 389.56452 89.356143 
" clip-path="url(#p7031ceeecc)" style="fill: none; stroke-dasharray: 0.5,0.825; stroke-dashoffset: 0; stroke: #b0b0b0; stroke-opacity: 0.6; stroke-width: 0.5"/>
     </g>
     <g id="line2d_30">
      <g>
       <use xlink:href="#ma4cca0ce12" x="62.741094" y="89.356143" style="stroke: #000000; stroke-width: 0.8"/>
      </g>
     </g>
     <g id="text_16">
      <text style="font-size: 12px; font-family: 'DejaVu Serif', 'Bitstream Vera Serif', 'Computer Modern Roman', 'New Century Schoolbook', 'Century Schoolbook L', 'Utopia', 'ITC Bookman', 'Bookman', 'Nimbus Roman No9 L', 'Times New Roman', 'Times', 'Palatino', 'Charter', serif; text-anchor: end" x="55.741094" y="93.914736" transform="rotate(-0 55.741094 93.914736)">3000</text>
     </g>
    </g>
    <g id="ytick_6">
     <g id="line2d_31">
      <path d="M 62.741094 49.681324 
L 389.56452 49.681324 
" clip-path="url(#p7031ceeecc)" style="fill: none; stroke-dasharray: 0.5,0.825; stroke-dashoffset: 0; stroke: #b0b0b0; stroke-opacity: 0.6; stroke-width: 0.5"/>
     </g>
     <g id="line2d_32">
      <g>
       <use xlink:href="#ma4cca0ce12" x="62.741094" y="49.681324" style="stroke: #000000; stroke-width: 0.8"/>
      </g>
     </g>
     <g id="text_17">
      <text style="font-size: 12px; font-family: 'DejaVu Serif', 'Bitstream Vera Serif', 'Computer Modern Roman', 'New Century Schoolbook', 'Century Schoolbook L', 'Utopia', 'ITC Bookman', 'Bookman', 'Nimbus Roman No9 L', 'Times New Roman', 'Times', 'Palatino', 'Charter', serif; text-anchor: end" x="55.741094" y="54.239918" transform="rotate(-0 55.741094 54.239918)">3500</text>
     </g>
    </g>
    <g id="text_18">
     <text style="font-size: 14px; font-family: 'DejaVu Serif', 'Bitstream Vera Serif', 'Computer Modern Roman', 'New Century Schoolbook', 'Century Schoolbook L', 'Utopia', 'ITC Bookman', 'Bookman', 'Nimbus Roman No9 L', 'Times New Roman', 'Times', 'Palatino', 'Charter', serif; text-anchor: middle" x="17.837813" y="139.537807" transform="rotate(-90 17.837813 139.537807)">Adiabatic flame temperature (K)</text>
    </g>
   </g>
   <g id="line2d_33">
    <path d="M 62.741094 241.956552 
L 67.876366 240.350966 
L 73.011639 226.925674 
L 78.146912 215.334505 
L 83.282185 207.038665 
L 88.417457 200.34057 
L 93.55273 194.132996 
L 98.688003 187.680531 
L 103.823275 180.445946 
L 108.958548 172.234664 
L 114.093821 163.355783 
L 119.229093 154.329092 
L 124.364366 145.51984 
L 129.499639 137.100714 
L 134.634911 129.135433 
L 139.770184 121.633311 
L 144.905457 114.434598 
L 150.040729 107.622443 
L 155.176002 101.356783 
L 160.311275 95.61066 
L 165.446548 90.364981 
L 170.58182 85.608438 
L 175.717093 81.334911 
L 180.852366 77.539413 
L 185.987638 74.213452 
L 191.122911 71.341156 
L 196.258184 68.897453 
L 201.393456 66.848765 
L 206.528729 65.155635 
L 211.664002 63.776104 
L 216.799274 62.668786 
L 221.934547 61.795044 
L 227.06982 61.120208 
L 232.205093 60.614011 
L 237.340365 60.250513 
L 242.475638 60.007745 
L 247.610911 59.867225 
L 252.746183 59.813465 
L 257.881456 59.833494 
L 263.016729 59.916444 
L 268.152001 60.053193 
L 273.287274 60.236063 
L 278.422547 60.458574 
L 283.557819 60.715234 
L 288.693092 61.001378 
L 293.828365 61.313024 
L 298.963638 61.646764 
L 304.09891 61.999669 
L 309.234183 62.369215 
L 314.369456 62.753216 
L 319.504728 63.149779 
L 324.640001 63.557252 
L 329.775274 63.974197 
L 334.910546 64.39935 
L 340.045819 64.831607 
L 345.181092 65.269991 
L 350.316364 65.713644 
L 355.451637 66.161806 
L 360.58691 66.613801 
L 365.722183 67.069033 
L 370.857455 67.526968 
L 375.992728 67.987131 
L 381.128001 68.449097 
L 386.263273 68.912488 
L 391.398546 69.376962 
L 396.533819 69.842214 
L 401.669091 70.307968 
L 405.39952 70.646493 
" clip-path="url(#p7031ceeecc)" style="fill: none; stroke: #463480; stroke-width: 2.5; stroke-linecap: square"/>
   </g>
   <g id="line2d_34">
    <path d="M 44.584237 239.194685 
L 46.23486 226.673968 
L 47.885483 215.953324 
L 49.536107 208.114963 
L 51.18673 201.944328 
L 52.837354 196.568417 
L 54.487977 191.430839 
L 56.1386 186.095625 
L 57.789224 180.133365 
L 59.439847 173.10844 
L 61.09047 164.752747 
L 62.741094 155.250241 
L 64.391717 145.164528 
L 66.04234 135.03568 
L 67.692964 125.185973 
L 69.343587 115.240151 
L 70.994211 105.485365 
L 72.644834 96.542859 
L 74.295457 88.388601 
L 75.946081 80.99673 
L 77.596704 74.345092 
L 79.247327 68.415132 
L 80.897951 63.187571 
L 82.548574 58.636284 
L 84.199197 54.723577 
L 85.849821 51.399199 
L 87.500444 48.60328 
L 89.151068 46.271455 
L 90.801691 44.340009 
L 92.452314 42.74966 
L 94.102938 41.447648 
L 95.753561 40.388415 
L 97.404184 39.533392 
L 99.054808 38.850317 
L 100.705431 38.312374 
L 102.356055 37.897338 
L 104.006678 37.586784 
L 105.657301 37.365412 
L 107.307925 37.220481 
L 108.958548 37.141344 
L 110.609171 37.119062 
L 112.259795 37.146104 
L 113.910418 37.216095 
L 115.561041 37.323613 
L 117.211665 37.464031 
L 118.862288 37.633381 
L 120.512912 37.828248 
L 122.163535 38.04568 
L 123.814158 38.283118 
L 125.464782 38.538333 
L 127.115405 38.809381 
L 128.766028 39.094557 
L 130.416652 39.392364 
L 132.067275 39.701483 
L 133.717898 40.020747 
L 135.368522 40.349125 
L 137.019145 40.6857 
L 138.669769 41.029655 
L 140.320392 41.380264 
L 141.971015 41.736875 
L 143.621639 42.098906 
L 145.272262 42.465836 
L 146.922885 42.837195 
L 148.573509 43.21256 
L 150.224132 43.591552 
L 151.874755 43.973827 
L 153.525379 44.359073 
L 155.176002 44.747012 
L 156.826626 45.137387 
L 158.477249 45.529969 
L 160.127872 45.924549 
L 161.778496 46.320935 
L 163.429119 46.718956 
L 165.079742 47.118454 
L 166.730366 47.519286 
L 168.380989 47.921322 
L 170.031612 48.324443 
L 171.682236 48.72854 
L 173.332859 49.133517 
L 174.983483 49.539281 
L 176.634106 49.945752 
L 178.284729 50.352855 
L 179.935353 50.760521 
L 181.585976 51.168689 
L 183.236599 51.577301 
L 184.887223 51.986307 
L 186.537846 52.395659 
L 188.188469 52.805315 
L 189.839093 53.215237 
L 191.489716 53.625388 
L 193.14034 54.035737 
L 194.790963 54.446255 
L 196.441586 54.856916 
L 198.09221 55.267697 
L 199.742833 55.678576 
L 201.393456 56.089535 
L 203.04408 56.500556 
L 204.694703 56.911625 
L 206.345326 57.322728 
L 207.99595 57.733853 
" clip-path="url(#p7031ceeecc)" style="fill: none; stroke-dasharray: 9.25,4; stroke-dashoffset: 0; stroke: #1e9c89; stroke-width: 2.5"/>
   </g>
   <g id="line2d_35">
    <path d="M 62.741094 231.825049 
L 66.04234 231.586587 
L 69.343587 230.894471 
L 72.644834 229.869125 
L 75.946081 228.454608 
L 79.247327 226.424781 
L 82.548574 223.218057 
L 85.849821 217.840854 
L 89.151068 210.452719 
L 92.452314 202.713105 
L 95.753561 195.324339 
L 99.054808 188.381805 
L 102.356055 181.868962 
L 105.657301 175.754427 
L 108.958548 170.007564 
L 112.259795 164.600869 
L 115.561041 159.510002 
L 118.862288 154.713416 
L 122.163535 150.19194 
L 125.464782 145.928427 
L 128.766028 141.907453 
L 132.067275 138.115072 
L 135.368522 134.538618 
L 138.669769 131.166549 
L 141.971015 127.988316 
L 145.272262 124.994253 
L 148.573509 122.175495 
L 151.874755 119.523898 
L 155.176002 117.03197 
L 158.477249 114.692813 
L 161.778496 112.500058 
L 165.079742 110.447805 
L 168.380989 108.530564 
L 171.682236 106.743192 
L 174.983483 105.080825 
L 178.284729 103.538822 
L 181.585976 102.112698 
L 184.887223 100.798071 
L 188.188469 99.590611 
L 191.489716 98.486001 
L 194.790963 97.479906 
L 198.09221 96.567955 
L 201.393456 95.745739 
L 204.694703 95.008812 
L 207.99595 94.352709 
L 211.297197 93.772972 
L 214.598443 93.26517 
L 217.89969 92.824937 
L 221.200937 92.447998 
L 224.502184 92.130198 
L 227.80343 91.867524 
L 231.104677 91.656129 
L 234.405924 91.492346 
L 237.70717 91.372696 
L 241.008417 91.293899 
L 244.309664 91.252871 
L 247.610911 91.246727 
L 250.912157 91.272774 
L 254.213404 91.328507 
L 257.514651 91.411598 
L 260.815898 91.519892 
L 264.117144 91.651393 
L 267.418391 91.804258 
L 270.719638 91.976781 
L 274.020884 92.167389 
L 277.322131 92.374633 
L 280.623378 92.597171 
L 283.924625 92.833768 
L 287.225871 93.083283 
L 290.527118 93.344664 
L 293.828365 93.616939 
L 297.129612 93.899207 
L 300.430858 94.19064 
L 303.732105 94.490468 
L 307.033352 94.79798 
L 310.334598 95.112517 
L 313.635845 95.433469 
L 316.937092 95.760269 
L 320.238339 96.09239 
L 323.539585 96.429345 
L 326.840832 96.770679 
L 330.142079 97.115969 
L 333.443326 97.464822 
L 336.744572 97.816871 
L 340.045819 98.171773 
L 343.347066 98.529211 
L 346.648313 98.888886 
L 349.949559 99.25052 
L 353.250806 99.613852 
L 356.552053 99.97864 
L 359.853299 100.344656 
L 363.154546 100.711686 
L 366.455793 101.079532 
L 369.75704 101.448006 
L 373.058286 101.816934 
L 376.359533 102.18615 
L 379.66078 102.555501 
L 382.962027 102.924841 
L 386.263273 103.294037 
L 389.56452 103.66296 
" clip-path="url(#p7031ceeecc)" style="fill: none; stroke-dasharray: 16,4,2.5,4; stroke-dashoffset: 0; stroke: #9bd93c; stroke-width: 2.5"/>
   </g>
   <g id="patch_3">
    <path d="M 62.741094 252.198426 
L 62.741094 26.877187 
" style="fill: none; stroke: #000000; stroke-linejoin: miter; stroke-linecap: square"/>
   </g>
   <g id="patch_4">
    <path d="M 389.56452 252.198426 
L 389.56452 26.877187 
" style="fill: none; stroke: #000000; stroke-linejoin: miter; stroke-linecap: square"/>
   </g>
   <g id="patch_5">
    <path d="M 62.741094 252.198426 
L 389.56452 252.198426 
" style="fill: none; stroke: #000000; stroke-linejoin: miter; stroke-linecap: square"/>
   </g>
   <g id="patch_6">
    <path d="M 62.741094 26.877187 
L 389.56452 26.877187 
" style="fill: none; stroke: #000000; stroke-linejoin: miter; stroke-linecap: square"/>
   </g>
   <g id="text_19">
    <text style="font-size: 18px; font-family: 'DejaVu Serif', 'Bitstream Vera Serif', 'Computer Modern Roman', 'New Century Schoolbook', 'Century Schoolbook L', 'Utopia', 'ITC Bookman', 'Bookman', 'Nimbus Roman No9 L', 'Times New Roman', 'Times', 'Palatino', 'Charter', serif; text-anchor: middle" x="226.152807" y="20.877187" transform="rotate(-0 226.152807 20.877187)">ABS, Flame temperature at 20 bar</text>
   </g>
   <g id="legend_1">
    <g id="line2d_36">
     <path d="M 296.26327 189.332957 
L 310.26327 189.332957 
L 324.26327 189.332957 
" style="fill: none; stroke: #463480; stroke-width: 2.5; stroke-linecap: square"/>
    </g>
    <g id="text_20">
     <text style="font-size: 14px; font-family: 'DejaVu Serif', 'Bitstream Vera Serif', 'Computer Modern Roman', 'New Century Schoolbook', 'Century Schoolbook L', 'Utopia', 'ITC Bookman', 'Bookman', 'Nimbus Roman No9 L', 'Times New Roman', 'Times', 'Palatino', 'Charter', serif; text-anchor: start" x="335.46327" y="194.232957" transform="rotate(-0 335.46327 194.232957)">N2O</text>
    </g>
    <g id="line2d_37">
     <path d="M 296.26327 210.334051 
L 310.26327 210.334051 
L 324.26327 210.334051 
" style="fill: none; stroke-dasharray: 9.25,4; stroke-dashoffset: 0; stroke: #1e9c89; stroke-width: 2.5"/>
    </g>
    <g id="text_21">
     <text style="font-size: 14px; font-family: 'DejaVu Serif', 'Bitstream Vera Serif', 'Computer Modern Roman', 'New Century Schoolbook', 'Century Schoolbook L', 'Utopia', 'ITC Bookman', 'Bookman', 'Nimbus Roman No9 L', 'Times New Roman', 'Times', 'Palatino', 'Charter', serif; text-anchor: start" x="335.46327" y="215.234051" transform="rotate(-0 335.46327 215.234051)">O2</text>
    </g>
    <g id="line2d_38">
     <path d="M 296.26327 231.335145 
L 310.26327 231.335145 
L 324.26327 231.335145 
" style="fill: none; stroke-dasharray: 16,4,2.5,4; stroke-dashoffset: 0; stroke: #9bd93c; stroke-width: 2.5"/>
    </g>
    <g id="text_22">
     <text style="font-size: 14px; font-family: 'DejaVu Serif', 'Bitstream Vera Serif', 'Computer Modern Roman', 'New Century Schoolbook', 'Century Schoolbook L', 'Utopia', 'ITC Bookman', 'Bookman', 'Nimbus Roman No9 L', 'Times New Roman', 'Times', 'Palatino', 'Charter', serif; text-anchor: start" x="335.46327" y="236.235145" transform="rotate(-0 335.46327 236.235145)">H2O2</text>
    </g>
   </g>
  </g>
 </g>
 <defs>
  <clipPath id="p7031ceeecc">
   <rect x="62.741094" y="26.877187" width="326.823426" height="225.321239"/>
  </clipPath>
 </defs>
</svg>
